<?xml version="1.0" encoding="utf-8"?>
<!-- Generator: Adobe Illustrator 22.1.0, SVG Export Plug-In . SVG Version: 6.00 Build 0)  -->
<svg version="1.1" xmlns="http://www.w3.org/2000/svg" xmlns:xlink="http://www.w3.org/1999/xlink" x="0px" y="0px"
	 viewBox="0 0 140 48" style="enable-background:new 0 0 140 48;" xml:space="preserve">
<style type="text/css">
	.st0{clip-path:url(#SVGID_2_);}
	.st1{clip-path:url(#SVGID_4_);fill:#83B950;}
	.st2{clip-path:url(#SVGID_6_);}
	.st3{clip-path:url(#SVGID_8_);fill:#757581;}
	.st4{clip-path:url(#SVGID_10_);}
	.st5{clip-path:url(#SVGID_12_);fill:#83B950;}
	.st6{clip-path:url(#SVGID_14_);}
	.st7{clip-path:url(#SVGID_16_);fill:#757581;}
	.st8{fill:#666666;}
	.st9{clip-path:url(#SVGID_18_);}
	.st10{clip-path:url(#SVGID_20_);fill:#83B950;}
	.st11{clip-path:url(#SVGID_22_);}
	.st12{clip-path:url(#SVGID_24_);fill:#757581;}
	.st13{clip-path:url(#SVGID_26_);}
	.st14{clip-path:url(#SVGID_28_);fill:#83B950;}
	.st15{clip-path:url(#SVGID_30_);}
	.st16{clip-path:url(#SVGID_32_);fill:#757581;}
	.st17{fill:#8D5296;}
	.st18{fill:#1F1D1E;}
	.st19{clip-path:url(#SVGID_34_);}
	.st20{clip-path:url(#SVGID_36_);fill:#83B950;}
	.st21{clip-path:url(#SVGID_38_);}
	.st22{clip-path:url(#SVGID_40_);fill:#757581;}
	.st23{fill:#7BA74E;stroke:#83B950;stroke-miterlimit:10;}
	.st24{clip-path:url(#SVGID_42_);}
	.st25{clip-path:url(#SVGID_44_);fill:#83B950;}
	.st26{clip-path:url(#SVGID_46_);}
	.st27{clip-path:url(#SVGID_48_);fill:#757581;}
	.st28{fill:#83B950;}
	.st29{clip-path:url(#SVGID_50_);}
	.st30{clip-path:url(#SVGID_52_);fill:#83B950;}
	.st31{clip-path:url(#SVGID_54_);}
	.st32{clip-path:url(#SVGID_56_);fill:#757581;}
	.st33{fill:#545454;}
	.st34{clip-path:url(#SVGID_58_);}
	.st35{clip-path:url(#SVGID_60_);fill:#83B950;}
	.st36{clip-path:url(#SVGID_62_);}
	.st37{clip-path:url(#SVGID_64_);fill:#757581;}
	.st38{fill:#F9F9F9;}
	.st39{fill:none;stroke:#0090CF;stroke-width:5;stroke-miterlimit:10;}
	.st40{fill:#0090CF;}
	.st41{fill:none;stroke:#0090CF;stroke-width:2;stroke-miterlimit:10;}
	.st42{fill:none;stroke:#1F8174;stroke-width:5;stroke-miterlimit:10;}
	.st43{fill:#1F8174;}
	.st44{fill:none;stroke:#FF6F4A;stroke-width:5;stroke-miterlimit:10;}
	.st45{fill:#FF6F4A;}
	.st46{fill:none;stroke:#99ABB2;stroke-width:2;stroke-miterlimit:10;}
	.st47{fill:#FFD41C;}
	.st48{fill:none;stroke:#FFD41C;stroke-width:5;stroke-miterlimit:10;}
	.st49{fill:none;stroke:#BA1965;stroke-width:5;stroke-miterlimit:10;}
	.st50{fill:#BA1965;}
	.st51{fill:#4D4D4D;}
	.st52{fill:none;stroke:#0090CF;stroke-miterlimit:10;}
	.st53{fill:none;stroke:#FF6F4A;stroke-miterlimit:10;}
	.st54{fill:none;stroke:#1F8174;stroke-miterlimit:10;}
	.st55{fill:none;stroke:#FFD41C;stroke-miterlimit:10;}
	.st56{fill:none;stroke:#BA1965;stroke-miterlimit:10;}
	.st57{fill:none;stroke:#99ABB2;stroke-width:2;stroke-miterlimit:10;stroke-dasharray:2,2;}
	.st58{fill:#99ABB2;}
	.st59{fill:#D5E3EF;}
	.st60{fill:#B0C4D9;}
	.st61{fill:#F79548;}
	.st62{fill:#FCBB76;}
	.st63{fill:#99B4CD;}
	.st64{fill:#6C9ABB;}
	.st65{fill:#70B7E5;}
	.st66{fill:#F04B4D;}
	.st67{fill:#4C9CD6;}
	.st68{fill:#F04D4E;}
	.st69{fill:#DB343F;}
	.st70{fill:#ECF0F9;}
	.st71{fill:#F26A56;}
	.st72{fill:#6E18FF;}
	.st73{fill:none;stroke:#000000;stroke-miterlimit:10;}
	.st74{fill:none;stroke:#000000;stroke-miterlimit:10;stroke-dasharray:2.0164,2.0164;}
	.st75{fill:none;stroke:#000000;stroke-miterlimit:10;stroke-dasharray:2,2;}
	.st76{fill:none;stroke:#6E18FF;stroke-miterlimit:10;}
	.st77{fill:#464655;}
	.st78{fill:#FFFFFF;}
	.st79{fill:#BEC8DC;}
	.st80{fill:#AFBBD0;}
	.st81{fill:#96A5B9;}
	.st82{fill:#E4EAF6;}
	.st83{fill:#FF6469;}
	.st84{fill:none;stroke:#000000;stroke-miterlimit:10;stroke-dasharray:2.0247,2.0247;}
	.st85{fill:none;stroke:#6E18FF;stroke-miterlimit:10;stroke-dasharray:2.0247,2.0247;}
	.st86{fill:#F1E00F;}
	.st87{fill:#C52171;}
	.st88{fill:none;stroke:#FBFAE1;stroke-miterlimit:10;}
	.st89{fill:#4C9E81;}
	.st90{fill:#2F5B46;}
	.st91{fill:#2090BC;}
	.st92{fill:#097189;}
	.st93{fill:#33AEE1;}
	.st94{fill:none;stroke:#1F1D1E;stroke-miterlimit:10;}
	.st95{fill:#89C8E9;}
	.st96{fill:#CBE5EB;}
	.st97{fill:#E4E3B2;}
	.st98{fill:#241622;}
	.st99{fill:#662D91;}
	.st100{fill:#4E237C;}
	.st101{fill:#333233;}
	.st102{fill:#CC898E;}
	.st103{fill:#CCCCCC;}
	.st104{fill:#E4A42E;}
	.st105{fill:#D38A31;}
	.st106{fill:#BB5F77;}
	.st107{fill:#FCF7FA;}
</style>
<g id="Capa_1">
	<g>
		<g>
			<path class="st58" d="M6.5,45L5,43.7c0,0,0.5-0.6,1.5-1.5l1.4,1.5C6.9,44.5,6.5,45,6.5,45z M9.3,42.3l-1.3-1.5
				c0.5-0.4,1-0.8,1.5-1.3l1.3,1.5C10.2,41.5,9.7,41.9,9.3,42.3z M12.3,39.8l-1.2-1.6c0.5-0.4,1-0.8,1.6-1.2l1.2,1.6
				C13.3,39,12.8,39.4,12.3,39.8z M15.5,37.4l-1.2-1.6c0.5-0.4,1.1-0.8,1.7-1.2l1.1,1.7C16.5,36.7,16,37.1,15.5,37.4z M18.7,35.2
				l-1.1-1.7c0.5-0.4,1.1-0.7,1.7-1.1l1.1,1.7C19.8,34.5,19.3,34.8,18.7,35.2z M22.1,33.1l-1-1.7c0.6-0.3,1.1-0.7,1.7-1l1,1.7
				C23.2,32.4,22.6,32.7,22.1,33.1z M25.5,31.1l-1-1.7c0.6-0.3,1.2-0.6,1.8-1l1,1.8C26.7,30.4,26.1,30.8,25.5,31.1z M29,29.2
				l-0.9-1.8c0.6-0.3,1.2-0.6,1.8-0.9l0.9,1.8C30.2,28.6,29.6,28.9,29,29.2z M32.5,27.4l-0.9-1.8c0.6-0.3,1.2-0.6,1.8-0.9l0.9,1.8
				C33.7,26.8,33.1,27.1,32.5,27.4z M36.1,25.7l-0.8-1.8c0.6-0.3,1.2-0.6,1.8-0.8l0.8,1.8C37.3,25.1,36.7,25.4,36.1,25.7z
				 M39.8,24.1L39,22.2c0.6-0.3,1.2-0.5,1.9-0.8l0.8,1.8C41,23.6,40.4,23.8,39.8,24.1z M43.4,22.6l-0.7-1.9c0.6-0.2,1.2-0.5,1.9-0.7
				l0.7,1.9C44.7,22.1,44.1,22.3,43.4,22.6z M47.2,21.1l-0.7-1.9c0.6-0.2,1.3-0.5,1.9-0.7l0.7,1.9C48.4,20.7,47.8,20.9,47.2,21.1z
				 M50.9,19.8l-0.7-1.9c0.6-0.2,1.3-0.4,1.9-0.6l0.6,1.9C52.1,19.4,51.5,19.6,50.9,19.8z M54.7,18.6l-0.6-1.9
				c0.6-0.2,1.3-0.4,1.9-0.6l0.6,1.9C55.9,18.2,55.3,18.4,54.7,18.6z M58.5,17.4l-0.6-1.9c0.6-0.2,1.3-0.4,1.9-0.6l0.6,1.9
				C59.7,17,59.1,17.2,58.5,17.4z M62.3,16.3l-0.5-1.9c0.6-0.2,1.3-0.4,1.9-0.5l0.5,1.9C63.6,15.9,62.9,16.1,62.3,16.3z M66.1,15.3
				l-0.5-1.9c0.6-0.2,1.3-0.3,1.9-0.5l0.5,1.9C67.4,14.9,66.8,15.1,66.1,15.3z M70,14.3l-0.5-1.9c0.6-0.2,1.3-0.3,2-0.4l0.4,2
				C71.3,14,70.7,14.2,70,14.3z M73.9,13.4l-0.4-2c0.7-0.1,1.3-0.3,2-0.4l0.4,2C75.2,13.2,74.6,13.3,73.9,13.4z M77.8,12.6l-0.4-2
				c0.7-0.1,1.3-0.3,2-0.4l0.4,2C79.1,12.4,78.5,12.5,77.8,12.6z M81.7,11.9l-0.4-2c0.7-0.1,1.3-0.2,2-0.3l0.3,2
				C83,11.7,82.4,11.8,81.7,11.9z M85.6,11.2l-0.3-2c0.7-0.1,1.3-0.2,2-0.3l0.3,2C87,11,86.3,11.1,85.6,11.2z M89.6,10.6l-0.3-2
				c0.7-0.1,1.3-0.2,2-0.3l0.3,2C90.9,10.4,90.2,10.5,89.6,10.6z M129.8,10.2l-0.7-0.1l0.3-2l0.7,0.1L129.8,10.2z M93.5,10.1l-0.2-2
				c0.7-0.1,1.3-0.2,2-0.2l0.2,2C94.8,9.9,94.2,10,93.5,10.1z M127.2,9.8c-0.6-0.1-1.3-0.2-2-0.3l0.2-2c0.7,0.1,1.4,0.2,2,0.3
				L127.2,9.8z M97.5,9.6l-0.2-2c0.7-0.1,1.3-0.1,2-0.2l0.2,2C98.8,9.5,98.1,9.6,97.5,9.6z M123.2,9.3c-0.6-0.1-1.3-0.1-2-0.2l0.1-2
				c0.7,0.1,1.4,0.1,2,0.2L123.2,9.3z M101.4,9.3l-0.2-2c0.7-0.1,1.3-0.1,2-0.1l0.1,2C102.8,9.2,102.1,9.2,101.4,9.3z M105.4,9
				l-0.1-2c0.7,0,1.4-0.1,2-0.1l0.1,2C106.7,9,106.1,9,105.4,9z M119.3,9c-0.6,0-1.3-0.1-2-0.1l0.1-2c0.7,0,1.4,0.1,2,0.1L119.3,9z
				 M109.4,8.9l-0.1-2c0.7,0,1.4,0,2,0l0,2C110.7,8.8,110,8.9,109.4,8.9z M115.3,8.9c-0.6,0-1.3,0-2,0l0-2c0.7,0,1.4,0,2,0
				L115.3,8.9z"/>
		</g>
		<g>
			<g>
				<polygon class="st58" points="128.4,12 134.1,10.2 129.7,6.2 				"/>
			</g>
		</g>
	</g>
</g>
<g id="pintura">
</g>
<g id="detalles">
</g>
<g id="ilustracion">
</g>
</svg>
