<?xml version="1.0" encoding="utf-8"?>
<!-- Generator: Adobe Illustrator 22.1.0, SVG Export Plug-In . SVG Version: 6.00 Build 0)  -->
<svg version="1.1" id="Capa_1" xmlns="http://www.w3.org/2000/svg" xmlns:xlink="http://www.w3.org/1999/xlink" x="0px" y="0px"
	 viewBox="0 0 222 214.3" style="enable-background:new 0 0 222 214.3;" xml:space="preserve">
<style type="text/css">
	.st0{stroke:#000000;stroke-width:0.5;stroke-linejoin:round;stroke-miterlimit:10;}
	.st1{fill:none;stroke:#000000;stroke-width:2;stroke-miterlimit:10;stroke-dasharray:2;}
	.st2{fill:none;stroke:#EE008B;stroke-width:2;stroke-miterlimit:10;stroke-dasharray:2;}
	.st3{fill:#EE008B;stroke:#EE008B;stroke-miterlimit:10;}
	.st4{fill:none;stroke:#6E18FF;stroke-width:2;stroke-miterlimit:10;stroke-dasharray:2;}
	.st5{fill:#EE008B;stroke:#EE008B;stroke-width:0.5;stroke-linejoin:round;stroke-miterlimit:10;}
	.st6{fill:none;stroke:#EE008B;stroke-width:0.5;stroke-linejoin:round;stroke-miterlimit:10;}
	.st7{fill:#EE008B;}
	.st8{fill:#FFFFFF;}
	.st9{fill:none;}
	.st10{fill:none;stroke:#EE008B;stroke-miterlimit:10;}
</style>
<g>
	<g>
		<path class="st0" d="M189.6,91.8c-1.7-1.3-3.8-1.6-5.8-1.4c-1,0.1-1.9,0.5-2.9,0.9c-0.9,0.4-1.8,0.9-2.7,1.5
			c-1.8,1.1-3.5,2.4-5.2,3.6c-1.7,1.3-3.5,2.5-5.3,3.5l-0.1-0.9l3.7,1.1c1.2,0.4,2.4,0.8,3.7,1.1c1.2,0.3,2.5,0.6,3.7,0.7
			c1.3,0.1,2.5,0.1,3.8-0.1v0.1c-1.2,0.4-2.5,0.6-3.9,0.7c-1.3,0-2.6-0.2-3.9-0.4c-2.6-0.5-5-1.4-7.4-2.2l-1.1-0.4l1-0.5
			c1.9-1,3.7-1.9,5.5-3c0.9-0.5,1.8-1.1,2.6-1.8c0.8-0.6,1.6-1.3,2.5-2c1.7-1.3,3.5-2.6,5.8-2.8c1.1-0.1,2.2,0,3.3,0.4
			C188.1,90.3,189,90.9,189.6,91.8L189.6,91.8z"/>
	</g>
	<g>
		<path class="st0" d="M202.3,102.5c0.6,1,1,2.1,1.2,3.3c0.3,1.1,0.4,2.3,0.4,3.5s-0.2,2.4-0.9,3.5c-0.6,1-1.4,1.9-2.1,2.8
			c-1.4,1.8-2.4,3.9-3.4,5.9c-1,2.1-2,4.1-2.7,6.2l-0.7,2l-0.2-2.2c-0.2-2.3-0.5-4.7-0.8-7s-0.7-4.7-1-7h0.1
			c0.8,2.2,1.4,4.5,1.9,6.9c0.5,2.3,0.8,4.7,0.9,7.1l-1-0.1c0.9-2.2,2-4.2,3.2-6.1c1.2-1.9,2.3-4,3.5-5.9c0.6-1,1.3-1.9,1.8-2.9
			c0.5-0.9,0.7-2,0.8-3.1C203.1,107,202.9,104.7,202.3,102.5L202.3,102.5z"/>
	</g>
	<g>
		<path class="st0" d="M178.2,113.9c-0.9,0-1.5,0.5-2.1,1c-0.5,0.5-0.9,1.2-1.3,1.9c-0.4,0.7-0.7,1.5-0.6,2.4c0,0.8,0.2,1.8-0.3,2.7
			l-0.2-0.6c0.7,0,1.3-0.1,1.9-0.3c0.6-0.3,1.2-0.6,1.6-1.1c0.5-0.5,0.9-1,1.2-1.6s0.6-1.3,0.8-2h0.1c0.1,0.7,0,1.5-0.2,2.3
			c-0.2,0.7-0.6,1.5-1.2,2.1c-0.5,0.6-1.3,1-2,1.3c-0.8,0.2-1.6,0.3-2.4,0.1l-0.6-0.2l0.4-0.4c0.5-0.5,0.6-1.4,0.6-2.2
			c0-0.9,0-1.8,0.2-2.6c0.2-0.9,0.8-1.7,1.5-2.2C176.4,113.7,177.4,113.4,178.2,113.9L178.2,113.9z"/>
	</g>
	<g>
		<path class="st0" d="M181.4,106.8c-0.5,1.2-1.5,2.3-2.6,3l0.1-0.6c0.6,0.9,1,2,1.7,2.9s1.5,1.7,2.2,2.5c0.3,0.4,0.7,0.7,1,0.7
			s0.6-0.2,0.9-0.7c0.6-0.9,1.2-1.9,2-2.7h0.1c-0.1,0.6-0.3,1.1-0.5,1.6s-0.4,1.1-0.7,1.6c-0.2,0.3-0.4,0.5-0.6,0.8
			c-0.3,0.2-0.7,0.4-1.1,0.4c-0.4,0-0.8-0.2-1.1-0.4c-0.3-0.2-0.5-0.5-0.7-0.7c-0.7-1-1.1-2-1.7-2.9c-0.6-1-1.5-1.7-2.2-2.6
			l-0.3-0.4l0.4-0.3C179.4,108.4,180.3,107.6,181.4,106.8L181.4,106.8z"/>
	</g>
	<g>
		<path class="st0" d="M181.9,105.1c0.8,1.8,1.8,3.5,3.2,4.9c1.3,1.4,3.1,2.5,4.9,2.6l-0.4,0.4c0-0.1,0-0.1,0-0.2s0.1-0.1,0.1-0.1
			l0,0l0,0l0.1-0.1l0.1-0.1l0.2-0.3l0.5-0.6c0.3-0.4,0.7-0.7,1-1.1c0.7-0.7,1.4-1.4,2.1-2c1.5-1.3,3-2.5,4.6-3.6
			c3.1-2.3,6.4-4.3,9.1-7.1c1.4-1.3,2.5-2.9,3.6-4.5s2.1-3.2,3-4.9c1.8-3.4,2.8-7.2,2.3-11l0.4,0.4c-3.8,0.3-7.6,1-11.3,2
			c-3.6,1.2-6.8,3.3-9.6,5.9s-5.1,5.7-7.2,8.9c-1.1,1.6-2.1,3.2-3.1,4.9c-1,1.6-2.1,3.4-3.9,4.2v-0.1c1.7-0.9,2.7-2.7,3.6-4.4
			c0.9-1.7,1.9-3.4,2.9-5.1c2-3.3,4.3-6.5,7.1-9.2s6.2-5,10-6.1s7.6-1.7,11.5-1.9h0.4v0.4c0.3,4-0.9,7.9-2.8,11.3
			c-0.9,1.7-2,3.3-3.1,4.9s-2.2,3.2-3.5,4.6c-2.6,2.9-5.8,5.2-8.9,7.5c-1.5,1.1-3.1,2.3-4.6,3.5c-0.7,0.6-1.4,1.3-2.1,1.9
			c-0.3,0.3-0.7,0.7-1,1l-0.5,0.5l-0.2,0.3l-0.1,0.1l-0.1,0.1l0,0l0,0c0,0,0,0,0.1-0.1c0-0.1,0-0.1,0-0.2l-0.4,0.4
			c-2.1-0.3-3.9-1.5-5.2-3c-0.7-0.8-1.2-1.6-1.7-2.5C182.5,107,182.1,106,181.9,105.1L181.9,105.1z"/>
	</g>
	<g>
		<path class="st0" d="M191.6,101.8c-0.1,0.7-0.4,1.2-0.9,1.7c-0.2,0.2-0.6,0.3-0.8,0.6c-0.2,0.2-0.4,0.5-0.5,0.8
			c-0.2,0.6-0.5,1.1-0.9,1.6s-0.8,0.9-1.5,1.2l-0.1-0.1c0.1-0.7,0.3-1.3,0.7-1.8s0.8-1,1.3-1.3c0.3-0.2,0.5-0.4,0.7-0.7
			c0.2-0.3,0.2-0.6,0.4-0.9C190.4,102.4,190.9,102,191.6,101.8L191.6,101.8z"/>
	</g>
	<g>
		<path class="st0" d="M193.8,99.6c0.2-0.2,0.3-0.2,0.5-0.3c0.1,0,0.2-0.1,0.4,0.1l-0.3,0.2c0.1,0,0.2-0.1,0.2-0.1
			c0-0.1-0.1-0.1-0.2-0.1c-0.1,0-0.2,0.1-0.2,0.1v0.1l0.3-0.5c0,0.1,0,0.3,0,0.4s-0.1,0.3-0.2,0.6h-0.1c-0.3-0.1-0.4-0.2-0.6-0.4
			c-0.1-0.2-0.2-0.4-0.1-0.6l0.1-0.4l0.2-0.1c0.2-0.1,0.5-0.1,0.6,0c0.2,0.1,0.3,0.2,0.4,0.4c0.1,0.1,0.1,0.3,0.2,0.4
			c0.1,0.1,0.2,0.3,0.2,0.5l-0.3,0.2c-0.2,0.2-0.4,0.2-0.6,0.1C194.1,100.1,193.9,99.9,193.8,99.6L193.8,99.6z"/>
	</g>
	<g>
		<path class="st0" d="M200.9,92.6c0.3,0.8,1.1,1.3,1.8,1.5c0.8,0.2,1.5,0.2,2.1-0.1c0.7-0.3,1.3-0.9,1.6-1.7
			c0.3-0.8,0.2-1.7-0.1-2.4c-0.2-0.4-0.5-0.6-0.7-0.8c-0.2-0.1-0.3-0.2-0.5-0.2c-0.2-0.1-0.4-0.1-0.5-0.1c-0.8-0.1-1.6-0.1-2.4,0
			c-0.6,0-1,0.7-1.2,1.5C200.8,90.9,200.6,91.8,200.9,92.6z M200.8,92.7c-0.3-0.8-0.5-1.7-0.4-2.6c0-0.5,0.1-0.9,0.4-1.4
			c0.1-0.2,0.3-0.5,0.5-0.6c0.2-0.2,0.6-0.3,0.8-0.3c1-0.2,1.9-0.1,2.8,0.2c0.2,0.1,0.5,0.1,0.7,0.2s0.4,0.3,0.6,0.4
			c0.3,0.4,0.6,0.8,0.7,1.3c0.2,0.9,0.1,1.8-0.1,2.7c-0.1,0.4-0.3,0.9-0.5,1.3s-0.5,0.8-1,1.1c-0.8,0.6-2,0.5-2.8,0
			C201.7,94.2,201.2,93.5,200.8,92.7z"/>
	</g>
</g>
<g>
	<g>
		<path class="st0" d="M131.1,43.5c0.1,1.3,0.1,2.6,0.2,3.9l0.1,1.9c0,0.3,0,0.6,0,1.1c0,0.1-0.2,0.3-0.2,0.4L131,51l-0.4,0.3
			c-2,1.7-4.1,3.1-6.3,4.5l-0.2,0.1l-0.1-0.1c-0.9-0.9-1.9-1.8-3-2.4c-1.1-0.6-2.3-1.1-3.6-1.4h-0.2v-0.2c-0.1-2.8-0.1-5.5-0.1-8.3
			v-0.3l0.2-0.2c2.3-1.5,4.6-2.9,6.9-4.2l0.3-0.2l0.2,0.2c1.1,0.8,2.2,1.6,3.2,2.4c0.5,0.4,1.1,0.8,1.6,1.2
			C130,42.7,130.6,43,131.1,43.5z M131,43.5c-0.5-0.4-1.1-0.8-1.6-1.1c-0.6-0.4-1.2-0.7-1.7-1l-3.5-2h0.5c-2.2,1.5-4.5,2.9-6.9,4.3
			l0.2-0.4c-0.1,2.7-0.2,5.5-0.4,8.2l-0.2-0.2c1.3,0.4,2.5,1,3.6,1.7s2.2,1.4,3.2,2.3h-0.3l3-2.4c1-0.8,2-1.5,3.1-2.3l0.4-0.3
			l0.2-0.1c0.1-0.1,0.1,0,0.1,0c0-0.2,0.1-0.6,0.1-0.9c0.1-0.6,0.1-1.3,0.2-1.9C131,46.1,131.1,44.8,131,43.5z"/>
	</g>
	<g>
		<path class="st0" d="M124.4,44.8c-0.7-0.1-1.2,0.1-1.6,0.5s-0.6,0.9-0.8,1.4c-0.2,0.5-0.3,1.2,0,1.8c0.2,0.6,0.8,1,1.3,1.1
			c1.1,0,1.9-1.1,2.1-2.1c0.2-1.1-0.2-2.3-1.4-2.9v-0.1c0.7,0,1.4,0.4,1.9,1s0.6,1.4,0.5,2.2s-0.5,1.5-1.1,2
			c-0.5,0.5-1.5,0.8-2.2,0.5s-1.2-0.9-1.5-1.5s-0.6-1.3-0.5-2.1c0.1-0.7,0.5-1.5,1.2-1.9C123,44.2,123.9,44.2,124.4,44.8L124.4,44.8
			z"/>
	</g>
	<g>
		<path class="st0" d="M83.2,56.8c0.4,1,1.3,1.8,2.3,2.1c1,0.4,2.1,0.4,3.2,0.1c2.1-0.6,3.7-2.2,5.2-3.8c3-3.1,5.4-6.8,8.1-10.2
			c1.4-1.7,2.8-3.4,4.4-4.9s3.3-2.9,5.1-4.1c3.6-2.5,7.7-4.3,11.9-5.5l-0.2,0.3c-0.5-2.6-1-5.2-1.5-7.8s-1-5.2-1.6-7.8V15h0.2
			c3.1-0.2,6.2-1,9.1-2.4l-0.1,0.4c-1-1.4-2-2.7-3.1-3.9s-2.2-2.5-3.6-3.3c-2.7-1.7-6.6-1.2-8.7,1.1c-1.1,1.1-1.8,2.6-2.4,4.2
			c-0.6,1.5-0.9,3.2-1.4,4.8c-0.8,3.3-1.8,6.5-3.2,9.6c-1.3,3.1-3.2,6.1-5.4,8.6c-2.2,2.6-4.6,4.9-7,7.2c-1.2,1.2-2.4,2.4-3.6,3.6
			c-1.2,1.2-2.5,2.2-3.7,3.4s-2.3,2.4-3.2,3.8C83.1,53.5,82.7,55.2,83.2,56.8z M83.1,56.9c-0.6-1.6-0.2-3.4,0.7-4.9
			c0.8-1.5,2-2.7,3.1-4c1.2-1.2,2.4-2.3,3.6-3.5c1.1-1.2,2.3-2.5,3.4-3.7c4.6-4.8,9.5-9.6,12-15.8c1.3-3,2.2-6.3,3.1-9.5
			c0.4-1.6,0.8-3.3,1.4-4.9s1.4-3.2,2.6-4.5c2.5-2.6,6.8-3.1,9.8-1.1c1.5,1,2.6,2.3,3.7,3.5c1.1,1.3,2.1,2.6,3.1,4l0.2,0.3l-0.3,0.1
			c-2.9,1.3-6.1,2.1-9.3,2.2l0.2-0.2c0.5,2.6,1,5.2,1.6,7.8c0.5,2.6,1.1,5.2,1.6,7.8v0.2l-0.2,0.1c-4.1,1.3-8,3.3-11.6,5.7
			c-3.6,2.5-6.7,5.5-9.4,8.8c-2.7,3.4-5.3,6.9-8.4,10c-1.5,1.5-3.2,3-5.4,3.7c-1.1,0.3-2.2,0.3-3.3-0.1
			C84.4,58.7,83.5,57.9,83.1,56.9z"/>
	</g>
	<g>
		<path class="st0" d="M128.8,26.3c1.1-1,1.8-2.3,2.3-3.6c0.2-0.7,0.5-1.3,0.4-1.9c0-0.3-0.1-0.5-0.2-0.6c-0.2-0.1-0.5-0.1-0.8-0.1
			c-1.4,0.2-2.9,0.5-4.3,0.9c-1.4,0.4-2.8,0.9-4.2,1.3l0.3-0.5c0.9,2.6,1.4,5.3,1.7,8l0,0l-0.8-0.4c1-0.4,1.9-0.9,2.9-1.5
			C127.1,27.6,128,27,128.8,26.3z M128.9,26.4c-0.8,0.7-1.7,1.3-2.5,2l-1.3,1c-0.4,0.4-0.8,0.7-1.2,1l-0.6,0.6l-0.2-0.9l0,0
			c-0.4-2.7-0.9-5.3-1.4-7.9l-0.1-0.4l0.4-0.1c1.4-0.3,2.9-0.5,4.3-0.9c1.4-0.3,2.8-0.9,4.2-1.3c0.4-0.1,0.8-0.2,1.3,0
			c0.2,0.1,0.5,0.3,0.6,0.6c0.1,0.2,0.1,0.5,0.2,0.7c0,0.9-0.3,1.6-0.7,2.3C131,24.4,130,25.4,128.9,26.4z"/>
	</g>
	<g>
		<path class="st0" d="M88.7,52.6c-1,0.2-1.7,0.8-2.1,1.5c-0.2,0.4-0.3,0.9-0.2,1.3c0.1,0.5,0.6,0.8,1,0.9c0.5,0.1,0.8,0,1.1-0.3
			c0.3-0.3,0.5-0.6,0.7-1c0.3-0.8,0.3-1.7-0.2-2.7l0.1-0.1c1,0.5,1.5,1.9,1.1,3.1C90,56,89.6,56.6,89,56.9c-0.3,0.2-0.6,0.3-1,0.3
			s-0.7-0.1-0.9-0.3c-0.5-0.3-0.8-0.8-1.1-1.3c-0.2-0.5-0.5-1.1-0.3-1.7C86.1,52.6,87.7,51.9,88.7,52.6L88.7,52.6z"/>
	</g>
	<g>
		<path class="st0" d="M106,35.8l-3.6,4c-0.6,0.6-1.3,1.3-1.9,2s-1.1,1.5-1.5,2.3s-0.9,1.6-1.4,2.3c-0.5,0.8-1,1.5-1.6,2.2
			c-1.2,1.4-2.5,2.7-4.1,3.6l-0.1-0.1c1.2-1.4,2.3-2.8,3.3-4.2c1.1-1.4,2.2-2.8,3.4-4.2c0.6-0.7,1.2-1.4,1.7-2.1
			c0.3-0.4,0.5-0.8,0.7-1.2l0.8-1.1C102.8,37.8,104.2,36.5,106,35.8L106,35.8z"/>
	</g>
	<g>
		<path class="st0" d="M108.7,32.5c-0.1,0.2,0,0.3,0,0.4c0,0,0.1,0,0,0l0,0c0,0.1,0.1,0.3,0.2,0.3s0.3-0.1,0.3-0.3
			c0-0.3-0.1-0.4-0.1-0.4s0-0.1-0.1-0.2c-0.1-0.1-0.2-0.2-0.4-0.2l-0.1-0.1c0-0.3,0.3-0.5,0.5-0.5c0.3-0.1,0.6,0,0.8,0.3
			c0.2,0.3,0.3,0.7,0.2,0.9c-0.1,0.3-0.3,0.5-0.5,0.6s-0.4,0.1-0.6,0.2c-0.2,0.1-0.5,0.2-0.8,0.1c-0.1-0.1-0.3-0.2-0.3-0.4
			c-0.1-0.2-0.1-0.4,0-0.5C108,32.4,108.4,32.2,108.7,32.5L108.7,32.5z"/>
	</g>
</g>
<g>
	<g>
		<path class="st1" d="M84.6,26.4c-0.3,0.1-0.6,0.1-1,0.2"/>
		<path class="st1" d="M81.6,27.2c-6.8,1.7-19.1,6-29.6,15.5c-17.3,15.6-23,28.2-24.6,33.1"/>
		<path class="st1" d="M27,77c-0.2,0.7-0.3,1.2-0.3,1.2"/>
		<g>
			<polygon points="83.9,22.5 90.1,25.4 85,30.4 			"/>
		</g>
	</g>
</g>
<g>
	<g>
		<path class="st1" d="M186.6,81.1c-0.1-0.3-0.1-0.6-0.2-1"/>
		<path class="st1" d="M186,78.2c-1.4-6.6-4.9-18.5-12.6-28.6c-12.7-16.7-23-22.2-27-23.8"/>
		<path class="st1" d="M145.4,25.4c-0.6-0.2-1-0.3-1-0.3"/>
		<g>
			<polygon points="189.2,79.5 187.3,84.3 184,80.2 			"/>
		</g>
	</g>
</g>
<g>
	<g>
		<path class="st1" d="M130.2,185.3c0.3-0.1,0.6-0.1,1-0.2"/>
		<path class="st1" d="M133.2,184.8c6.6-1.4,18.5-4.9,28.6-12.6c16.7-12.7,22.2-23,23.8-27"/>
		<path class="st1" d="M185.9,144.2c0.2-0.6,0.3-1,0.3-1"/>
		<g>
			<polygon points="131.9,188.1 126.8,186.3 131,182.8 			"/>
		</g>
	</g>
</g>
<g>
	<g>
		<path class="st2" d="M30.1,130.7c0.1,0.3,0.1,0.6,0.2,1"/>
		<path class="st2" d="M30.7,133.7c1.4,6.6,4.9,18.5,12.6,28.6c12.7,16.7,23,22.2,27,23.8"/>
		<path class="st2" d="M71.3,186.4c0.6,0.2,1,0.3,1,0.3"/>
		<g>
			<polygon class="st3" points="27.6,132.4 29.4,127.5 32.7,131.5 			"/>
		</g>
	</g>
</g>
<g>
	<g>
		<path class="st4" d="M107,150.4c-0.1-0.3-0.1-0.6-0.2-1"/>
		<path class="st2" d="M106.4,147.4c-1.4-6.6-4.9-18.5-12.6-28.6c-12.7-16.7-23-22.2-27-23.8"/>
		<path class="st2" d="M65.9,94.7c-0.6-0.2-1-0.3-1-0.3"/>
		<g>
			<polygon class="st3" points="110,148.7 107.9,153.9 104.4,149.6 			"/>
		</g>
	</g>
</g>
<g id="pintura">
</g>
<g id="detalles">
</g>
<g>
	<g id="ilustracion">
		<g>
			<g>
				<path class="st5" d="M39.6,110.2c-0.5-0.4-0.8-1-0.9-1.7c-0.1-0.6-0.2-1.3-0.1-1.9c0.1-1.3,0.3-2.5-0.1-3.6
					c-0.3-1.1-1-2.2-1.7-3.2s-1.6-1.9-2.5-2.7c-0.9-0.8-1.9-1.5-3-2.1s-2.3-1-3.5-1.2s-2.5-0.1-3.6,0.4s-2.1,1.3-3,2.1
					c-1.8,1.7-3.5,3.6-4.4,5.9c-0.9,2.2-1.1,4.8-0.2,7c0.4,1.1,1.1,2.2,1.8,3.1c0.7,1,1.6,1.9,2.5,2.7c1.8,1.6,4.2,2.6,6.8,2.5v0.1
					c-2.5,0.5-5.2-0.5-7.3-2c-1-0.8-2-1.7-2.8-2.7s-1.5-2.1-2-3.3c-1-2.5-0.7-5.4,0.4-7.7c1.1-2.4,2.9-4.4,4.9-5.9
					c1-0.8,2.1-1.5,3.3-2c1.2-0.5,2.5-0.6,3.8-0.4c2.5,0.3,5,1.4,7,3s3.6,3.8,4.4,6.3c0.2,0.6,0.2,1.3,0.2,2
					c-0.1,0.7-0.2,1.3-0.3,1.9C38.9,107.8,38.8,109.1,39.6,110.2L39.6,110.2z"/>
			</g>
			<g>
				<path class="st5" d="M33,119.1c0.6-0.8,1.3-1.5,2.1-2.1c0.4-0.3,0.9-0.5,1.2-0.8c0.4-0.3,0.7-0.7,0.9-1.1
					c0.5-0.8,1.2-1.6,1.9-2.3s1.6-1.3,2.5-1.6l0.1,0.1c-0.6,0.9-1.2,1.6-1.8,2.3c-0.7,0.7-1.4,1.4-2.2,1.9c-0.4,0.3-0.8,0.6-1.1,1
					c-0.3,0.4-0.6,0.8-0.9,1.2C35,118.4,34.1,119,33,119.1L33,119.1z"/>
			</g>
			<g>
				<path class="st5" d="M35.5,120.6c0.4-0.8,1-1.3,1.6-1.8c0.3-0.2,0.8-0.3,1.1-0.6c0.3-0.2,0.6-0.6,0.8-0.9c0.5-0.7,1-1.3,1.6-1.8
					s1.2-1,2-1.4l0.1,0.1c-0.3,0.8-0.8,1.5-1.3,2.1c-0.6,0.6-1.2,1.1-1.9,1.5c-0.4,0.2-0.7,0.4-1,0.7c-0.3,0.3-0.5,0.7-0.8,1
					C37.1,120,36.4,120.5,35.5,120.6L35.5,120.6z"/>
			</g>
			<g>
				<path class="st5" d="M37.9,122.8c0.7-1.1,1.6-2.1,2.5-2.9c0.5-0.4,1.1-0.7,1.6-1.1c0.5-0.4,0.9-0.9,1.2-1.4s0.6-1.1,0.7-1.6
					c0.1-0.5-0.1-1-0.3-1.5c-0.5-1-1.3-2-2.1-3.1l0.1-0.1c1.1,0.6,2.2,1.4,3,2.7c0.3,0.6,0.5,1.5,0.2,2.2c-0.2,0.7-0.7,1.3-1.1,1.7
					c-0.5,0.5-1,0.9-1.4,1.3c-0.4,0.5-0.8,1-1.2,1.5C40.1,121.5,39.1,122.3,37.9,122.8L37.9,122.8z"/>
			</g>
			<g>
				<path class="st5" d="M39.6,123.2c1,0,1.9,0.1,2.9,0.2c0.5,0.1,1,0.2,1.4,0.2c0.5,0,0.9-0.4,0.9-0.8c0.1-0.8-0.1-1.8-0.3-2.7
					s-0.4-1.8-0.7-2.8l0.1-0.1c0.8,0.6,1.4,1.6,1.6,2.6c0.1,0.5,0.2,1,0.1,1.6c0,0.5-0.1,1.1-0.4,1.6c-0.3,0.5-0.9,0.8-1.4,0.9
					c-0.5,0.1-1,0.3-1.5,0.4C41.4,124.3,40.4,124,39.6,123.2L39.6,123.2z"/>
			</g>
			<g>
				<path class="st5" d="M26.8,90.4c-0.3-0.8-0.4-1.6-0.3-2.3c0.1-0.4,0.2-0.8,0.3-1.2c0-0.4,0-0.8-0.1-1.2
					c-0.2-0.8-0.2-1.6-0.2-2.3c0.1-0.8,0.2-1.5,0.5-2.3h0.1c0.3,0.8,0.4,1.6,0.4,2.3c0,0.8-0.1,1.5-0.3,2.3
					c-0.1,0.4-0.2,0.8-0.1,1.2c0,0.4,0.2,0.8,0.2,1.2C27.3,88.9,27.2,89.7,26.8,90.4L26.8,90.4z"/>
			</g>
			<g>
				<path class="st5" d="M36.2,93.8c0.1-0.9,0.4-1.7,0.8-2.4c0.2-0.3,0.6-0.6,0.8-1s0.4-0.8,0.5-1.2c0.2-0.8,0.5-1.6,0.9-2.3
					c0.4-0.7,0.9-1.4,1.6-2h0.1c-0.1,0.9-0.4,1.7-0.7,2.4c-0.4,0.7-0.8,1.5-1.4,2.1c-0.3,0.3-0.5,0.7-0.7,1.1s-0.2,0.8-0.3,1.2
					C37.4,92.6,36.9,93.3,36.2,93.8L36.2,93.8z"/>
			</g>
			<g>
				<path class="st5" d="M15.4,95.1c-0.6,0-1-0.2-1.4-0.5c-0.2-0.2-0.3-0.4-0.4-0.6c-0.2-0.2-0.4-0.2-0.6-0.3
					c-0.5-0.1-0.9-0.3-1.3-0.6c-0.4-0.3-0.7-0.7-0.9-1.2l0.1-0.1c0.6,0,1,0.2,1.4,0.4c0.4,0.3,0.7,0.6,1,1c0.1,0.2,0.3,0.4,0.5,0.5
					s0.5,0.1,0.7,0.2C14.9,94.1,15.2,94.4,15.4,95.1L15.4,95.1z"/>
			</g>
			<g>
				<path class="st5" d="M3.3,107.6c0.7-0.4,1.5-0.5,2.3-0.4c0.4,0.1,0.8,0.2,1.1,0.3c0.4,0.1,0.8,0,1.1,0c0.8-0.1,1.5-0.1,2.3,0.1
					c0.7,0.2,1.5,0.5,2.1,1v0.1c-0.8,0.1-1.5,0-2.3,0c-0.7-0.1-1.4-0.3-2.1-0.6c-0.4-0.1-0.7-0.2-1.1-0.2c-0.4,0-0.8,0.2-1.1,0.2
					C4.8,108.1,4.1,108,3.3,107.6L3.3,107.6z"/>
			</g>
			<g>
				<path class="st5" d="M19.1,125.5c-0.1-0.6-0.1-1,0.2-1.5c0.1-0.2,0.3-0.4,0.4-0.6s0.1-0.5,0-0.7c-0.1-0.5-0.1-1-0.1-1.4
					c0.1-0.5,0.2-0.9,0.5-1.4h0.1c0.3,0.5,0.5,1,0.5,1.5s-0.2,1-0.4,1.5c-0.1,0.2-0.2,0.5-0.3,0.7c0,0.2,0.1,0.5,0,0.8
					C20,124.7,19.7,125.2,19.1,125.5L19.1,125.5z"/>
			</g>
			<g>
				<path class="st5" d="M29.4,104.6c0.4,0.4,0.7,0.9,1,1.4c0.3,0.5,0.5,1,0.7,1.5s0.2,1.1,0.4,1.6s0.4,1,0.7,1.5l0.3,0.5l-0.6-0.1
					c-1.2-0.2-2.2-0.6-3.3-1c-0.5-0.2-1-0.5-1.5-0.8c-0.3-0.1-0.5-0.3-0.7-0.4l-0.4-0.2l-0.2-0.1l-0.1-0.1l0,0l0,0l0,0l0,0v-0.1
					l-0.1,0.1c0-0.1,0.1-0.1,0.1-0.1l0,0h0.1h0.1h0.2c0.1,0,0.3,0,0.4,0.1c0.3,0.1,0.6,0.1,0.9,0.2c0.6,0.1,1.1,0.3,1.7,0.5
					c1.1,0.4,2.1,0.9,3.1,1.5l-0.3,0.3c-0.1-0.5-0.3-1.1-0.6-1.6s-0.6-0.9-0.9-1.4c-0.3-0.5-0.5-1-0.6-1.6
					C29.4,105.8,29.3,105.3,29.4,104.6L29.4,104.6z"/>
			</g>
			<g>
				<path class="st5" d="M32.2,110.8c0.6,0.2,1.1,0.5,1.4,1c0.1,0.2,0.2,0.6,0.4,0.8s0.4,0.4,0.6,0.5c0.5,0.3,0.9,0.7,1.3,1.1
					c0.3,0.4,0.6,0.9,0.7,1.6l-0.1,0.1c-0.6-0.2-1.1-0.5-1.5-0.9c-0.4-0.4-0.7-0.9-0.9-1.4c-0.1-0.3-0.3-0.5-0.5-0.7
					s-0.5-0.3-0.7-0.4C32.5,112,32.2,111.5,32.2,110.8L32.2,110.8z"/>
			</g>
		</g>
	</g>
	<path class="st6" d="M26,108.8c0.3-0.2,0.4-0.6,0.5-0.9c0-0.3,0-0.5-0.1-0.8c-0.1-0.2-0.4-0.4-0.6-0.3c0.1,0.2,0.2,0.5,0.4,0.6
		c0.2,0.2,0.5,0.3,0.7,0.2c0.2-0.1,0.4-0.3,0.5-0.5s0.1-0.5,0.1-0.7c0-0.2,0-0.4-0.1-0.5c-0.1-0.2-0.2-0.3-0.4-0.3
		c-0.2,0.4,0.2,0.8,0.6,0.8c0.4,0,0.8-0.3,0.9-0.7c0.1-0.2,0.1-0.4,0-0.6c-0.1-0.2-0.3-0.4-0.5-0.4c-0.1,0.3,0.1,0.7,0.4,0.8
		s0.6,0.1,0.9,0.1c0.1,0,0.3-0.1,0.4-0.2"/>
</g>
<g>
	<g>
		<path class="st5" d="M104.8,164.5c1.2,4,2.4,8.1,3.6,12.1c1.2,4,2.3,8.1,3.5,12.1l0.1,0.2l-0.2,0.1c-2.1,1-4.3,2-6.6,2.7
			c-2.2,0.8-4.5,1.5-6.8,2.2c-2.3,0.6-4.6,1.2-7,1.6c-2.3,0.5-4.7,0.8-7.1,1.1l0,0l0,0l-2.7-8.4l-2.6-8.4
			c-1.7-5.6-3.4-11.2-5.3-16.7l-0.1-0.2l0.2-0.1c1-0.7,2.2-1,3.4-1.3s2.3-0.6,3.4-1c2.2-1,4.5-1.6,6.9-2.2c2.3-0.6,4.7-1,7-1.6
			c2.3-0.6,4.6-1.3,6.7-2.4l0.2-0.1l0.1,0.2c1,2.8,1.8,5.7,2.2,8.6l0,0.3l-0.2-0.1c-1.9-0.8-3.7-1.7-5.5-2.7c-1.8-0.9-3.6-1.9-5.4-3
			l0-0.1c1.8,1,3.6,1.9,5.4,2.8c1.8,0.9,3.7,1.7,5.6,2.5l-0.2,0.2c-0.5-2.9-1.3-5.8-2.3-8.5l0.3,0.1c-2.2,1.1-4.4,1.9-6.8,2.5
			c-2.3,0.6-4.7,1-7,1.6c-2.3,0.6-4.6,1.2-6.8,2.1c-1.1,0.4-2.3,0.7-3.5,1c-1.1,0.3-2.3,0.6-3.3,1.2l0.1-0.3
			c1.8,5.6,3.5,11.2,5.1,16.9l2.5,8.4c0.8,2.8,1.7,5.6,2.6,8.4l-0.1-0.1c2.3-0.3,4.7-0.7,7-1.2c2.3-0.5,4.6-1,6.9-1.7
			c2.3-0.6,4.5-1.4,6.7-2.3s4.4-1.8,6.5-2.8l-0.1,0.3c-1.1-4.1-2.3-8.1-3.4-12.2C106.9,172.6,105.8,168.5,104.8,164.5L104.8,164.5z"
			/>
	</g>
	<g>
		<path class="st7" d="M79.3,167.9l1.1,3.4l-0.1-0.1c1.2-0.1,2.3-0.3,3.4-0.7l-0.2,0.2c0-0.7-0.2-1.4-0.4-2.1s-0.4-1.3-0.7-1.9
			l0.2,0.1c-0.5,0-1,0.2-1.5,0.3c-0.5,0.1-0.9,0.3-1.4,0.6l0,0c0.4-0.3,0.9-0.6,1.4-0.8c0.5-0.2,1-0.4,1.5-0.5l0.1,0l0.1,0.2
			c0.3,0.6,0.6,1.3,0.8,2c0.1,0.7,0.2,1.4,0.3,2.1l0,0.2l-0.1,0c-1.2,0.3-2.3,0.5-3.5,0.5l-0.1,0l0-0.1L79.3,167.9L79.3,167.9z"/>
	</g>
	<path class="st8" d="M79.8,168.2c0.3,1,0.6,2,0.9,3c1.1-0.1,2.1-0.3,3.1-0.6c-0.1-1.3-0.4-2.5-1-3.6c-0.9,0.1-1.8,0.5-2.6,0.9"/>
	<path class="st8" d="M82.3,177.1c0.3,1,0.6,2,0.9,3c1.1-0.1,2.1-0.3,3.1-0.6c-0.1-1.3-0.4-2.5-1-3.6c-0.9,0.1-1.8,0.5-2.6,0.9"/>
	<path class="st9" d="M85.5,188.2c0.3,1,0.6,2,0.9,3c1.1-0.1,2.1-0.3,3.1-0.6c-0.1-1.3-0.4-2.5-1-3.6c-0.9,0.1-1.8,0.5-2.6,0.9"/>
	<g>
		<path class="st7" d="M82,177.4c0.4,1,0.7,2.1,0.8,3.2l-0.1-0.1l1.9-0.5l1-0.3c0.1,0,0.3-0.1,0.4-0.2s0.1-0.1,0.1-0.3
			c-0.1-0.6-0.2-1.3-0.4-1.9c-0.2-0.6-0.4-1.2-0.7-1.8l0.3,0.1c-0.8,0.3-1.6,0.6-2.3,0.8l0,0c0.7-0.4,1.5-0.8,2.2-1.1l0.2-0.1
			l0.1,0.2c0.3,0.6,0.6,1.2,0.8,1.9c0.2,0.7,0.3,1.3,0.3,2c0,0.2-0.1,0.4-0.2,0.6s-0.4,0.2-0.5,0.2l-1,0.2l-1.9,0.5l-0.1,0l0-0.2
			C82.5,179.5,82.3,178.5,82,177.4L82,177.4z"/>
	</g>
	<g>
		<path class="st7" d="M85.3,187.5l1.4,4.3l-0.2-0.1l1.7-0.4l0.9-0.2c0.3,0,0.6-0.2,0.5-0.3c0-0.1,0-0.2,0-0.3l-0.1-0.4l-0.2-0.9
			c-0.1-0.6-0.2-1.2-0.3-1.8l0.2,0.2c-0.6-0.1-1.2-0.1-1.8-0.1c-0.6,0-1.2,0-1.8,0l0,0c0.6-0.2,1.2-0.2,1.8-0.3c0.6-0.1,1.2,0,1.9,0
			l0.2,0l0.1,0.2c0.1,0.6,0.2,1.2,0.3,1.8l0.1,0.9l0.1,0.4c0,0.1,0.1,0.3,0,0.5c0,0.2-0.3,0.4-0.4,0.4c-0.2,0.1-0.3,0.1-0.5,0.1
			l-0.9,0.1l-1.8,0.3l-0.1,0l0-0.1l-1.2-4.4L85.3,187.5z"/>
	</g>
	<g>
		<path class="st7" d="M87.4,166.9l0.2-0.2l0,0l0,0c1.4-0.4,2.7-0.9,4.1-1.3c0.7-0.2,1.4-0.5,2-0.6c0.7-0.1,1.4-0.3,2.1-0.4l0,0
			c-0.6,0.3-1.3,0.6-2,0.8c-0.7,0.2-1.4,0.4-2.1,0.5c-1.4,0.3-2.8,0.7-4.2,1l0,0L87.4,166.9L87.4,166.9z"/>
	</g>
	<g>
		<path class="st7" d="M88.5,168.8l0,0.1l-0.1,0c2.2-0.7,4.4-1.4,6.7-2.1c1.1-0.4,2.2-0.7,3.4-1s2.3-0.5,3.4-0.8l0,0
			c-1.1,0.5-2.2,0.8-3.3,1.2c-1.1,0.4-2.2,0.6-3.4,0.9c-2.3,0.6-4.5,1.2-6.8,1.8l0,0l0,0l0-0.1L88.5,168.8L88.5,168.8z"/>
	</g>
	<g>
		<path class="st7" d="M90.2,173.5c1.4-0.4,2.9-0.8,4.3-1.3c0.7-0.3,1.4-0.5,2.1-0.7c0.7-0.2,1.4-0.4,2.2-0.5l0,0
			c-0.7,0.3-1.4,0.6-2.1,0.9c-0.7,0.3-1.4,0.4-2.2,0.6C93.1,173,91.7,173.3,90.2,173.5L90.2,173.5z"/>
	</g>
	<g>
		<path class="st7" d="M90.8,177.1c1.7-0.5,3.4-1.1,5.1-1.7c0.8-0.3,1.7-0.6,2.6-0.8c0.9-0.2,1.7-0.4,2.7-0.5l0,0
			c-0.8,0.4-1.7,0.7-2.6,1c-0.8,0.3-1.7,0.5-2.6,0.7C94.3,176.3,92.6,176.7,90.8,177.1L90.8,177.1z"/>
	</g>
	<g>
		<path class="st7" d="M93.4,185.5c1.8-0.6,3.7-1.2,5.5-1.7c0.9-0.3,1.8-0.6,2.8-0.8c1-0.2,1.9-0.4,2.9-0.6l0,0
			c-0.9,0.4-1.8,0.7-2.7,1c-0.9,0.3-1.9,0.5-2.8,0.8C97.2,184.7,95.3,185.1,93.4,185.5L93.4,185.5z"/>
	</g>
	<g>
		<path class="st7" d="M94.2,188.3c1.8-0.5,3.5-1.1,5.3-1.6c0.9-0.3,1.7-0.6,2.7-0.8c0.9-0.2,1.8-0.4,2.7-0.5l0,0
			c-0.9,0.4-1.7,0.7-2.6,1c-0.9,0.3-1.8,0.5-2.7,0.7C97.8,187.5,96,188,94.2,188.3L94.2,188.3z"/>
	</g>
	<g>
		<path class="st10" d="M85,187.1c2.3,1.1,4.8,1.9,7.3,2.5"/>
		<path class="st10" d="M87.5,184.8c-0.2,3.3-0.4,6.5-0.4,9.8"/>
	</g>
	<path class="st10" d="M80.9,168.4c0.4,0.5,0.7,1,1,1.6c-0.2-2.2,0.6-4.5,2-6.2"/>
	<path class="st10" d="M83.5,178.2c0-0.1-0.1-0.2-0.1-0.3c0.2,0.5,0.4,0.9,0.7,1.3c0-2.2,0.4-4.6,1.9-6.2"/>
</g>
<g>
	<path class="st7" d="M38.1,138.4c0-0.2,0.1-0.3,0.4-0.3h0.2c0,0,0.1,0,0.1,0c0.1,0,0.1,0,0.1-0.1s0-0.1,0-0.2c0-0.7,0-1.7-0.1-3
		c-0.1-1.3-0.1-2.3-0.1-3c0-0.2,0-0.5,0-0.7l0-0.7c0-0.3,0-0.5,0-0.7c-0.1,0-0.2,0.1-0.3,0.1c-0.2,0-0.3-0.1-0.3-0.3
		c0-0.1,0.1-0.2,0.2-0.3c0.1-0.1,0.3-0.1,0.5-0.2c0.4-0.1,0.7-0.1,0.9-0.1c0.1,0,0.2,0,0.3,0.1c0.1,0.1,0.1,0.2,0.1,0.2
		c0,0.1,0,0.2-0.1,0.2c-0.1,0.1-0.1,0.1-0.2,0.1c-0.1,0-0.1,0-0.1,0h-0.1c-0.1,0-0.1,0-0.2,0.1c0,0-0.1,0.1-0.1,0.2
		c0,0.9,0.1,2.2,0.2,3.8c0.1,1.7,0.2,3,0.2,3.8v0.5c0.1,0,0.1,0,0.3,0c0.4,0,0.5,0.2,0.5,0.5v0.1l-0.3,0.2c0,0,0,0-0.1,0
		c0,0-0.1,0-0.3,0c-0.3,0-0.5,0-0.5,0C38.5,138.8,38.1,138.6,38.1,138.4z"/>
	<path class="st7" d="M42,138.7c-0.1-0.1-0.2-0.2-0.2-0.3c0.2-0.2,0.3-0.7,0.3-1.5c0-0.5,0-1.2-0.1-2.2c-0.1-0.9-0.1-1.6-0.1-2.1
		l0-0.7c0-0.2,0-0.4,0-0.7c0-0.2,0-0.6-0.1-0.9c-0.1-0.4-0.2-0.7-0.2-0.8c0-0.3,0.3-0.5,1-0.5h0.2c0.5,0,0.9,0.1,1.2,0.4
		c0.3,0.2,0.5,0.6,0.7,1.1c0.1,0.3,0.2,0.7,0.3,1.3c0.1,0.5,0.1,0.9,0.1,1.1v0.4v0.6c0,0,0,0.1,0,0.1c0,0.1,0,0.1,0,0.2
		c0,0,0,0.1,0,0.1c0,0.3,0,0.6-0.1,1c-0.1,0.4-0.2,0.8-0.4,1.2c-0.4,1-0.8,1.6-1.3,2c-0.3,0.2-0.6,0.3-0.9,0.3
		C42.2,138.8,42.1,138.8,42,138.7z M43.5,137.2c0.2-0.4,0.4-0.8,0.6-1.3c0.2-0.8,0.4-1.7,0.4-2.6c0-0.5,0-1-0.1-1.5
		c-0.1-0.5-0.3-1-0.6-1.5c-0.1-0.2-0.3-0.4-0.6-0.5c-0.2-0.1-0.5-0.2-0.8-0.2v0c0,0.8,0.1,2,0.2,3.5c0.1,1.6,0.2,2.8,0.2,3.6v1.2
		C43,137.9,43.3,137.6,43.5,137.2z"/>
	<path class="st7" d="M47,138.8c-0.1,0-0.2-0.2-0.2-0.4v-7.6c0-0.1,0-0.4-0.1-0.7c-0.1-0.3-0.1-0.5-0.1-0.7v0
		c0.1-0.2,0.3-0.4,0.3-0.5c0.1,0,0.3,0,0.5-0.1c0.2,0,0.3-0.1,0.5-0.1c0.1,0,0.3,0,0.4,0.1c0.1,0.1,0.2,0.2,0.2,0.3
		c0,0.3-0.2,0.4-0.6,0.4h-0.2c-0.1,0-0.1,0-0.2,0c-0.1,0-0.1,0-0.1,0c0,0.3,0,0.7,0.1,1.1l0,0.4l0,0.7c0,0.2,0,0.4,0,0.8l0,0.7
		l0.2,0c0.2-0.1,0.3-0.1,0.4-0.1c0.1,0,0.2,0,0.3,0.1c0.1,0.1,0.1,0.2,0.1,0.3c0,0.1,0,0.2-0.1,0.3c-0.1,0.1-0.1,0.1-0.2,0.1l-0.2,0
		h-0.2c-0.1,0-0.2,0-0.3,0.1v4l0.7,0c0.5,0,0.7,0.1,0.7,0.3v0.1c-0.1,0.1-0.1,0.2-0.3,0.3c-0.1,0.1-0.3,0.1-0.4,0.1l-0.4,0h-0.4
		C47.3,138.9,47.1,138.8,47,138.8z"/>
	<path class="st7" d="M52.6,138.7c-0.1-0.1-0.1-0.1-0.1-0.3v-1.7c-0.1-0.1-0.3-0.1-0.6-0.2c-0.3-0.1-0.6-0.1-0.9-0.1
		c-0.1,0.2-0.2,0.4-0.2,0.7l-0.1,0.3c0,0.1,0,0.2-0.1,0.4s-0.1,0.4-0.1,0.5c-0.1,0.2-0.1,0.3-0.2,0.4c-0.3,0-0.5-0.1-0.6-0.3
		c0.1-0.1,0.2-0.5,0.3-1.2l0.4-2.4c0.2-1.1,0.4-2.1,0.5-2.9c0.2-0.8,0.3-1.5,0.5-2c0.2-0.6,0.4-0.9,0.6-0.9c0.2,0,0.3,0,0.4,0.1
		c0,0.3,0.1,1.2,0.2,2.5c0.2,1.3,0.3,2.2,0.3,2.7c0,0.5,0,1.1,0.1,2c0.1,0.9,0.1,1.6,0.1,2.1c0,0.3-0.1,0.4-0.4,0.4
		C52.7,138.8,52.6,138.8,52.6,138.7z M52.5,136c0-0.4-0.1-0.9-0.1-1.4c-0.2-2-0.3-3.2-0.3-3.6v-0.1c-0.1,0.1-0.2,0.5-0.4,1.2
		c-0.2,0.7-0.3,1.4-0.4,2.2c-0.1,0.8-0.2,1.3-0.2,1.6c0.4,0.1,0.7,0.2,1.2,0.2C52.3,136,52.4,136,52.5,136z"/>
	<path class="st7" d="M56.8,138.6L56.8,138.6c0-0.5-0.1-1-0.2-1.6c-0.1-0.6-0.3-1.2-0.6-2c-0.2-0.6-0.4-1.1-0.5-1.6v5.1
		c0,0.1,0,0.2-0.1,0.3c0,0.1-0.1,0.1-0.3,0.1c-0.1,0-0.2,0-0.2-0.1c-0.1-0.1-0.1-0.1-0.1-0.3v-0.1l0-3.8c0-1.1,0-2.4,0-3.8v-1.6
		c0-0.1,0-0.2,0.1-0.2c0,0,0.1-0.1,0.3-0.1c0.2,0,0.4,0,0.6,0.1c0.2,0.1,0.3,0.2,0.5,0.3c0.3,0.3,0.4,0.7,0.5,1.1
		c0,0.2,0.1,0.4,0.1,0.6c0,0.1,0,0.3,0,0.4c0,0.2,0,0.3,0,0.3c0,0.1-0.1,0.2-0.1,0.4c-0.1,0.2-0.1,0.3-0.1,0.3l-0.2,0.4l-0.1,0.3
		c0,0.3,0.1,0.7,0.2,1.2c0.1,0.5,0.2,0.9,0.3,1.3c0.1,0.3,0.2,0.8,0.5,1.4l0.4,1.1v0c0,0.1,0,0.3,0,0.4c0,0.1-0.1,0.2-0.3,0.2
		C57.1,138.9,56.9,138.8,56.8,138.6z M55.9,132.3l0.2-1.1c0,0,0-0.1,0-0.2c0-0.3,0-0.5-0.1-0.9c-0.1-0.2-0.1-0.3-0.2-0.4
		c-0.1-0.1-0.2-0.2-0.3-0.2l0,1.3c0,0.6,0,1,0,1.4c0,0.3,0,0.5,0,0.6C55.6,132.6,55.7,132.5,55.9,132.3z"/>
</g>
<g>
	<g>
		<path d="M96.8,71c-0.2-0.1-0.4-0.3-0.5-0.5c-0.1-0.2-0.2-0.4-0.4-0.7s-0.2-0.6-0.2-0.9c-0.1-0.5-0.2-1.2-0.2-2c0-0.2,0-0.5,0-1
			v-0.8c0-0.2,0-0.5,0-0.7c0-0.5,0-0.9,0.1-1.2c0-0.1,0-0.3,0-0.4c0-0.5,0.2-0.9,0.6-1.3c0.4-0.3,0.9-0.5,1.5-0.5
			c0.2,0,0.4,0.1,0.6,0.2c0.2,0.1,0.3,0.3,0.3,0.5c0,0.1,0,0.2-0.1,0.2c-0.1,0.1-0.2,0.1-0.3,0.1c-0.1,0-0.2,0-0.3,0
			c-0.1,0-0.2-0.1-0.2-0.1h-0.2v0c-0.3,0-0.6,0.1-0.8,0.2c-0.2,0.1-0.3,0.3-0.4,0.6c0,0.1-0.1,0.2-0.1,0.4c0,0.1,0,0.3,0,0.4
			c0,0.1,0,0.2,0,0.4l0,0.5l0,0.4c0,0.1,0,0.3-0.1,0.5c0,0.2-0.1,0.4-0.1,0.5v0.3c0,0.3,0,0.8,0,1.4c0,0.5,0.1,1,0.2,1.5
			c0.1,0.5,0.2,0.8,0.4,1.2c0.2,0.3,0.5,0.5,0.8,0.5c0.1,0,0.3-0.1,0.5-0.2c0.2-0.2,0.4-0.2,0.5-0.2c0.1,0,0.2,0.1,0.4,0.2
			c0,0.3-0.1,0.6-0.4,0.7c-0.2,0.2-0.5,0.3-0.8,0.3c-0.2,0-0.3,0-0.4,0C97.3,71.1,97,71.1,96.8,71z"/>
		<path d="M101.2,71.1c-0.2-0.2-0.4-0.4-0.5-0.6c-0.3-0.5-0.4-1.1-0.6-1.9c-0.1-0.6-0.2-1.2-0.2-1.9l0-0.7v-0.7c0-0.2,0-0.5,0-0.8
			c0-0.5,0-1,0.1-1.4c0-0.4,0.1-0.8,0.3-1.2c0.1-0.4,0.3-0.6,0.6-0.8c0.2-0.1,0.3-0.1,0.5-0.1c0.5,0,0.8,0.2,1.1,0.5
			c0.3,0.4,0.5,0.9,0.6,1.4c0.1,0.6,0.2,1.2,0.2,1.7c0,0.6,0.1,1.2,0.1,1.7V67c0,0.1,0,0.4-0.1,0.8c0,0.3-0.1,0.6-0.1,0.8v0.1
			c-0.1,0.2-0.1,0.5-0.1,0.9c0,0.2-0.1,0.5-0.2,0.8c-0.1,0.3-0.3,0.5-0.4,0.7c-0.2,0.2-0.4,0.3-0.7,0.3
			C101.6,71.3,101.4,71.2,101.2,71.1z M102.3,70.1c0.1-0.3,0.2-0.6,0.2-1c0-0.4,0.1-0.9,0.1-1.4c0-0.2,0-0.5,0-0.9l0-1.2
			c0-0.5-0.1-1.1-0.2-1.8c-0.1-0.6-0.2-1.1-0.4-1.6c-0.1-0.2-0.2-0.4-0.3-0.5c-0.1-0.1-0.3-0.2-0.4-0.2c-0.2,0-0.4,0.2-0.5,0.5
			c-0.1,0.4-0.2,0.7-0.3,1.2c-0.1,0.5-0.1,0.9-0.1,1.3l0,0.4c0,0.1,0,0.3,0,0.5v0.1c0,0.6,0.1,1.3,0.2,2.1c0.1,1.2,0.3,2,0.6,2.5
			c0.2,0.3,0.4,0.5,0.5,0.5C102,70.6,102.1,70.4,102.3,70.1z"/>
		<path d="M106.9,68.4c-0.6-2.1-1.1-4-1.6-5.8v4.3c0,0.4,0,1,0.1,1.9c0.1,1,0.1,1.6,0.1,1.8c0,0.1,0,0.1-0.1,0.2
			c-0.1,0.1-0.2,0.1-0.3,0.1c-0.2,0-0.3-0.1-0.3-0.2l0-0.4c0-0.3,0-0.5,0-0.5c0-0.5,0-1.2-0.1-2.2c-0.1-1-0.1-1.6-0.1-1.8v-1.7
			c0-0.3,0-0.7,0-1.2c0-0.5,0.1-0.9,0.1-1.2v-0.1c0-0.4,0.1-0.6,0.3-0.6c0.1,0,0.3,0.2,0.4,0.6c0.3,0.6,0.7,1.7,1.1,3.4
			c0.3,0.9,0.5,2.1,0.9,3.6c0,0,0.1,0.3,0.2,0.9l0,0.1c0-0.8,0-1.6,0-2.3l0-2.3v-3.8c0-0.2,0.2-0.3,0.4-0.3c0.2,0,0.4,0.2,0.4,0.5
			v0.1c-0.1,0.1-0.1,0.2-0.1,0.4c0,0.5,0,1.3,0,2.4c0,1.1,0,1.9,0,2.4v4c0,0.1,0,0.3-0.1,0.4c-0.1,0.1-0.2,0.2-0.3,0.2
			C107.7,71.1,107.4,70.2,106.9,68.4z"/>
		<path d="M110,71c-0.1-0.1-0.2-0.2-0.2-0.3s0-0.2,0.1-0.3c0.1-0.1,0.1-0.1,0.2-0.1c0.1,0,0.2,0,0.4,0.1c0.2,0.1,0.3,0.1,0.3,0.1
			c0.2,0,0.3-0.1,0.4-0.2c0.1-0.1,0.2-0.3,0.3-0.6c0.2-0.4,0.2-0.8,0.2-1.2c0-0.4-0.1-0.8-0.2-1.2c-0.1-0.4-0.3-0.8-0.5-1.2
			l-0.2-0.4c-0.2-0.4-0.4-0.8-0.5-1c-0.1-0.3-0.2-0.5-0.3-0.8c-0.1-0.4-0.2-0.8-0.2-1.2c0-0.3,0.1-0.6,0.2-0.9
			c0.1-0.3,0.3-0.5,0.5-0.7c0.2-0.2,0.5-0.3,0.8-0.3c0.2,0,0.3,0,0.5,0.1c0.1,0.1,0.3,0.2,0.3,0.3l-0.2,0.3c-0.2,0-0.4,0-0.5-0.1
			c-0.2,0-0.3,0.1-0.4,0.2c-0.1,0.1-0.2,0.3-0.3,0.5c-0.1,0.2-0.1,0.3-0.1,0.5c0,0.3,0,0.7,0.1,1c0.1,0.3,0.2,0.7,0.4,1l0.9,1.8
			c0.1,0.3,0.3,0.7,0.4,1.1c0.1,0.4,0.1,0.8,0.1,1.2c0,0.6-0.1,1.1-0.4,1.6c-0.1,0.3-0.3,0.5-0.6,0.6c-0.2,0.2-0.5,0.2-0.8,0.2
			C110.5,71.2,110.2,71.2,110,71z"/>
		<path d="M114.7,70.8c-0.1-0.1-0.1-0.3-0.1-0.5c0-0.3,0-0.6,0.1-1.1l0-0.3l0-0.7c0-0.3,0-1-0.1-2c-0.1-1-0.1-1.7-0.1-2
			c0,0,0-0.1,0-0.1c0-0.1,0-0.2,0-0.3c0-0.2,0-0.4,0-0.6c0-0.6,0-1-0.1-1.2c-0.1,0-0.2,0-0.3,0l-0.4,0c-0.1,0-0.2,0-0.3-0.1
			c-0.1-0.1-0.1-0.1-0.1-0.3c0-0.1,0.1-0.2,0.3-0.3c0.3-0.1,0.8-0.2,1.5-0.2c0.3,0,0.5,0,0.5,0c0.1,0,0.2,0,0.3,0.1
			c0.1,0.1,0.1,0.2,0.1,0.3c0,0.1,0,0.2-0.1,0.3c-0.1,0.1-0.2,0.1-0.3,0.1l-0.2,0c-0.1,0-0.1,0-0.2,0h-0.1c0.1,0.6,0.1,1.1,0.1,1.6
			l0,0.8c0,0.3,0,0.5,0,0.8c0,0.4,0,0.9,0.1,1.5c0,0.7,0.1,1.2,0.1,1.5c0,0.3,0,0.7,0.1,1.2c0,0.5,0.1,0.8,0.1,1.2
			c0,0.4-0.1,0.6-0.4,0.6C114.9,71,114.8,71,114.7,70.8z"/>
		<path d="M119.4,70.7L119.4,70.7c0-0.5-0.1-1-0.2-1.6c-0.1-0.6-0.3-1.2-0.6-2c-0.2-0.6-0.4-1.1-0.5-1.6v5.1c0,0.1,0,0.2-0.1,0.3
			c0,0.1-0.1,0.1-0.3,0.1c-0.1,0-0.2,0-0.2-0.1c-0.1-0.1-0.1-0.1-0.1-0.3v-0.1l0-3.8c0-1.1,0-2.4,0-3.8v-1.6c0-0.1,0-0.2,0.1-0.2
			c0,0,0.1-0.1,0.3-0.1c0.2,0,0.4,0,0.6,0.1c0.2,0.1,0.3,0.2,0.5,0.3c0.3,0.3,0.4,0.7,0.5,1.1c0,0.2,0.1,0.4,0.1,0.6
			c0,0.1,0,0.3,0,0.4c0,0.2,0,0.3,0,0.3c0,0.1-0.1,0.2-0.1,0.4c-0.1,0.2-0.1,0.3-0.1,0.3L119,65l-0.1,0.3c0,0.3,0.1,0.7,0.2,1.2
			c0.1,0.5,0.2,0.9,0.3,1.3c0.1,0.3,0.2,0.8,0.5,1.4l0.4,1.1v0c0,0.1,0,0.3,0,0.4c0,0.1-0.1,0.2-0.3,0.2
			C119.7,71.1,119.5,70.9,119.4,70.7z M118.5,64.4l0.2-1.1c0,0,0-0.1,0-0.2c0-0.3,0-0.5-0.1-0.9c-0.1-0.2-0.1-0.3-0.2-0.4
			c-0.1-0.1-0.2-0.2-0.3-0.2l0,1.3c0,0.6,0,1,0,1.4c0,0.3,0,0.5,0,0.6C118.2,64.8,118.3,64.6,118.5,64.4z"/>
		<path d="M122.2,70.5c-0.3-0.5-0.6-1.1-0.7-1.8c-0.2-0.7-0.3-1.5-0.3-2.4c0-0.8-0.1-1.6-0.1-2.5v-1.1c0-0.3,0-0.6,0-1
			c-0.1-0.1-0.1-0.2-0.1-0.3c0-0.1,0-0.2,0.1-0.3c0.1-0.1,0.2-0.1,0.3-0.1c0.3,0,0.5,0.3,0.5,0.9c0,0.4,0,1.2,0.1,2.3
			c0,1.1,0.1,1.9,0.1,2.3c0,0.1,0.1,0.3,0.1,0.7c0,0.3,0.1,0.6,0.1,0.8c0,0.2,0,0.4,0.1,0.7s0.1,0.6,0.3,0.9
			c0.1,0.3,0.3,0.6,0.4,0.7c0.2,0.2,0.4,0.3,0.6,0.3c0.1,0,0.2,0,0.3-0.1c0.1-0.1,0.1-0.2,0.2-0.3c0.1-0.2,0.1-0.5,0.1-0.7V67
			c0-0.3,0-0.7-0.1-1.2c-0.1-0.5-0.1-1-0.1-1.2v-0.1c0-0.1,0-0.3,0-0.4l0-0.4c0-0.2,0-0.6,0-1.1c0-0.4-0.1-0.8-0.1-1.1
			c0-0.1,0-0.2,0.1-0.2c0.1-0.1,0.2-0.1,0.3-0.1l0.3,0.3v0.2c0,0.1,0,0.2-0.1,0.4c0,0.2-0.1,0.4-0.1,0.4c0,0.8,0,1.9,0.1,3.3
			c0.1,1.5,0.1,2.6,0.1,3.4c0,0.4,0,0.8-0.1,1.1c-0.1,0.2-0.1,0.4-0.2,0.5c-0.1,0.1-0.2,0.2-0.4,0.3c-0.1,0.1-0.3,0.1-0.6,0.1
			C122.9,71.2,122.5,70.9,122.2,70.5z"/>
		<path d="M126.1,70.5c0-0.2,0.1-0.3,0.4-0.3h0.2c0,0,0.1,0,0.1,0c0.1,0,0.1,0,0.1-0.1c0,0,0-0.1,0-0.2c0-0.7,0-1.7-0.1-3
			c-0.1-1.3-0.1-2.3-0.1-3c0-0.2,0-0.5,0-0.7l0-0.7c0-0.3,0-0.5,0-0.7c-0.1,0-0.2,0.1-0.3,0.1c-0.2,0-0.3-0.1-0.3-0.3
			c0-0.1,0.1-0.2,0.2-0.3c0.1-0.1,0.3-0.1,0.5-0.2c0.4-0.1,0.7-0.1,0.9-0.1c0.1,0,0.2,0,0.3,0.1c0.1,0.1,0.1,0.2,0.1,0.2
			c0,0.1,0,0.2-0.1,0.2c-0.1,0.1-0.1,0.1-0.2,0.1c-0.1,0-0.1,0-0.1,0h-0.1c-0.1,0-0.1,0-0.2,0.1c0,0-0.1,0.1-0.1,0.2
			c0,0.9,0.1,2.2,0.2,3.8c0.1,1.7,0.2,3,0.2,3.8v0.5c0.1,0,0.1,0,0.3,0c0.4,0,0.5,0.2,0.5,0.5v0.1l-0.3,0.2c0,0,0,0-0.1,0
			c0,0-0.1,0-0.3,0c-0.3,0-0.5,0-0.5,0C126.5,70.9,126.1,70.8,126.1,70.5z"/>
		<path d="M131.7,70.7L131.7,70.7c0-0.5-0.1-1-0.2-1.6c-0.1-0.6-0.3-1.2-0.6-2c-0.2-0.6-0.4-1.1-0.5-1.6v5.1c0,0.1,0,0.2-0.1,0.3
			c0,0.1-0.1,0.1-0.3,0.1c-0.1,0-0.2,0-0.2-0.1c-0.1-0.1-0.1-0.1-0.1-0.3v-0.1l0-3.8c0-1.1,0-2.4,0-3.8v-1.6c0-0.1,0-0.2,0.1-0.2
			c0,0,0.1-0.1,0.3-0.1c0.2,0,0.4,0,0.6,0.1c0.2,0.1,0.3,0.2,0.5,0.3c0.3,0.3,0.4,0.7,0.5,1.1c0,0.2,0.1,0.4,0.1,0.6
			c0,0.1,0,0.3,0,0.4c0,0.2,0,0.3,0,0.3c0,0.1-0.1,0.2-0.1,0.4c-0.1,0.2-0.1,0.3-0.1,0.3l-0.2,0.4l-0.1,0.3c0,0.3,0.1,0.7,0.2,1.2
			c0.1,0.5,0.2,0.9,0.3,1.3c0.1,0.3,0.2,0.8,0.5,1.4l0.4,1.1v0c0,0.1,0,0.3,0,0.4c0,0.1-0.1,0.2-0.3,0.2
			C132,71.1,131.9,70.9,131.7,70.7z M130.8,64.4l0.2-1.1c0,0,0-0.1,0-0.2c0-0.3,0-0.5-0.1-0.9c-0.1-0.2-0.1-0.3-0.2-0.4
			c-0.1-0.1-0.2-0.2-0.3-0.2l0,1.3c0,0.6,0,1,0,1.4c0,0.3,0,0.5,0,0.6C130.5,64.8,130.7,64.6,130.8,64.4z"/>
	</g>
</g>
<g>
	<path class="st7" d="M102.5,209.1c-0.1-0.1-0.1-0.1-0.1-0.3v-1.7c-0.1-0.1-0.3-0.1-0.6-0.2c-0.3-0.1-0.6-0.1-0.9-0.1
		c-0.1,0.2-0.2,0.4-0.2,0.7l-0.1,0.3c0,0.1,0,0.2-0.1,0.4c0,0.2-0.1,0.4-0.1,0.5c-0.1,0.2-0.1,0.3-0.2,0.4c-0.3,0-0.5-0.1-0.6-0.3
		c0.1-0.1,0.2-0.5,0.3-1.2l0.4-2.4c0.2-1.1,0.4-2.1,0.5-2.9c0.2-0.8,0.3-1.5,0.5-2c0.2-0.6,0.4-0.9,0.6-0.9s0.3,0,0.4,0.1
		c0,0.3,0.1,1.2,0.2,2.5c0.2,1.3,0.3,2.2,0.3,2.7c0,0.5,0,1.1,0.1,2c0.1,0.9,0.1,1.6,0.1,2.1c0,0.3-0.1,0.4-0.4,0.4
		C102.6,209.2,102.5,209.2,102.5,209.1z M102.4,206.4c0-0.4-0.1-0.9-0.1-1.4c-0.2-2-0.3-3.2-0.3-3.6v-0.1c-0.1,0.1-0.2,0.5-0.4,1.2
		c-0.2,0.7-0.3,1.4-0.4,2.2c-0.1,0.8-0.2,1.3-0.2,1.6c0.4,0.1,0.8,0.2,1.2,0.2C102.2,206.4,102.3,206.4,102.4,206.4z"/>
	<path class="st7" d="M105,209.1c-0.1-0.1-0.1-0.2-0.1-0.3l0-2.2c0-1.1,0-1.9,0-2.5c0-2-0.1-3.6-0.3-4.6c0.1-0.2,0.3-0.3,0.5-0.3
		c0.3,0,0.6,0.1,0.9,0.2s0.5,0.3,0.7,0.6c0.3,0.5,0.5,1.1,0.5,1.7c0,0.7-0.1,1.2-0.4,1.7c-0.3,0.5-0.7,0.9-1.2,1.2l0,1.3l0,0.7
		c0,0.1,0,0.4,0,0.6c0,0.6,0,1.1,0,1.4c0,0.2,0,0.3-0.1,0.4c-0.1,0.1-0.2,0.1-0.3,0.1C105.1,209.3,105,209.2,105,209.1z M106.3,203
		c0.2-0.4,0.2-0.7,0.2-1.2v0c0-0.2,0-0.5-0.1-0.8c0-0.1-0.1-0.2-0.1-0.3c-0.1-0.1-0.1-0.2-0.1-0.2c-0.1-0.1-0.2-0.2-0.5-0.4
		l-0.3-0.2c0,0.4,0,1.1,0.1,2.1l0.1,2.1C105.8,203.7,106.1,203.4,106.3,203z"/>
	<path class="st7" d="M110.4,209L110.4,209c0-0.5-0.1-1-0.2-1.6c-0.1-0.6-0.3-1.2-0.6-2c-0.2-0.6-0.4-1.1-0.5-1.6v5.1
		c0,0.1,0,0.2-0.1,0.3c0,0.1-0.1,0.1-0.3,0.1c-0.1,0-0.2,0-0.2-0.1c-0.1-0.1-0.1-0.1-0.1-0.3v-0.1l0-3.8c0-1.1,0-2.4,0-3.8v-1.6
		c0-0.1,0-0.2,0.1-0.2c0,0,0.1-0.1,0.3-0.1c0.2,0,0.4,0,0.6,0.1c0.2,0.1,0.3,0.2,0.5,0.3c0.3,0.3,0.4,0.7,0.5,1.1
		c0,0.2,0.1,0.4,0.1,0.6c0,0.1,0,0.3,0,0.4c0,0.2,0,0.3,0,0.3c0,0.1-0.1,0.2-0.1,0.4c-0.1,0.2-0.1,0.3-0.1,0.3l-0.2,0.4l-0.1,0.3
		c0,0.3,0.1,0.7,0.2,1.2c0.1,0.5,0.2,0.9,0.3,1.3c0.1,0.3,0.2,0.8,0.5,1.4l0.4,1.1v0c0,0.1,0,0.3,0,0.4c0,0.1-0.1,0.2-0.3,0.2
		C110.7,209.3,110.6,209.2,110.4,209z M109.6,202.7l0.2-1.1c0,0,0-0.1,0-0.2c0-0.3,0-0.5-0.1-0.9c-0.1-0.2-0.1-0.3-0.2-0.4
		c-0.1-0.1-0.2-0.2-0.3-0.2l0,1.3c0,0.6,0,1,0,1.4c0,0.3,0,0.5,0,0.6C109.2,203,109.4,202.9,109.6,202.7z"/>
	<path class="st7" d="M112.6,209.2c-0.1,0-0.2-0.2-0.2-0.4v-7.6c0-0.1,0-0.4-0.1-0.7c-0.1-0.3-0.1-0.5-0.1-0.7v0
		c0.1-0.2,0.3-0.4,0.3-0.5c0.1,0,0.3,0,0.5-0.1c0.2,0,0.3-0.1,0.5-0.1c0.1,0,0.3,0,0.4,0.1c0.1,0.1,0.2,0.2,0.2,0.3
		c0,0.3-0.2,0.4-0.6,0.4h-0.2c-0.1,0-0.1,0-0.2,0c-0.1,0-0.1,0-0.1,0c0,0.3,0,0.7,0.1,1.1l0,0.4l0,0.7c0,0.2,0,0.4,0,0.8l0,0.7
		l0.2,0c0.2-0.1,0.3-0.1,0.4-0.1c0.1,0,0.2,0,0.3,0.1c0.1,0.1,0.1,0.2,0.1,0.3c0,0.1,0,0.2-0.1,0.3c-0.1,0.1-0.1,0.1-0.2,0.1l-0.2,0
		h-0.2c-0.1,0-0.2,0-0.3,0.1v4l0.7,0c0.5,0,0.7,0.1,0.7,0.3v0.1c-0.1,0.1-0.1,0.2-0.3,0.3c-0.1,0.1-0.3,0.1-0.4,0.1l-0.4,0H113
		C112.8,209.3,112.7,209.2,112.6,209.2z"/>
	<path class="st7" d="M118,206.7c-0.6-2.1-1.1-4-1.6-5.8v4.3c0,0.4,0,1,0.1,1.9c0.1,1,0.1,1.6,0.1,1.8c0,0.1,0,0.1-0.1,0.2
		c-0.1,0.1-0.2,0.1-0.3,0.1c-0.2,0-0.3-0.1-0.3-0.2l0-0.4c0-0.3,0-0.5,0-0.5c0-0.5,0-1.2-0.1-2.2c-0.1-1-0.1-1.6-0.1-1.8v-1.7
		c0-0.3,0-0.7,0-1.2c0-0.5,0.1-0.9,0.1-1.2v-0.1c0-0.4,0.1-0.7,0.3-0.7c0.1,0,0.3,0.2,0.4,0.6c0.3,0.6,0.6,1.7,1.1,3.4
		c0.3,0.9,0.5,2.1,0.9,3.6c0,0,0.1,0.3,0.2,0.9l0,0.1c0-0.8,0-1.6,0-2.3l0-2.3v-3.8c0-0.2,0.2-0.3,0.4-0.3c0.2,0,0.4,0.2,0.4,0.5
		v0.1c-0.1,0.1-0.1,0.2-0.1,0.4c0,0.5,0,1.3,0,2.4c0,1.1,0,1.9,0,2.4v4c0,0.1,0,0.3-0.1,0.4c-0.1,0.1-0.2,0.2-0.3,0.2
		C118.9,209.4,118.6,208.5,118,206.7z"/>
	<path class="st7" d="M121.4,209.1c-0.1-0.1-0.2-0.2-0.2-0.3c0.2-0.2,0.3-0.7,0.3-1.5c0-0.5,0-1.2-0.1-2.2c-0.1-0.9-0.1-1.6-0.1-2.1
		l0-0.7c0-0.2,0-0.4,0-0.7c0-0.2,0-0.6-0.1-0.9c-0.1-0.4-0.2-0.7-0.2-0.8c0-0.3,0.3-0.5,1-0.5h0.2c0.5,0,0.9,0.1,1.2,0.4
		c0.3,0.2,0.5,0.6,0.7,1.1c0.1,0.3,0.2,0.7,0.3,1.3c0.1,0.5,0.1,0.9,0.1,1.1v0.4v0.6c0,0,0,0.1,0,0.1c0,0.1,0,0.1,0,0.2
		c0,0,0,0.1,0,0.1c0,0.3,0,0.6-0.1,1s-0.2,0.8-0.4,1.2c-0.4,1-0.8,1.6-1.3,2c-0.3,0.2-0.6,0.3-0.9,0.3
		C121.7,209.2,121.6,209.2,121.4,209.1z M123,207.6c0.2-0.4,0.4-0.8,0.6-1.3c0.2-0.8,0.4-1.7,0.4-2.6c0-0.5,0-1-0.1-1.5
		c-0.1-0.5-0.3-1-0.6-1.5c-0.1-0.2-0.3-0.4-0.6-0.5c-0.2-0.1-0.5-0.2-0.8-0.2v0c0,0.8,0.1,2,0.2,3.5c0.1,1.6,0.2,2.8,0.2,3.6v1.2
		C122.5,208.3,122.8,208,123,207.6z"/>
	<path class="st7" d="M126.5,209.2c-0.1,0-0.2-0.2-0.2-0.4v-7.6c0-0.1,0-0.4-0.1-0.7c-0.1-0.3-0.1-0.5-0.1-0.7v0
		c0.1-0.2,0.3-0.4,0.3-0.5c0.1,0,0.3,0,0.5-0.1c0.2,0,0.3-0.1,0.5-0.1c0.1,0,0.3,0,0.4,0.1c0.1,0.1,0.2,0.2,0.2,0.3
		c0,0.3-0.2,0.4-0.6,0.4h-0.2c-0.1,0-0.1,0-0.2,0c-0.1,0-0.1,0-0.1,0c0,0.3,0,0.7,0.1,1.1l0,0.4l0,0.7c0,0.2,0,0.4,0,0.8l0,0.7
		l0.2,0c0.2-0.1,0.3-0.1,0.4-0.1c0.1,0,0.2,0,0.3,0.1c0.1,0.1,0.1,0.2,0.1,0.3c0,0.1,0,0.2-0.1,0.3c-0.1,0.1-0.1,0.1-0.2,0.1l-0.2,0
		h-0.2c-0.1,0-0.2,0-0.3,0.1v4l0.7,0c0.5,0,0.7,0.1,0.7,0.3v0.1c-0.1,0.1-0.1,0.2-0.3,0.3c-0.1,0.1-0.3,0.1-0.4,0.1l-0.4,0h-0.4
		C126.7,209.3,126.6,209.2,126.5,209.2z"/>
	<path class="st7" d="M131.7,209L131.7,209c0-0.5-0.1-1-0.2-1.6c-0.1-0.6-0.3-1.2-0.6-2c-0.2-0.6-0.4-1.1-0.5-1.6v5.1
		c0,0.1,0,0.2-0.1,0.3c0,0.1-0.1,0.1-0.3,0.1c-0.1,0-0.2,0-0.2-0.1c-0.1-0.1-0.1-0.1-0.1-0.3v-0.1l0-3.8c0-1.1,0-2.4,0-3.8v-1.6
		c0-0.1,0-0.2,0.1-0.2c0,0,0.1-0.1,0.3-0.1c0.2,0,0.4,0,0.6,0.1c0.2,0.1,0.3,0.2,0.5,0.3c0.3,0.3,0.4,0.7,0.5,1.1
		c0,0.2,0.1,0.4,0.1,0.6c0,0.1,0,0.3,0,0.4c0,0.2,0,0.3,0,0.3c0,0.1-0.1,0.2-0.1,0.4c-0.1,0.2-0.1,0.3-0.1,0.3l-0.2,0.4l-0.1,0.3
		c0,0.3,0.1,0.7,0.2,1.2c0.1,0.5,0.2,0.9,0.3,1.3c0.1,0.3,0.2,0.8,0.5,1.4l0.4,1.1v0c0,0.1,0,0.3,0,0.4c0,0.1-0.1,0.2-0.3,0.2
		C132,209.3,131.9,209.2,131.7,209z M130.8,202.7l0.2-1.1c0,0,0-0.1,0-0.2c0-0.3,0-0.5-0.1-0.9c-0.1-0.2-0.1-0.3-0.2-0.4
		c-0.1-0.1-0.2-0.2-0.3-0.2l0,1.3c0,0.6,0,1,0,1.4c0,0.3,0,0.5,0,0.6C130.5,203,130.7,202.9,130.8,202.7z"/>
</g>
<g>
	<path d="M145,138.6c-0.1-0.1-0.1-0.2-0.1-0.3c0-0.1,0-0.2,0.1-0.3c0-0.1,0-0.2,0-0.3c0-0.8,0-2.3-0.1-4.4c-0.1-1.9-0.1-3.3-0.1-4.4
		c0-0.1,0-0.1,0.1-0.2c0.1,0,0.1-0.1,0.2-0.1c0.1,0,0.2,0,0.3,0.1c0.1,0.1,0.1,0.2,0.1,0.3c0,0.5,0,1.3,0.1,2.3
		c0,1.2,0.1,1.9,0.1,2.3l0,0.2v0.2v0.1v0.1c0,0.8,0,1.9,0,3.4v0.3h1c0.2,0.1,0.3,0.3,0.3,0.4c0,0.1,0,0.2-0.1,0.3
		c-0.1,0.1-0.1,0.1-0.2,0.1c0,0-0.1,0-0.1,0l-0.1,0c-0.1,0-0.1,0-0.2,0h-0.2c-0.1,0-0.1,0-0.2,0c-0.1,0.1-0.2,0.2-0.4,0.2
		C145.2,138.7,145.1,138.7,145,138.6z"/>
	<path d="M150.2,138.5c-0.1-0.1-0.1-0.1-0.1-0.3v-1.7c-0.1-0.1-0.3-0.1-0.6-0.2c-0.3-0.1-0.6-0.1-0.9-0.1c-0.1,0.2-0.2,0.4-0.2,0.7
		l-0.1,0.3c0,0.1,0,0.2-0.1,0.4c0,0.2-0.1,0.4-0.1,0.5c-0.1,0.2-0.1,0.3-0.2,0.4c-0.3,0-0.5-0.1-0.6-0.3c0.1-0.1,0.2-0.5,0.3-1.2
		l0.4-2.4c0.2-1.1,0.4-2.1,0.5-2.9c0.2-0.8,0.3-1.5,0.5-2c0.2-0.6,0.4-0.9,0.6-0.9s0.3,0,0.4,0.1c0,0.3,0.1,1.2,0.2,2.5
		c0.2,1.3,0.3,2.2,0.3,2.7c0,0.5,0,1.1,0.1,2c0.1,0.9,0.1,1.6,0.1,2.1c0,0.3-0.1,0.4-0.4,0.4C150.4,138.6,150.3,138.5,150.2,138.5z
		 M150.1,135.7c0-0.4-0.1-0.9-0.1-1.4c-0.2-2-0.3-3.2-0.3-3.6v-0.1c-0.1,0.1-0.2,0.5-0.4,1.2c-0.2,0.7-0.3,1.4-0.4,2.2
		c-0.1,0.8-0.2,1.3-0.2,1.6c0.4,0.1,0.8,0.2,1.2,0.2C149.9,135.8,150,135.7,150.1,135.7z"/>
	<path d="M154.6,136.1c-0.6-2.1-1.1-4-1.6-5.8v4.3c0,0.4,0,1,0.1,1.9c0.1,1,0.1,1.6,0.1,1.8c0,0.1,0,0.1-0.1,0.2
		c-0.1,0.1-0.2,0.1-0.3,0.1c-0.2,0-0.3-0.1-0.3-0.2l0-0.4c0-0.3,0-0.5,0-0.5c0-0.5,0-1.2-0.1-2.2c-0.1-1-0.1-1.6-0.1-1.8v-1.7
		c0-0.3,0-0.7,0-1.2c0-0.5,0.1-0.9,0.1-1.2v-0.1c0-0.4,0.1-0.7,0.3-0.7c0.1,0,0.3,0.2,0.4,0.6c0.3,0.6,0.6,1.7,1.1,3.4
		c0.3,0.9,0.5,2.1,0.9,3.6c0,0,0.1,0.3,0.2,0.9l0,0.1c0-0.8,0-1.6,0-2.3l0-2.3v-3.8c0-0.2,0.2-0.3,0.4-0.3c0.2,0,0.4,0.2,0.4,0.5
		v0.1c-0.1,0.1-0.1,0.2-0.1,0.4c0,0.5,0,1.3,0,2.4c0,1.1,0,1.9,0,2.4v4c0,0.1,0,0.3-0.1,0.4c-0.1,0.1-0.2,0.2-0.3,0.2
		C155.5,138.8,155.2,137.9,154.6,136.1z"/>
	<path d="M157.4,138.4c0.2-0.3,0.4-1.1,0.7-2.4c0.2-1.3,0.5-2.6,0.6-4c0.2-1.3,0.3-2.2,0.3-2.7l-0.5,0c-0.1,0-0.2,0-0.3,0
		c-0.5,0-0.7-0.1-0.7-0.4v-0.1l0.2-0.2v0c0.1,0,0.2,0.1,0.4,0.1c0.1,0,0.3,0,0.6-0.1c0.3,0,0.5-0.1,0.6-0.1c0.1,0,0.2,0,0.3,0.1
		c0.1,0.1,0.1,0.2,0.1,0.3c0,2.3-0.5,5.3-1.4,9l0.3,0c0.1,0,0.2,0,0.4,0c0.5,0,0.7,0.1,0.7,0.4v0.1l-0.2,0.2l-0.8,0
		c-0.2,0-0.5,0-0.8,0C157.6,138.7,157.5,138.6,157.4,138.4z"/>
	<path d="M163.5,138.5c-0.1-0.1-0.1-0.1-0.1-0.3v-1.7c-0.1-0.1-0.3-0.1-0.6-0.2c-0.3-0.1-0.6-0.1-0.9-0.1c-0.1,0.2-0.2,0.4-0.2,0.7
		l-0.1,0.3c0,0.1,0,0.2-0.1,0.4c0,0.2-0.1,0.4-0.1,0.5c-0.1,0.2-0.1,0.3-0.2,0.4c-0.3,0-0.5-0.1-0.6-0.3c0.1-0.1,0.2-0.5,0.3-1.2
		l0.4-2.4c0.2-1.1,0.4-2.1,0.5-2.9c0.2-0.8,0.3-1.5,0.5-2c0.2-0.6,0.4-0.9,0.6-0.9c0.2,0,0.3,0,0.4,0.1c0,0.3,0.1,1.2,0.2,2.5
		c0.2,1.3,0.3,2.2,0.3,2.7c0,0.5,0,1.1,0.1,2c0.1,0.9,0.1,1.6,0.1,2.1c0,0.3-0.1,0.4-0.4,0.4C163.7,138.6,163.6,138.5,163.5,138.5z
		 M163.4,135.7c0-0.4-0.1-0.9-0.1-1.4c-0.2-2-0.3-3.2-0.3-3.6v-0.1c-0.1,0.1-0.2,0.5-0.4,1.2c-0.2,0.7-0.3,1.4-0.4,2.2
		c-0.1,0.8-0.2,1.3-0.2,1.6c0.4,0.1,0.8,0.2,1.2,0.2C163.2,135.8,163.3,135.7,163.4,135.7z"/>
	<path d="M169.3,138.8c-0.1-0.1-0.1-0.2-0.1-0.4l0-1.9c0-0.2,0-0.4,0-0.8c0-0.8,0-1.7,0-2.7v-0.7c-0.1,0.4-0.2,1-0.4,1.8
		c-0.2,0.8-0.3,1.4-0.4,1.9v0.1l0,0.2c0,0.2-0.1,0.4-0.1,0.6c-0.1,0.2-0.2,0.3-0.4,0.3c-0.3,0-0.5-0.4-0.5-1.2c0-0.5,0-0.9-0.1-1.4
		c-0.1-0.5-0.2-1.2-0.4-1.9l-0.4-1.5l0,1.6c0,0.5,0,1.4,0.1,2.7l0,0.9l0,1.8c0,0.2-0.1,0.3-0.2,0.5c-0.2,0-0.4-0.1-0.4-0.2
		c-0.1-0.1-0.1-0.3-0.1-0.6l0-1.1c0-0.5,0-0.8,0-1.1l0-2.5l0-2.5c0-0.4,0-0.9,0-1.7l0.4-0.2c0.1,0,0.1,0.1,0.2,0.1
		c0.1,0.1,0.1,0.2,0.2,0.4c0.2,0.5,0.5,1.6,0.8,3.2c0.1,0.2,0.1,0.4,0.1,0.6c0.1,0.5,0.2,0.9,0.2,1.1l0.2,1l0.1-0.4l0.2-1.1
		c0.1-0.6,0.3-1.2,0.3-1.6c0.1-0.5,0.2-1,0.3-1.5c0.1-0.7,0.2-1.2,0.2-1.6v-0.1c0-0.1,0.1-0.2,0.2-0.3c0.1-0.1,0.2-0.1,0.3-0.1
		c0.1,0,0.1,0,0.2,0.1c0.1,0.1,0.1,0.1,0.1,0.2c0,1,0,2.6,0.1,4.7c0,1,0.1,2,0.1,3c0,0.4,0,1,0,1.7c0,0.2-0.1,0.4-0.2,0.5
		c-0.1,0.2-0.2,0.2-0.4,0.2C169.5,138.9,169.4,138.9,169.3,138.8z"/>
	<path d="M171.4,138.2c0-0.2,0.1-0.3,0.4-0.3h0.2c0,0,0.1,0,0.1,0c0.1,0,0.1,0,0.1-0.1c0,0,0-0.1,0-0.2c0-0.7,0-1.7-0.1-3
		c-0.1-1.3-0.1-2.3-0.1-3c0-0.2,0-0.5,0-0.7l0-0.7c0-0.3,0-0.5,0-0.7c-0.1,0-0.2,0.1-0.3,0.1c-0.2,0-0.3-0.1-0.3-0.3
		c0-0.1,0.1-0.2,0.2-0.3c0.1-0.1,0.3-0.1,0.5-0.2c0.4-0.1,0.7-0.1,0.9-0.1c0.1,0,0.2,0,0.3,0.1c0.1,0.1,0.1,0.2,0.1,0.2
		c0,0.1,0,0.2-0.1,0.2c-0.1,0.1-0.1,0.1-0.2,0.1c-0.1,0-0.1,0-0.1,0h-0.1c-0.1,0-0.1,0-0.2,0.1c0,0-0.1,0.1-0.1,0.2
		c0,0.9,0.1,2.2,0.2,3.8c0.1,1.7,0.2,3,0.2,3.8v0.5c0.1,0,0.1,0,0.3,0c0.4,0,0.5,0.2,0.5,0.5v0.1l-0.3,0.2c0,0,0,0-0.1,0
		c0,0-0.1,0-0.3,0c-0.3,0-0.5,0-0.5,0C171.8,138.5,171.4,138.4,171.4,138.2z"/>
	<path d="M175.3,138.6c-0.1,0-0.2-0.2-0.2-0.4v-7.6c0-0.1,0-0.4-0.1-0.7c-0.1-0.3-0.1-0.5-0.1-0.7v0c0.1-0.2,0.3-0.4,0.3-0.5
		c0.1,0,0.3,0,0.5-0.1c0.2,0,0.3-0.1,0.5-0.1c0.1,0,0.3,0,0.4,0.1c0.1,0.1,0.2,0.2,0.2,0.3c0,0.3-0.2,0.4-0.6,0.4h-0.2
		c-0.1,0-0.1,0-0.2,0c-0.1,0-0.1,0-0.1,0c0,0.3,0,0.6,0.1,1.1l0,0.4l0,0.7c0,0.2,0,0.4,0,0.8l0,0.7l0.2,0c0.2-0.1,0.3-0.1,0.4-0.1
		c0.1,0,0.2,0,0.3,0.1c0.1,0.1,0.1,0.2,0.1,0.3c0,0.1,0,0.2-0.1,0.3c-0.1,0.1-0.1,0.1-0.2,0.1l-0.2,0h-0.2c-0.1,0-0.2,0-0.3,0.1v4
		l0.7,0c0.5,0,0.7,0.1,0.7,0.3v0.1c-0.1,0.1-0.1,0.2-0.3,0.3c-0.1,0.1-0.3,0.1-0.4,0.1l-0.4,0h-0.4
		C175.6,138.6,175.5,138.6,175.3,138.6z"/>
	<path d="M180.8,136.1c-0.6-2.1-1.1-4-1.6-5.8v4.3c0,0.4,0,1,0.1,1.9c0.1,1,0.1,1.6,0.1,1.8c0,0.1,0,0.1-0.1,0.2
		c-0.1,0.1-0.2,0.1-0.3,0.1c-0.2,0-0.3-0.1-0.3-0.2l0-0.4c0-0.3,0-0.5,0-0.5c0-0.5,0-1.2-0.1-2.2c-0.1-1-0.1-1.6-0.1-1.8v-1.7
		c0-0.3,0-0.7,0-1.2c0-0.5,0.1-0.9,0.1-1.2v-0.1c0-0.4,0.1-0.7,0.3-0.7c0.1,0,0.3,0.2,0.4,0.6c0.3,0.6,0.7,1.7,1.1,3.4
		c0.3,0.9,0.5,2.1,0.9,3.6c0,0,0.1,0.3,0.2,0.9l0,0.1c0-0.8,0-1.6,0-2.3l0-2.3v-3.8c0-0.2,0.2-0.3,0.4-0.3c0.2,0,0.4,0.2,0.4,0.5
		v0.1c-0.1,0.1-0.1,0.2-0.1,0.4c0,0.5,0,1.3,0,2.4c0,1.1,0,1.9,0,2.4v4c0,0.1,0,0.3-0.1,0.4c-0.1,0.1-0.2,0.2-0.3,0.2
		C181.7,138.8,181.3,137.9,180.8,136.1z"/>
	<path d="M184.7,138.5c-0.1-0.1-0.1-0.3-0.1-0.5c0-0.3,0-0.6,0.1-1.1l0-0.3l0-0.7c0-0.3,0-1-0.1-2c-0.1-1-0.1-1.7-0.1-2
		c0,0,0-0.1,0-0.1c0-0.1,0-0.2,0-0.3c0-0.2,0-0.4,0-0.6c0-0.6,0-1-0.1-1.2c-0.1,0-0.2,0-0.3,0l-0.4,0c-0.1,0-0.2,0-0.3-0.1
		c-0.1-0.1-0.1-0.1-0.1-0.3c0-0.1,0.1-0.2,0.3-0.3c0.3-0.1,0.8-0.2,1.5-0.2c0.3,0,0.5,0,0.5,0c0.1,0,0.2,0,0.3,0.1
		c0.1,0.1,0.1,0.2,0.1,0.3s0,0.2-0.1,0.3c-0.1,0.1-0.2,0.1-0.3,0.1l-0.2,0c-0.1,0-0.1,0-0.2,0h-0.1c0.1,0.6,0.1,1.1,0.1,1.6l0,0.8
		c0,0.3,0,0.5,0,0.8c0,0.4,0,0.9,0.1,1.5c0,0.7,0.1,1.2,0.1,1.5c0,0.3,0,0.7,0.1,1.2c0,0.5,0.1,0.8,0.1,1.2c0,0.4-0.1,0.6-0.4,0.6
		C184.8,138.6,184.7,138.6,184.7,138.5z"/>
	<path d="M188.5,138.7c-0.2-0.2-0.4-0.4-0.5-0.6c-0.3-0.5-0.4-1.1-0.6-1.9c-0.1-0.6-0.2-1.2-0.2-1.9l0-0.7v-0.7c0-0.2,0-0.5,0-0.8
		c0-0.5,0-1,0.1-1.4c0-0.4,0.1-0.8,0.3-1.2c0.1-0.4,0.3-0.6,0.6-0.8c0.2-0.1,0.3-0.1,0.5-0.1c0.5,0,0.8,0.2,1.1,0.5
		c0.3,0.4,0.5,0.9,0.6,1.4c0.1,0.6,0.2,1.2,0.2,1.7c0,0.6,0.1,1.2,0.1,1.7v0.7c0,0.1,0,0.4-0.1,0.8c0,0.3-0.1,0.6-0.1,0.8v0.1
		c-0.1,0.2-0.1,0.5-0.1,0.9c0,0.2-0.1,0.5-0.2,0.8c-0.1,0.3-0.3,0.5-0.4,0.7c-0.2,0.2-0.4,0.3-0.7,0.3
		C188.9,138.9,188.7,138.8,188.5,138.7z M189.6,137.7c0.1-0.3,0.2-0.6,0.2-1c0-0.4,0.1-0.9,0.1-1.4c0-0.2,0-0.5,0-0.9l0-1.2
		c0-0.5-0.1-1.1-0.2-1.8c-0.1-0.6-0.2-1.1-0.4-1.6c-0.1-0.2-0.2-0.4-0.3-0.5s-0.3-0.2-0.4-0.2c-0.2,0-0.4,0.2-0.5,0.5
		c-0.1,0.4-0.2,0.7-0.3,1.2c-0.1,0.5-0.1,0.9-0.1,1.3l0,0.4c0,0.1,0,0.3,0,0.5v0.1c0,0.6,0.1,1.3,0.2,2.1c0.1,1.2,0.3,2,0.6,2.5
		c0.2,0.3,0.4,0.5,0.5,0.5C189.3,138.2,189.5,138,189.6,137.7z"/>
</g>
</svg>
