<?xml version="1.0" encoding="UTF-8"?>
<svg width="626px" height="231px" viewBox="0 0 626 231" version="1.1" xmlns="http://www.w3.org/2000/svg" xmlns:xlink="http://www.w3.org/1999/xlink">
    <!-- Generator: Sketch 50 (54983) - http://www.bohemiancoding.com/sketch -->
    <title>Group</title>
    <desc>Created with Sketch.</desc>
    <defs></defs>
    <g id="Page-1" stroke="none" stroke-width="1" fill="none" fill-rule="evenodd">
        <g id="Group" transform="translate(-5.000000, -6.000000)">
            <circle id="Oval" stroke="#0090CF" stroke-width="5" cx="45.44" cy="158.25" r="37.25"></circle>
            <path d="M53.7717221,151.540315 C51.0300479,151.525282 48.3966303,152.609261 46.46,154.55 L45.46,155.55 L44.46,154.55 C40.4531741,150.540413 33.9545873,150.538174 29.945,154.545 C25.9354127,158.551826 25.9331741,165.050413 29.94,169.06 L42.77,181.89 C44.2535323,183.37132 46.6564677,183.37132 48.14,181.89 L60.89,169.15 C64.8885292,165.161157 64.9596606,158.705985 61.05,154.63 C59.1347685,152.668141 56.5133962,151.555348 53.7717221,151.540315 Z M46.8,180.55 C46.0553916,181.2885 44.8546084,181.2885 44.11,180.55 L31.29,167.72 C29.176774,165.60856 28.3505124,162.530117 29.1224597,159.64429 C29.8944071,156.758463 32.1472864,154.503677 35.0324597,153.72929 C37.9176331,152.954902 40.996774,153.77856 43.11,155.89 L44.11,156.89 L42.58,158.42 C42.2304236,158.802109 42.2304236,159.387891 42.58,159.77 C42.7618906,159.940337 43.0008263,160.036625 43.25,160.04 C43.5022782,160.042481 43.7445059,159.941252 43.92,159.76 L47.8,155.88 C49.3784627,154.298249 51.5250689,153.415184 53.7596397,153.42834 C55.9942106,153.441496 58.1302705,154.349774 59.69,155.95 C62.8824913,159.278946 62.815732,164.55293 59.54,167.8 L46.8,180.55 Z" id="Shape" fill="#0090CF" fill-rule="nonzero"></path>
            <path d="M60.63,161.38 C60.525624,159.69429 59.8152965,158.103156 58.63,156.9 C57.794632,156.06507 56.7631472,155.453055 55.63,155.12 C55.12828,154.989135 54.6143014,155.284737 54.4751042,155.784209 C54.335907,156.283682 54.6229135,156.802509 55.12,156.95 C57.182732,157.531308 58.6539162,159.351247 58.79,161.49 C58.8028487,161.741271 58.9158919,161.976903 59.1038357,162.144173 C59.2917796,162.311443 59.5389351,162.396388 59.79,162.38 C60.2936498,162.327344 60.6650682,161.885179 60.63,161.38 Z" id="Shape" fill="#0090CF" fill-rule="nonzero"></path>
            <circle id="Oval" stroke="#0090CF" stroke-width="2" cx="45.21" cy="142.81" r="6.54"></circle>
            <text id="MAPEAR" fill="#0090CF" font-family="AmaticSC-Bold, Amatic SC" font-size="28" font-weight="bold">
                <tspan x="13.888" y="31">MAPEAR</tspan>
            </text>
            <circle id="Oval" stroke="#1F8174" stroke-width="5" cx="172.44" cy="94.25" r="37.25"></circle>
            <text id="BOCETEAR" fill="#1F8174" font-family="AmaticSC-Bold, Amatic SC" font-size="28" font-weight="bold">
                <tspan x="143.018" y="236">BOCETEAR</tspan>
            </text>
            <path d="M183.19,75.9 C181.625043,74.4903014 179.782132,73.4240701 177.78,72.77 C173.53503,71.3832096 168.89615,71.9189839 165.079062,74.2369133 C161.261974,76.5548428 158.647204,80.4238532 157.92,84.83 C157.010639,90.4398715 159.296134,96.0900148 163.85,99.49 C164.52016,99.9935832 164.916084,100.781731 164.92,101.62 L164.92,109.84 C164.91981,111.046385 165.700422,112.114165 166.85,112.48 C167.247441,115.638789 169.942403,118.002522 173.126047,117.98468 C176.309691,117.966837 178.977989,115.573045 179.34,112.41 C180.390856,111.987889 181.08231,110.972439 181.09,109.84 L181.09,101.62 C181.086844,100.782376 181.479891,99.9925721 182.15,99.49 C184.015613,98.0954631 185.537722,96.2928751 186.6,94.22 C187.705148,92.0740607 188.277924,89.6937823 188.27,87.28 C188.269556,82.9373842 186.422555,78.7998108 183.19,75.9 Z M170.31,90.82 C172.005561,91.6724161 174.004439,91.6724161 175.7,90.82 L175.7,103.09 L170.31,103.09 L170.31,90.82 Z M170.52,88.82 L173,83.9 L175.48,88.85 C174.003198,89.9304917 171.996802,89.9304917 170.52,88.85 L170.52,88.82 Z M169.41,104.82 L179.29,104.82 L179.29,107 L166.71,107 L166.71,104.93 L169.41,104.82 Z M166.71,108.69 L179.290019,108.69 L179.29,109.78 C179.293106,110.292032 178.908935,110.723685 178.4,110.78 L167.69,110.78 C167.137715,110.78 166.69,110.332285 166.69,109.78 L166.69,108.69 L166.71,108.69 Z M173.09,116.14 C171.900074,116.147849 170.757248,115.675577 169.92,114.83 C169.289481,114.21141 168.860722,113.416638 168.69,112.55 L177.49,112.55 C177.08744,114.663822 175.241807,116.194859 173.09,116.2 L173.09,116.14 Z M181.09,98 C179.971935,98.8424616 179.31313,100.160071 179.31,101.56 L179.31,103.03 L177.51,103.03 L177.51,89 C177.514856,88.9769193 177.514856,88.9530807 177.51,88.93 C177.504073,88.9070431 177.504073,88.8829569 177.51,88.86 L177.51,88.79 L173.93,81.62 C173.795458,81.2271253 173.414401,80.9730873 173,81 C172.661909,80.9981211 172.351948,81.1879717 172.2,81.49 L168.61,88.66 L168.61,88.73 C168.611277,88.7533159 168.611277,88.7766841 168.61,88.8 C168.61,88.8 168.61,88.85 168.61,88.87 C168.605147,88.8998037 168.605147,88.9301963 168.61,88.96 L168.61,102.96 L166.81,102.96 L166.81,101.49 C166.810004,100.086552 166.150871,98.7645809 165.03,97.92 C160.606669,94.6181417 158.647597,88.9503425 160.087816,83.6217504 C161.528036,78.2931583 166.075588,74.383979 171.56,73.76 C175.378629,73.3636852 179.182885,74.6317705 182,77.24 C185.010603,79.9319276 186.653381,83.833421 186.475096,87.8680734 C186.296812,91.9027259 184.316309,95.6441127 181.08,98.06 L181.09,98 Z" id="Shape" fill="#1F8174" fill-rule="nonzero"></path>
            <path d="M180.79,78.57 C180.417675,78.2605244 179.867238,78.3010503 179.544252,78.661718 C179.221266,79.0223858 179.24148,79.5739422 179.59,79.91 C181.681652,81.789341 182.877451,84.4680744 182.88,87.28 C182.88,87.7770563 183.282944,88.18 183.78,88.18 C184.277056,88.18 184.68,87.7770563 184.68,87.28 C184.675721,83.9567045 183.261963,80.7911957 180.79,78.57 Z" id="Shape" fill="#1F8174" fill-rule="nonzero"></path>
            <circle id="Oval" stroke="#FF6F4A" stroke-width="5" cx="313.09" cy="158.25" r="37.25"></circle>
            <path d="M298.63,157.88 L296.23,157.88 L294,154.21 C293.853979,153.980903 293.601671,153.841569 293.33,153.84 L286.42,153.84 C286.211387,153.839983 286.01146,153.923532 285.864891,154.071981 C285.718322,154.220429 285.637325,154.421404 285.64,154.63 C285.64096,154.77383 285.678836,154.915005 285.75,155.04 L288.02,158.69 L285.75,162.33 C285.526198,162.700442 285.642128,163.181998 286.01,163.41 C286.131643,163.489989 286.274425,163.531779 286.42,163.53 L293.33,163.53 C293.601671,163.528431 293.853979,163.389097 294,163.16 L296.3,159.44 L298.67,159.44 C299.093808,168.667115 306.807789,175.867483 316.042199,175.655524 C325.276609,175.443564 332.652096,167.896842 332.652096,158.66 C332.652096,149.423158 325.276609,141.876436 316.042199,141.664476 C306.807789,141.452517 299.093808,148.652885 298.67,157.88 L298.63,157.88 Z M292.85,155.41 L294.39,157.88 L289.32,157.88 L287.78,155.41 L292.85,155.41 Z M292.85,161.96 L287.78,161.96 L289.32,159.49 L294.38,159.49 L292.85,161.96 Z M315.6,143.24 C324.017447,143.228941 330.888475,149.970251 331.037831,158.38638 C331.187188,166.802509 324.559679,173.783369 316.14714,174.070983 C307.734601,174.358596 300.645793,167.846678 300.22,159.44 L303.42,159.44 C303.841078,166.018025 309.407138,171.07441 315.99526,170.863764 C322.583381,170.653117 327.815061,165.251488 327.815061,158.66 C327.815061,152.068512 322.583381,146.666883 315.99526,146.456236 C309.407138,146.24559 303.841078,151.301975 303.42,157.88 L300.22,157.88 C300.635044,149.685264 307.394768,143.250781 315.6,143.24 Z M308.19,159.44 C308.604892,163.380974 312.032288,166.307489 315.989592,166.099757 C319.946897,165.892025 323.049055,162.622753 323.049055,158.66 C323.049055,154.697247 319.946897,151.427975 315.989592,151.220243 C312.032288,151.012511 308.604892,153.939026 308.19,157.88 L305,157.88 C305.41967,152.159888 310.290045,147.79717 316.021687,148.007146 C321.753328,148.217122 326.291425,152.924514 326.291425,158.66 C326.291425,164.395486 321.753328,169.102878 316.021687,169.312854 C310.290045,169.52283 305.41967,165.160112 305,159.44 L308.19,159.44 Z M313.05,159.44 C313.436629,160.716089 314.699715,161.516376 316.018689,161.320951 C317.337664,161.125526 318.314432,159.993373 318.314432,158.66 C318.314432,157.326627 317.337664,156.194474 316.018689,155.999049 C314.699715,155.803624 313.436629,156.603911 313.05,157.88 L309.77,157.88 C310.18069,154.80608 312.904589,152.577185 315.998986,152.782983 C319.093384,152.988782 321.498125,155.558767 321.498125,158.66 C321.498125,161.761233 319.093384,164.331218 315.998986,164.537017 C312.904589,164.742815 310.18069,162.51392 309.77,159.44 L313.05,159.44 Z M315.61,157.88 L314.8,157.88 C315.008932,157.665578 315.295619,157.544645 315.595,157.544645 C315.894381,157.544645 316.181068,157.665578 316.39,157.88 C316.603846,158.087198 316.724559,158.372239 316.724559,158.67 C316.724559,158.967761 316.603846,159.252802 316.39,159.46 C316.179717,159.671907 315.893536,159.791093 315.595,159.791093 C315.296464,159.791093 315.010283,159.671907 314.8,159.46 L315.6,159.46 C316.030782,159.46 316.38,159.110782 316.38,158.68 C316.38,158.249218 316.030782,157.9 315.6,157.9 L315.61,157.88 Z" id="Shape" fill="#FF6F4A" fill-rule="nonzero"></path>
            <text id="DECIDIR" fill="#FF6F4A" font-family="AmaticSC-Bold, Amatic SC" font-size="28" font-weight="bold">
                <tspan x="285.536" y="31">DECIDIR</tspan>
            </text>
            <path d="M88,169 C88,169 90,154.11 108,135 C118.26,124.1 126.47,118.95 131,116.67" id="Shape" stroke="#99ABB2" stroke-width="2" stroke-dasharray="2"></path>
            <polygon id="Shape" fill="#99ABB2" fill-rule="nonzero" points="131.44 119.81 135 115 129.06 114.31"></polygon>
            <text id="PROTOTIPAR" fill="#FFD41C" font-family="AmaticSC-Bold, Amatic SC" font-size="28" font-weight="bold">
                <tspan x="419" y="234">PROTOTIPAR</tspan>
            </text>
            <circle id="Oval" stroke="#FFD41C" stroke-width="5" cx="445.18" cy="83.25" r="37.25"></circle>
            <path d="M430.75,65.77 C429.875059,65.7735534 429.087843,66.302211 428.753498,67.1107574 C428.419153,67.9193039 428.603094,68.8495478 429.22,69.47 C429.623885,69.8793655 430.174932,70.1098689 430.75,70.11 C431.626436,70.1048285 432.414555,69.5752847 432.750567,68.7658013 C433.086579,67.9563178 432.90514,67.0243163 432.29,66.4 C431.878936,65.9964929 431.326014,65.7702975 430.75,65.77 Z M431.26,68.45 C431.124613,68.584919 430.941135,68.6604687 430.75,68.66 C430.559498,68.6573181 430.377156,68.5822363 430.24,68.45 C429.970764,68.1710325 429.970764,67.7289675 430.24,67.45 C430.374754,67.3141324 430.558647,67.2384119 430.75,67.24 C430.942031,67.2348197 431.127294,67.3111045 431.26,67.45 C431.534556,67.7267978 431.534556,68.1732022 431.26,68.45 Z" id="Shape" fill="#FFD41C" fill-rule="nonzero"></path>
            <path d="M461.13,98.32 C461.537308,97.9129991 461.766157,97.3608032 461.766157,96.785 C461.766157,96.2091968 461.537308,95.6570009 461.13,95.25 C460.283584,94.408441 458.916416,94.408441 458.07,95.25 C457.662692,95.6570009 457.433843,96.2091968 457.433843,96.785 C457.433843,97.3608032 457.662692,97.9129991 458.07,98.32 C458.916416,99.161559 460.283584,99.161559 461.13,98.32 Z M459.13,96.32 C459.408968,96.0507645 459.851032,96.0507645 460.13,96.32 C460.33368,96.5285114 460.393797,96.8382025 460.282925,97.1077755 C460.172052,97.3773485 459.911442,97.5551275 459.62,97.56 C459.429498,97.5573181 459.247156,97.4822363 459.11,97.35 C458.850703,97.0670929 458.850703,96.6329071 459.11,96.35 L459.13,96.32 Z" id="Shape" fill="#FFD41C" fill-rule="nonzero"></path>
            <path d="M434.79,81.85 C434.924754,81.9858676 435.108647,82.0615881 435.3,82.06 C435.591762,82.0607172 435.855115,81.8852869 435.966864,81.615773 C436.078614,81.3462591 436.016666,81.0359483 435.81,80.83 L424.28,69.3 L432.11,61.47 L437.22,66.57 L435,68.79 C434.793334,68.9959483 434.731386,69.3062591 434.843136,69.575773 C434.954885,69.8452869 435.218238,70.0207172 435.51,70.02 C435.701353,70.0215881 435.885246,69.9458676 436.02,69.81 L438.24,67.6 L440.17,69.53 L438,71.74 C437.79512,71.9498195 437.735687,72.2618735 437.849097,72.5323141 C437.962508,72.8027547 438.226744,72.9790764 438.52,72.98 C438.713065,72.9801352 438.897613,72.9005262 439.03,72.76 L441.24,70.55 L443.17,72.48 L440.96,74.7 C440.690764,74.9789675 440.690764,75.4210325 440.96,75.7 C441.094754,75.8358676 441.278647,75.9115881 441.47,75.91 C441.66092,75.909385 441.844002,75.8339984 441.98,75.7 L444.71,72.97 C444.979236,72.6910325 444.979236,72.2489675 444.71,71.97 L432.71,59.97 C432.427093,59.710703 431.992907,59.710703 431.71,59.97 L422.86,68.83 C422.590764,69.1089675 422.590764,69.5510325 422.86,69.83 L434.79,81.85 Z" id="Shape" fill="#FFD41C" fill-rule="nonzero"></path>
            <path d="M455.56,82.87 C455.281032,82.6007645 454.838968,82.6007645 454.56,82.87 L451.84,85.6 C451.570764,85.8789675 451.570764,86.3210325 451.84,86.6 C451.974754,86.7358676 452.158647,86.8115881 452.35,86.81 C452.54092,86.809385 452.724002,86.7339984 452.86,86.6 L455.07,84.38 L457.01,86.32 L454.79,88.53 C454.583334,88.7359483 454.521386,89.0462591 454.633136,89.315773 C454.744885,89.5852869 455.008238,89.7607172 455.3,89.76 C455.491353,89.7615881 455.675246,89.6858676 455.81,89.55 L458.03,87.34 L459.96,89.27 L457.75,91.48 C457.480764,91.7589675 457.480764,92.2010325 457.75,92.48 C457.884754,92.6158676 458.068647,92.6915881 458.26,92.69 C458.45092,92.689385 458.634002,92.6139984 458.77,92.48 L460.98,90.26 L466.09,95.37 L458.26,103.21 L446.73,91.68 C446.451032,91.4107645 446.008968,91.4107645 445.73,91.68 C445.455444,91.9567978 445.455444,92.4032022 445.73,92.68 L457.73,104.68 C457.864754,104.815868 458.048647,104.891588 458.24,104.89 C458.43092,104.889385 458.614002,104.813998 458.75,104.68 L467.6,95.82 C467.874556,95.5432022 467.874556,95.0967978 467.6,94.82 L455.56,82.87 Z" id="Shape" fill="#FFD41C" fill-rule="nonzero"></path>
            <path d="M460.82,74.56 L466.76,68.56 C468.167407,67.1473901 468.167407,64.8626099 466.76,63.45 L464,60.78 C462.58739,59.3725925 460.30261,59.3725925 458.89,60.78 L457.52,62.14 C457.250764,62.4189675 457.250764,62.8610325 457.52,63.14 C457.802907,63.399297 458.237093,63.399297 458.52,63.14 L460,61.8 C460.403967,61.3908169 460.955004,61.1604966 461.53,61.1604966 C462.104996,61.1604966 462.656033,61.3908169 463.06,61.8 L465.79,64.52 C466.62732,65.3720536 466.62732,66.7379464 465.79,67.59 L462.89,70.48 L456.59,64.18 C456.311032,63.9107645 455.868968,63.9107645 455.59,64.18 L453,66.72 L427.54,92.19 C427.478972,92.2492821 427.43125,92.3208656 427.4,92.4 L424.62,99.16 L422.62,103.98 C422.509941,104.251579 422.572942,104.562648 422.78,104.77 C422.914754,104.905868 423.098647,104.981588 423.29,104.98 C423.38219,104.978821 423.473501,104.961911 423.56,104.93 L428.38,102.93 L435.14,100.15 C435.215632,100.11239 435.286194,100.065348 435.35,100.01 L460.82,74.56 Z M435.09,98.24 C434.891385,97.9057656 434.652979,97.5968449 434.38,97.32 C433.826889,96.7642521 433.137043,96.3641409 432.38,96.16 L451.26,77.28 C451.50004,77.117232 451.618988,76.8263334 451.561761,76.5420136 C451.504534,76.2576938 451.282306,76.0354659 450.997986,75.9782391 C450.713667,75.9210122 450.422768,76.03996 450.26,76.28 L431.38,95.16 C431.174119,94.4036831 430.774254,93.7142608 430.22,93.16 C429.945764,92.8840492 429.636448,92.6453383 429.3,92.45 L453.49,68.25 L455.88,70.64 L452.98,73.53 C452.710764,73.8089675 452.710764,74.2510325 452.98,74.53 C453.112387,74.6705262 453.296935,74.7501352 453.49,74.75 C453.683565,74.7526032 453.869065,74.6725838 454,74.53 L456.9,71.64 L459.28,74.02 L435.09,98.24 Z M428.25,101.44 L426.1,99.28 L428.43,93.62 C428.71351,93.7618047 428.970576,93.9512216 429.19,94.18 C429.862236,94.8176716 430.179738,95.744031 430.04,96.66 C429.996375,96.8934649 430.070691,97.133425 430.238633,97.301367 C430.406575,97.469309 430.646535,97.5436252 430.88,97.5 C431.794128,97.3594824 432.719423,97.6728889 433.36,98.34 C433.583678,98.5675947 433.772395,98.8270797 433.92,99.11 L428.25,101.44 Z M456,65.72 L461.79,71.51 L460.31,73 L454.51,67.21 L456,65.72 Z M425.47,100.72 L426.78,102.03 L424.56,102.94 L425.47,100.72 Z" id="Shape" fill="#FFD41C" fill-rule="nonzero"></path>
            <text id="VALIDAR" fill="#BA1965" font-family="AmaticSC-Bold, Amatic SC" font-size="28" font-weight="bold">
                <tspan x="561.41" y="28">VALIDAR</tspan>
            </text>
            <circle id="Oval" stroke="#BA1965" stroke-width="5" cx="590.36" cy="139.25" r="37.25"></circle>
            <path d="M603.19,127.11 C602.797878,127.11 602.48,127.427878 602.48,127.82 L602.48,159.52 L577.52,159.52 C577.133401,159.52 576.82,159.833401 576.82,160.22 C576.817323,160.407378 576.889889,160.588006 577.021456,160.721452 C577.153023,160.854898 577.332603,160.930019 577.52,160.93 L602.43,160.93 C603.236336,160.93 603.89,160.276336 603.89,159.47 L603.89,127.77 C603.868772,127.399104 603.561502,127.109393 603.19,127.11 Z" id="Shape" fill="#BA1965" fill-rule="nonzero"></path>
            <path d="M607.72,118.81 L601.21,118.81 L598.84,116.44 C598.429202,116.021427 597.866471,115.786956 597.28,115.79 L573,115.79 C572.192031,115.789981 571.535496,116.442049 571.53,117.25 L571.53,159.52 C571.524615,159.91241 571.677434,160.290465 571.953993,160.568906 C572.230552,160.847346 572.607563,161.002725 573,161 L574.55,161 L574.55,162.56 C574.566104,163.352405 575.207503,163.98938 576,164 L607.71,164 C608.514067,163.994549 609.164549,163.344067 609.17,162.54 L609.17,120.27 C609.16463,119.469785 608.520159,118.82087 607.72,118.81 Z M597.85,117.45 L604.5,124.09 L597.9,124.09 C597.9,124.09 597.9,124.09 597.9,124.09 L597.9,117.49 L597.85,117.45 Z M607.76,162.54 L576,162.54 L576,161 L576.8,161 C576.988304,161 577.168895,160.925197 577.302046,160.792046 C577.435197,160.658895 577.51,160.478304 577.51,160.29 C577.510019,160.102603 577.434898,159.923023 577.301452,159.791456 C577.168006,159.659889 576.987378,159.587323 576.8,159.59 L573,159.59 L573,117.25 C572.991068,117.23453 572.991068,117.21547 573,117.2 L596.44,117.2 L596.44,124.05 C596.445451,124.854067 597.095933,125.504549 597.9,125.51 L605.45,125.51 C605.842122,125.51 606.16,125.192122 606.16,124.8 L606.16,124.67 C606.161223,124.080955 605.92724,123.515796 605.51,123.1 L602.63,120.22 L607.72,120.22 C607.72,120.22 607.72,120.22 607.72,120.27 L607.76,162.54 Z" id="Shape" fill="#BA1965" fill-rule="nonzero"></path>
            <path d="M575.25,126.31 L575.25,130.84 C575.255451,131.644067 575.905933,132.294549 576.71,132.3 L581.24,132.3 C582.046336,132.3 582.7,131.646336 582.7,130.84 L582.7,126.16 L584.01,124.86 C584.279236,124.581032 584.279236,124.138968 584.01,123.86 C583.878338,123.725623 583.698128,123.649898 583.51,123.649898 C583.321872,123.649898 583.141662,123.725623 583.01,123.86 L579.01,127.86 L577.42,126.27 L578.65,126.27 C579.036599,126.27 579.35,125.956599 579.35,125.57 C579.352677,125.382622 579.280111,125.201994 579.148544,125.068548 C579.016977,124.935102 578.837397,124.859981 578.65,124.86 L576.78,124.86 C576.562294,124.860081 576.34725,124.907869 576.15,125 L575.77,124.62 C575.487907,124.384754 575.072959,124.403504 574.813231,124.663231 C574.553504,124.922959 574.534754,125.337907 574.77,125.62 L575.33,126.18 C575.33,126.18 575.25,126.26 575.25,126.31 Z M578.98,129.31 C579.356986,129.304101 579.716388,129.149558 579.98,128.88 L581.26,127.6 L581.26,130.87 L576.73,130.87 L576.73,127.6 L578.01,128.88 C578.274803,129.137959 578.630323,129.281604 579,129.28 L578.98,129.31 Z" id="Shape" fill="#BA1965" fill-rule="nonzero"></path>
            <path d="M581.62,134.66 L577.09,134.66 C576.285933,134.665451 575.635451,135.315933 575.63,136.12 L575.63,140.65 C575.63,141.037216 575.783821,141.408573 576.057624,141.682376 C576.331427,141.956179 576.702784,142.11 577.09,142.11 L581.62,142.11 C582.007216,142.11 582.378573,141.956179 582.652376,141.682376 C582.926179,141.408573 583.08,141.037216 583.08,140.65 L583.08,136.12 C583.08,135.313664 582.426336,134.66 581.62,134.66 Z M581.62,140.66 L577.09,140.66 L577.09,136.13 C577.09,136.116739 577.095268,136.104021 577.104645,136.094645 C577.114021,136.085268 577.126739,136.08 577.14,136.08 L581.67,136.08 C581.678932,136.09547 581.678932,136.11453 581.67,136.13 L581.62,140.66 Z" id="Shape" fill="#BA1965" fill-rule="nonzero"></path>
            <path d="M583.08,150.46 L583.08,145.93 C583.08,145.123664 582.426336,144.47 581.62,144.47 L577.09,144.47 C576.285933,144.475451 575.635451,145.125933 575.63,145.93 L575.63,150.46 C575.63,151.266336 576.283664,151.92 577.09,151.92 L581.62,151.92 C582.426336,151.92 583.08,151.266336 583.08,150.46 Z M577.08,150.46 L577.08,145.93 L581.61,145.93 L581.61,150.46 L577.08,150.46 Z" id="Shape" fill="#BA1965" fill-rule="nonzero"></path>
            <path d="M586.94,127.77 L593.73,127.77 C594.122122,127.77 594.44,127.452122 594.44,127.06 C594.440019,126.872603 594.364898,126.693023 594.231452,126.561456 C594.098006,126.429889 593.917378,126.357323 593.73,126.36 L586.94,126.36 C586.752622,126.357323 586.571994,126.429889 586.438548,126.561456 C586.305102,126.693023 586.229981,126.872603 586.23,127.06 C586.23,127.248304 586.304803,127.428895 586.437954,127.562046 C586.571105,127.695197 586.751696,127.77 586.94,127.77 Z" id="Shape" fill="#BA1965" fill-rule="nonzero"></path>
            <path d="M586.94,130.79 L599.77,130.79 C599.958304,130.79 600.138895,130.715197 600.272046,130.582046 C600.405197,130.448895 600.48,130.268304 600.48,130.08 C600.480019,129.892603 600.404898,129.713023 600.271452,129.581456 C600.138006,129.449889 599.957378,129.377323 599.77,129.38 L586.94,129.38 C586.752622,129.377323 586.571994,129.449889 586.438548,129.581456 C586.305102,129.713023 586.229981,129.892603 586.23,130.08 C586.23,130.268304 586.304803,130.448895 586.437954,130.582046 C586.571105,130.715197 586.751696,130.79 586.94,130.79 Z" id="Shape" fill="#BA1965" fill-rule="nonzero"></path>
            <path d="M586.94,137.58 L593.73,137.58 C593.917378,137.582677 594.098006,137.510111 594.231452,137.378544 C594.364898,137.246977 594.440019,137.067397 594.44,136.88 C594.44,136.691696 594.365197,136.511105 594.232046,136.377954 C594.098895,136.244803 593.918304,136.17 593.73,136.17 L586.94,136.17 C586.751696,136.17 586.571105,136.244803 586.437954,136.377954 C586.304803,136.511105 586.23,136.691696 586.23,136.88 C586.229981,137.067397 586.305102,137.246977 586.438548,137.378544 C586.571994,137.510111 586.752622,137.582677 586.94,137.58 Z" id="Shape" fill="#BA1965" fill-rule="nonzero"></path>
            <path d="M586.94,140.6 L599.77,140.6 C599.957378,140.602677 600.138006,140.530111 600.271452,140.398544 C600.404898,140.266977 600.480019,140.087397 600.48,139.9 C600.48,139.711696 600.405197,139.531105 600.272046,139.397954 C600.138895,139.264803 599.958304,139.19 599.77,139.19 L586.94,139.19 C586.751696,139.19 586.571105,139.264803 586.437954,139.397954 C586.304803,139.531105 586.23,139.711696 586.23,139.9 C586.229981,140.087397 586.305102,140.266977 586.438548,140.398544 C586.571994,140.530111 586.752622,140.602677 586.94,140.6 Z" id="Shape" fill="#BA1965" fill-rule="nonzero"></path>
            <path d="M586.94,147.4 L593.73,147.4 C593.983659,147.4 594.218049,147.264675 594.344878,147.045 C594.471707,146.825325 594.471707,146.554675 594.344878,146.335 C594.218049,146.115325 593.983659,145.98 593.73,145.98 L586.94,145.98 C586.547878,145.98 586.23,146.297878 586.23,146.69 C586.23,147.082122 586.547878,147.4 586.94,147.4 Z" id="Shape" fill="#BA1965" fill-rule="nonzero"></path>
            <path d="M586.94,150.41 L599.77,150.41 C599.957378,150.412677 600.138006,150.340111 600.271452,150.208544 C600.404898,150.076977 600.480019,149.897397 600.48,149.71 C600.48,149.521696 600.405197,149.341105 600.272046,149.207954 C600.138895,149.074803 599.958304,149 599.77,149 L586.94,149 C586.751696,149 586.571105,149.074803 586.437954,149.207954 C586.304803,149.341105 586.23,149.521696 586.23,149.71 C586.229981,149.897397 586.305102,150.076977 586.438548,150.208544 C586.571994,150.340111 586.752622,150.412677 586.94,150.41 Z" id="Shape" fill="#BA1965" fill-rule="nonzero"></path>
            <path d="M45.44,113 L45.44,73" id="Shape" stroke="#0090CF"></path>
            <circle id="Oval" stroke="#0090CF" cx="45.5" cy="70.5" r="3"></circle>
            <path d="M312.44,112 L312.44,72" id="Shape" stroke="#FF6F4A"></path>
            <circle id="Oval" stroke="#FF6F4A" cx="312.5" cy="69.5" r="3"></circle>
            <path d="M172.56,142.5 L172.56,182.5" id="Shape" stroke="#1F8174"></path>
            <circle id="Oval" stroke="#1F8174" cx="172.5" cy="185" r="3"></circle>
            <path d="M446.56,130.5 L446.56,170.5" id="Shape" stroke="#FFD41C"></path>
            <circle id="Oval" stroke="#FFD41C" cx="446.5" cy="173" r="3"></circle>
            <path d="M590.44,96 L590.44,56" id="Shape" stroke="#BA1965"></path>
            <circle id="Oval" stroke="#BA1965" cx="590.5" cy="53.5" r="3"></circle>
            <path d="M215.86,96.54 C215.86,96.54 230.86,97.39 251.32,113.83 C262.99,123.21 268.76,130.99 271.39,135.37" id="Shape" stroke="#99ABB2" stroke-width="2" stroke-dasharray="2"></path>
            <polygon id="Shape" fill="#99ABB2" fill-rule="nonzero" points="268.29 136.01 273.36 139.19 273.58 133.21"></polygon>
            <path d="M356,150 C356,150 358,135.11 376,116 C386.26,105.1 394.47,99.95 399,97.67" id="Shape" stroke="#99ABB2" stroke-width="2" stroke-dasharray="2"></path>
            <polygon id="Shape" fill="#99ABB2" fill-rule="nonzero" points="399.44 100.81 403 96 397.06 95.31"></polygon>
            <path d="M488.86,80.54 C488.86,80.54 503.86,81.39 524.32,97.83 C535.99,107.21 541.76,114.99 544.39,119.37" id="Shape" stroke="#99ABB2" stroke-width="2" stroke-dasharray="2"></path>
            <polygon id="Shape" fill="#99ABB2" fill-rule="nonzero" points="541.29 120.01 546.36 123.19 546.58 117.21"></polygon>
        </g>
    </g>
</svg>