<?xml version="1.0" encoding="utf-8"?>
<!-- Generator: Adobe Illustrator 22.1.0, SVG Export Plug-In . SVG Version: 6.00 Build 0)  -->
<svg version="1.1" xmlns="http://www.w3.org/2000/svg" xmlns:xlink="http://www.w3.org/1999/xlink" x="0px" y="0px"
	 viewBox="0 0 110 110" style="enable-background:new 0 0 110 110;" xml:space="preserve">
<style type="text/css">
	.st0{clip-path:url(#SVGID_2_);}
	.st1{clip-path:url(#SVGID_4_);fill:#83B950;}
	.st2{clip-path:url(#SVGID_6_);}
	.st3{clip-path:url(#SVGID_8_);fill:#757581;}
	.st4{clip-path:url(#SVGID_10_);}
	.st5{clip-path:url(#SVGID_12_);fill:#83B950;}
	.st6{clip-path:url(#SVGID_14_);}
	.st7{clip-path:url(#SVGID_16_);fill:#757581;}
	.st8{fill:#666666;}
	.st9{clip-path:url(#SVGID_18_);}
	.st10{clip-path:url(#SVGID_20_);fill:#83B950;}
	.st11{clip-path:url(#SVGID_22_);}
	.st12{clip-path:url(#SVGID_24_);fill:#757581;}
	.st13{clip-path:url(#SVGID_26_);}
	.st14{clip-path:url(#SVGID_28_);fill:#83B950;}
	.st15{clip-path:url(#SVGID_30_);}
	.st16{clip-path:url(#SVGID_32_);fill:#757581;}
	.st17{fill:#8D5296;}
	.st18{fill:#1F1D1E;}
	.st19{clip-path:url(#SVGID_34_);}
	.st20{clip-path:url(#SVGID_36_);fill:#83B950;}
	.st21{clip-path:url(#SVGID_38_);}
	.st22{clip-path:url(#SVGID_40_);fill:#757581;}
	.st23{fill:#7BA74E;stroke:#83B950;stroke-miterlimit:10;}
	.st24{clip-path:url(#SVGID_42_);}
	.st25{clip-path:url(#SVGID_44_);fill:#83B950;}
	.st26{clip-path:url(#SVGID_46_);}
	.st27{clip-path:url(#SVGID_48_);fill:#757581;}
	.st28{fill:#83B950;}
	.st29{clip-path:url(#SVGID_50_);}
	.st30{clip-path:url(#SVGID_52_);fill:#83B950;}
	.st31{clip-path:url(#SVGID_54_);}
	.st32{clip-path:url(#SVGID_56_);fill:#757581;}
	.st33{fill:#545454;}
	.st34{clip-path:url(#SVGID_58_);}
	.st35{clip-path:url(#SVGID_60_);fill:#83B950;}
	.st36{clip-path:url(#SVGID_62_);}
	.st37{clip-path:url(#SVGID_64_);fill:#757581;}
	.st38{fill:#F9F9F9;}
	.st39{fill:none;stroke:#0090CF;stroke-width:5;stroke-miterlimit:10;}
	.st40{fill:#0090CF;}
	.st41{fill:none;stroke:#0090CF;stroke-width:2;stroke-miterlimit:10;}
	.st42{fill:none;stroke:#1F8174;stroke-width:5;stroke-miterlimit:10;}
	.st43{fill:#1F8174;}
	.st44{fill:none;stroke:#FF6F4A;stroke-width:5;stroke-miterlimit:10;}
	.st45{fill:#FF6F4A;}
	.st46{fill:none;stroke:#99ABB2;stroke-width:2;stroke-miterlimit:10;}
	.st47{fill:#FFD41C;}
	.st48{fill:none;stroke:#FFD41C;stroke-width:5;stroke-miterlimit:10;}
	.st49{fill:none;stroke:#BA1965;stroke-width:5;stroke-miterlimit:10;}
	.st50{fill:#BA1965;}
	.st51{fill:#4D4D4D;}
	.st52{fill:none;stroke:#0090CF;stroke-miterlimit:10;}
	.st53{fill:none;stroke:#FF6F4A;stroke-miterlimit:10;}
	.st54{fill:none;stroke:#1F8174;stroke-miterlimit:10;}
	.st55{fill:none;stroke:#FFD41C;stroke-miterlimit:10;}
	.st56{fill:none;stroke:#BA1965;stroke-miterlimit:10;}
	.st57{fill:none;stroke:#99ABB2;stroke-width:2;stroke-miterlimit:10;stroke-dasharray:2,2;}
	.st58{fill:#99ABB2;}
	.st59{fill:#D5E3EF;}
	.st60{fill:#B0C4D9;}
	.st61{fill:#F79548;}
	.st62{fill:#FCBB76;}
	.st63{fill:#99B4CD;}
	.st64{fill:#6C9ABB;}
	.st65{fill:#70B7E5;}
	.st66{fill:#F04B4D;}
	.st67{fill:#4C9CD6;}
	.st68{fill:#F04D4E;}
	.st69{fill:#DB343F;}
	.st70{fill:#ECF0F9;}
	.st71{fill:#F26A56;}
	.st72{fill:#6E18FF;}
	.st73{fill:none;stroke:#000000;stroke-miterlimit:10;}
	.st74{fill:none;stroke:#000000;stroke-miterlimit:10;stroke-dasharray:2.0164,2.0164;}
	.st75{fill:none;stroke:#000000;stroke-miterlimit:10;stroke-dasharray:2,2;}
	.st76{fill:none;stroke:#6E18FF;stroke-miterlimit:10;}
	.st77{fill:#464655;}
	.st78{fill:#FFFFFF;}
	.st79{fill:#BEC8DC;}
	.st80{fill:#AFBBD0;}
	.st81{fill:#96A5B9;}
	.st82{fill:#E4EAF6;}
	.st83{fill:#FF6469;}
	.st84{fill:none;stroke:#000000;stroke-miterlimit:10;stroke-dasharray:2.0247,2.0247;}
	.st85{fill:none;stroke:#6E18FF;stroke-miterlimit:10;stroke-dasharray:2.0247,2.0247;}
	.st86{fill:#F1E00F;}
	.st87{fill:#C52171;}
	.st88{fill:none;stroke:#FBFAE1;stroke-miterlimit:10;}
	.st89{fill:#4C9E81;}
	.st90{fill:#2F5B46;}
	.st91{fill:#2090BC;}
	.st92{fill:#097189;}
	.st93{fill:#33AEE1;}
	.st94{fill:none;stroke:#1F1D1E;stroke-miterlimit:10;}
	.st95{fill:#89C8E9;}
	.st96{fill:#CBE5EB;}
	.st97{fill:#E4E3B2;}
	.st98{fill:#241622;}
	.st99{fill:#662D91;}
	.st100{fill:#4E237C;}
	.st101{fill:#333233;}
	.st102{fill:#CC898E;}
	.st103{fill:#CCCCCC;}
	.st104{fill:#E4A42E;}
	.st105{fill:#D38A31;}
	.st106{fill:#BB5F77;}
	.st107{fill:#FCF7FA;}
</style>
<g id="Capa_1">
</g>
<g id="pintura">
	<g>
		<path class="st89" d="M21.9,64.9c4.6,15.3,19.5,30.2,38.6,28c5.9-0.7,11.5-3,16.5-5.9C93.9,76.9,103.3,58,98,42.1S71.9,15.3,52,19
			c-19.9,3.7-35.2,22.5-30.4,38.6"/>
	</g>
</g>
<g id="detalles">
	<path class="st90" d="M65.5,86.7c-3.3-0.4-22.4-4-29.1-20.9c-7.8-19.7,11.1-45.1,35.7-36.8C79.7,31.7,92,42,90,59
		C88.3,73.2,76.2,88,65.5,86.7z"/>
</g>
<g id="ilustracion">
	<path class="st91" d="M15,56c-1.9,0-5-1-8,1c1.3,2.7,4,7,6,9c0.1,0.1,7-2,7-2S14.8,56,15,56z"/>
	<path class="st92" d="M22,75c-0.1,0.1-5.5,2.4-7.1,3C14.3,74.7,13,67,14,67c0.2,0,7-2,7-2C20,68,22.2,74.8,22,75z"/>
	<g>
		<path class="st78" d="M54.9,57c0.4,1.2,1.5,2.3,3,2.1c0.5-0.1,0.9-0.2,1.3-0.5c1.3-0.8,2-2.2,1.6-3.4s-2-2-3.5-1.8
			c-1.5,0.3-2.7,1.7-2.3,3"/>
	</g>
	<g>
		<path class="st18" d="M82.3,19.5c3.3,3,6.6,6.1,9.5,9.5c3,3.4,5.7,7,7.6,11.1c1.9,4,3.1,8.6,2.6,13.2c-0.2,2.3-0.9,4.5-1.6,6.6
			c-0.7,2.1-1.6,4.2-2.6,6.2c-3.9,8.1-9.7,15.5-17.2,20.5c-1.9,1.2-3.9,2.3-6,3.3c-2.1,0.9-4.2,1.6-6.4,2.2c-4.4,1.1-9,1.3-13.5,0.7
			c-9-1.3-17.4-5.8-23.6-12.4c-3.1-3.3-5.7-7.1-7.5-11.2c-1.8-4.1-2.8-8.6-2.9-13.2c-0.1-4.5,0.6-9,2.1-13.3
			c0.8-2.1,1.6-4.2,2.8-6.2c1.1-2,2.4-3.8,3.9-5.5c3-3.4,6.5-6.2,10.4-8.5c3.8-2.3,8-4.1,12.4-5c-4.4,1-8.5,2.8-12.3,5.2
			c-3.8,2.4-7.2,5.3-10.1,8.7c-1.4,1.7-2.7,3.5-3.8,5.4c-1.1,1.9-1.9,4-2.7,6.1c-1.4,4.2-2.1,8.7-2,13.1c0.3,8.9,4.2,17.4,10.3,23.8
			c6.1,6.4,14.3,10.8,23.1,12C59.2,92.2,63.7,92,68,91c2.1-0.6,4.2-1.2,6.3-2.1c2-0.9,4-2,5.8-3.2c7.4-4.9,13.1-12.1,17-20.1
			c1-2,1.9-4,2.6-6.1c0.8-2.1,1.4-4.2,1.6-6.4c0.5-4.4-0.5-8.9-2.4-12.9c-1.9-4-4.5-7.7-7.3-11.1C88.8,25.7,85.6,22.5,82.3,19.5z"/>
	</g>
	<g>
		<path class="st18" d="M82.5,65.6c-1.6,2.3-3.4,4.5-5.3,6.5c-1.9,2.1-4,4-6.4,5.5c-2.4,1.5-5.1,2.6-8,2.8c-1.4,0.1-2.9,0-4.3-0.3
			c-1.4-0.2-2.8-0.6-4.1-0.9c-5.4-1.6-10.6-4.3-14.5-8.4c-2-2.1-3.5-4.5-4.6-7.2c-1.1-2.7-1.6-5.6-1.4-8.4
			c0.5-11.5,9.8-21.9,21.1-23.6c2.8-0.5,5.7-0.4,8.5,0.1c2.8,0.5,5.5,1.4,7.9,2.9c2.4,1.5,4.5,3.4,6.3,5.5c1.8,2.1,3.3,4.6,4.2,7.3
			c-1-2.6-2.5-5-4.4-7.1c-1.8-2.1-4-3.9-6.4-5.3c-2.4-1.5-5.1-2.3-7.8-2.7c-2.7-0.5-5.5-0.4-8.2,0.1c-5.4,1-10.4,3.9-14.1,8
			c-1.8,2.1-3.3,4.4-4.4,6.9c-1.1,2.5-1.7,5.2-1.8,8c-0.1,2.7,0.4,5.5,1.4,8c1,2.5,2.5,4.9,4.4,6.9c3.7,4.1,8.8,6.7,14.1,8.3
			c1.3,0.4,2.7,0.7,4,1c1.4,0.3,2.7,0.4,4.1,0.3c2.7-0.2,5.4-1.2,7.7-2.6C75.3,74.3,79.1,70,82.5,65.6z"/>
	</g>
	<g>
		<path class="st18" d="M70.1,60.8c-1.7,2.4-3.5,4.7-6,6.4c-1.2,0.8-2.7,1.4-4.2,1.5c-1.5,0.1-3-0.2-4.4-0.6
			c-2.8-0.8-5.6-2.2-7.7-4.4c-1-1.1-1.9-2.4-2.5-3.8c-0.6-1.4-0.9-3-0.8-4.5c0.3-6.1,5.2-11.6,11.2-12.5c1.5-0.2,3-0.2,4.5,0.1
			c1.5,0.3,2.9,0.7,4.2,1.6c1.3,0.8,2.4,1.8,3.3,2.9c0.9,1.1,1.7,2.4,2.1,3.8c-1.1-2.7-3.2-4.9-5.6-6.4c-1.2-0.7-2.6-1.1-4-1.4
			c-1.4-0.2-2.8-0.2-4.2,0.1c-2.8,0.5-5.3,2-7.2,4.2c-1.9,2.1-3.1,4.8-3.1,7.6c0,1.4,0.2,2.8,0.7,4.1c0.5,1.3,1.3,2.5,2.2,3.5
			c1.9,2.1,4.5,3.4,7.2,4.3c1.4,0.4,2.8,0.8,4.2,0.7c1.4-0.1,2.8-0.6,4-1.3C66.3,65.2,68.3,63,70.1,60.8z"/>
	</g>
	<g>
		<path class="st18" d="M8.8,67c15.8-5,32.1-8.4,48.6-10.2C41,59.2,24.9,63.3,9.4,68.9L8.8,67z"/>
	</g>
	<g>
		<path class="st18" d="M11.2,64c-0.8-1.2-1.6-2.5-2.3-3.7c-0.7-1.3-1.5-2.5-2.2-3.8l-0.3-0.5l0.5-0.2c2.7-0.8,5.5-1.1,8.3-0.8
			l0.3,0l0.1,0.3c0.4,1.4,1,2.9,1.7,4.2c0.8,1.3,1.6,2.6,2.7,3.7c-1.2-1-2.3-2.1-3.2-3.4c-0.9-1.3-1.6-2.7-2.1-4.3l0.4,0.3
			c-2.7-0.2-5.4,0-8,0.7l0.3-0.6c0.7,1.3,1.3,2.6,2,3.9C10,61.4,10.6,62.7,11.2,64z"/>
	</g>
	<g>
		<path class="st18" d="M14.2,70.1c0.2,1.4,0.4,2.9,0.6,4.3c0.1,1.4,0.3,2.9,0.4,4.3l-0.6-0.4c2.6-0.7,5-1.9,7.2-3.4l-0.2,0.5
			c-0.4-1.5-0.6-3.1-0.5-4.7c0-1.6,0.4-3.1,0.9-4.6c-0.3,1.5-0.3,3-0.3,4.6c0.1,1.5,0.4,3,0.8,4.4l0.1,0.3l-0.3,0.2
			c-2.2,1.7-4.8,2.9-7.5,3.5l-0.5,0.1l0-0.5c-0.1-1.5-0.1-2.9-0.1-4.4C14.2,73.1,14.2,71.6,14.2,70.1z"/>
	</g>
</g>
</svg>
