<?xml version="1.0" encoding="utf-8"?>
<!-- Generator: Adobe Illustrator 22.1.0, SVG Export Plug-In . SVG Version: 6.00 Build 0)  -->
<svg version="1.1" xmlns="http://www.w3.org/2000/svg" xmlns:xlink="http://www.w3.org/1999/xlink" x="0px" y="0px"
	 viewBox="0 0 110 110" style="enable-background:new 0 0 110 110;" xml:space="preserve">
<style type="text/css">
	.st0{clip-path:url(#SVGID_2_);}
	.st1{clip-path:url(#SVGID_4_);fill:#83B950;}
	.st2{clip-path:url(#SVGID_6_);}
	.st3{clip-path:url(#SVGID_8_);fill:#757581;}
	.st4{clip-path:url(#SVGID_10_);}
	.st5{clip-path:url(#SVGID_12_);fill:#83B950;}
	.st6{clip-path:url(#SVGID_14_);}
	.st7{clip-path:url(#SVGID_16_);fill:#757581;}
	.st8{fill:#666666;}
	.st9{clip-path:url(#SVGID_18_);}
	.st10{clip-path:url(#SVGID_20_);fill:#83B950;}
	.st11{clip-path:url(#SVGID_22_);}
	.st12{clip-path:url(#SVGID_24_);fill:#757581;}
	.st13{clip-path:url(#SVGID_26_);}
	.st14{clip-path:url(#SVGID_28_);fill:#83B950;}
	.st15{clip-path:url(#SVGID_30_);}
	.st16{clip-path:url(#SVGID_32_);fill:#757581;}
	.st17{fill:#8D5296;}
	.st18{fill:#1F1D1E;}
	.st19{clip-path:url(#SVGID_34_);}
	.st20{clip-path:url(#SVGID_36_);fill:#83B950;}
	.st21{clip-path:url(#SVGID_38_);}
	.st22{clip-path:url(#SVGID_40_);fill:#757581;}
	.st23{fill:#7BA74E;stroke:#83B950;stroke-miterlimit:10;}
	.st24{clip-path:url(#SVGID_42_);}
	.st25{clip-path:url(#SVGID_44_);fill:#83B950;}
	.st26{clip-path:url(#SVGID_46_);}
	.st27{clip-path:url(#SVGID_48_);fill:#757581;}
	.st28{fill:#83B950;}
	.st29{clip-path:url(#SVGID_50_);}
	.st30{clip-path:url(#SVGID_52_);fill:#83B950;}
	.st31{clip-path:url(#SVGID_54_);}
	.st32{clip-path:url(#SVGID_56_);fill:#757581;}
	.st33{fill:#545454;}
	.st34{clip-path:url(#SVGID_58_);}
	.st35{clip-path:url(#SVGID_60_);fill:#83B950;}
	.st36{clip-path:url(#SVGID_62_);}
	.st37{clip-path:url(#SVGID_64_);fill:#757581;}
	.st38{fill:#F9F9F9;}
	.st39{fill:none;stroke:#0090CF;stroke-width:5;stroke-miterlimit:10;}
	.st40{fill:#0090CF;}
	.st41{fill:none;stroke:#0090CF;stroke-width:2;stroke-miterlimit:10;}
	.st42{fill:none;stroke:#1F8174;stroke-width:5;stroke-miterlimit:10;}
	.st43{fill:#1F8174;}
	.st44{fill:none;stroke:#FF6F4A;stroke-width:5;stroke-miterlimit:10;}
	.st45{fill:#FF6F4A;}
	.st46{fill:none;stroke:#99ABB2;stroke-width:2;stroke-miterlimit:10;}
	.st47{fill:#FFD41C;}
	.st48{fill:none;stroke:#FFD41C;stroke-width:5;stroke-miterlimit:10;}
	.st49{fill:none;stroke:#BA1965;stroke-width:5;stroke-miterlimit:10;}
	.st50{fill:#BA1965;}
	.st51{fill:#4D4D4D;}
	.st52{fill:none;stroke:#0090CF;stroke-miterlimit:10;}
	.st53{fill:none;stroke:#FF6F4A;stroke-miterlimit:10;}
	.st54{fill:none;stroke:#1F8174;stroke-miterlimit:10;}
	.st55{fill:none;stroke:#FFD41C;stroke-miterlimit:10;}
	.st56{fill:none;stroke:#BA1965;stroke-miterlimit:10;}
	.st57{fill:none;stroke:#99ABB2;stroke-width:2;stroke-miterlimit:10;stroke-dasharray:2,2;}
	.st58{fill:#99ABB2;}
	.st59{fill:#D5E3EF;}
	.st60{fill:#B0C4D9;}
	.st61{fill:#F79548;}
	.st62{fill:#FCBB76;}
	.st63{fill:#99B4CD;}
	.st64{fill:#6C9ABB;}
	.st65{fill:#70B7E5;}
	.st66{fill:#F04B4D;}
	.st67{fill:#4C9CD6;}
	.st68{fill:#F04D4E;}
	.st69{fill:#DB343F;}
	.st70{fill:#ECF0F9;}
	.st71{fill:#F26A56;}
	.st72{fill:#6E18FF;}
	.st73{fill:none;stroke:#000000;stroke-miterlimit:10;}
	.st74{fill:none;stroke:#000000;stroke-miterlimit:10;stroke-dasharray:2.0164,2.0164;}
	.st75{fill:none;stroke:#000000;stroke-miterlimit:10;stroke-dasharray:2,2;}
	.st76{fill:none;stroke:#6E18FF;stroke-miterlimit:10;}
	.st77{fill:#464655;}
	.st78{fill:#FFFFFF;}
	.st79{fill:#BEC8DC;}
	.st80{fill:#AFBBD0;}
	.st81{fill:#96A5B9;}
	.st82{fill:#E4EAF6;}
	.st83{fill:#FF6469;}
	.st84{fill:none;stroke:#000000;stroke-miterlimit:10;stroke-dasharray:2.0247,2.0247;}
	.st85{fill:none;stroke:#6E18FF;stroke-miterlimit:10;stroke-dasharray:2.0247,2.0247;}
	.st86{fill:#F1E00F;}
	.st87{fill:#C52171;}
	.st88{fill:none;stroke:#FBFAE1;stroke-miterlimit:10;}
	.st89{fill:#4C9E81;}
	.st90{fill:#2F5B46;}
	.st91{fill:#2090BC;}
	.st92{fill:#097189;}
	.st93{fill:#33AEE1;}
	.st94{fill:none;stroke:#1F1D1E;stroke-miterlimit:10;}
	.st95{fill:#89C8E9;}
	.st96{fill:#CBE5EB;}
	.st97{fill:#E4E3B2;}
	.st98{fill:#241622;}
	.st99{fill:#662D91;}
	.st100{fill:#4E237C;}
	.st101{fill:#333233;}
	.st102{fill:#CC898E;}
	.st103{fill:#CCCCCC;}
	.st104{fill:#E4A42E;}
	.st105{fill:#D38A31;}
	.st106{fill:#BB5F77;}
	.st107{fill:#FCF7FA;}
</style>
<g id="Capa_1">
</g>
<g id="pintura">
</g>
<g id="detalles">
</g>
<g id="ilustracion">
	<path class="st93" d="M88.3,21.2c1.5,1.3,0.4,50.4-2.1,75.8c-18.4-0.6-36.7-1.2-55.1-1.7c-1.1-16.9-1.5-33.8-1.2-50.8
		C30,39,28.8,25,31.8,22.4c2-1.7,15.4-0.9,21.1-0.9C63.8,21.5,87.5,20.4,88.3,21.2z"/>
	<path class="st94" d="M88.3,21.2c1.5,1.3,0.4,50.4-2.1,75.8c-18.4-0.6-36.7-1.2-55.1-1.7c-1.1-16.9-1.5-33.8-1.2-50.8
		C30,39,28.8,25,31.8,22.4c2-1.7,15.4-0.9,21.1-0.9C63.8,21.5,87.5,20.4,88.3,21.2z"/>
	<path class="st95" d="M78.8,14.4c1.5,1.3,0.1,50.5-2.5,76C58,89.8,40,89,21.6,88.5c-1.1-16.9-1.5-33.8-1.2-50.8
		c0.1-5.5-1.1-19.5,1.9-22.1c2-1.7,15.4-0.9,21.1-0.9C54.3,14.7,78,13.6,78.8,14.4z"/>
	<path class="st96" d="M73.3,29.6c0.5,0.3,1.1,0.7,1.7,0.5c0.6-5.2,0.6-10.4,0.2-15.6c0-0.4-0.1-1-0.6-1.2c-0.6-0.4-1.4-0.2-2.1-0.1
		c-3.8,0.7-7.6,1.6-11.5,1.7c-2.5,0.1-4.8,1.5-4.8,1.5s6.3,5.5,8.6,7.1C67.6,25.5,70.4,27.5,73.3,29.6z"/>
	<g>
		<path class="st18" d="M76.4,34.9c0.1,8.5,0.3,17,0.4,25.5c0.1,8.5,0.1,17,0.2,25.5l0,0.4l-0.4,0.1c-4.7,0.8-9.5,1.4-14.3,1.7
			c-4.8,0.4-9.6,0.5-14.4,0.5c-4.8,0-9.6-0.3-14.4-0.7c-4.8-0.4-9.5-1-14.3-1.8l-0.1,0l0-0.1l-0.6-17.8l-0.5-17.8
			C17.8,38.7,17.5,26.8,17,15l0-0.4l0.4-0.1c2.4-0.7,4.9-0.7,7.3-0.7c2.4,0,4.8,0.1,7.2-0.1c4.8-0.7,9.7-0.6,14.5-0.4
			c4.8,0.2,9.6,0.7,14.4,0.8c4.8,0.2,9.6,0,14.3-0.9l0.5-0.1l0,0.5c0.4,6,0.3,12-0.5,17.9L75,32.1l-0.4-0.3
			c-3.2-2.6-6.3-5.3-9.3-8.2c-3-2.8-6-5.7-8.8-8.7l0.1-0.1c2.9,2.9,5.9,5.7,9,8.5c3.1,2.7,6.2,5.4,9.4,8l-0.5,0.2
			c0.7-5.9,0.7-11.9,0.2-17.8l0.5,0.4c-4.8,1-9.6,1.2-14.5,1.1c-4.8-0.1-9.6-0.6-14.4-0.8c-4.8-0.2-9.6-0.2-14.3,0.4
			c-2.4,0.2-4.9,0.1-7.3,0.1c-2.4,0-4.8,0-7,0.6L18,15c0.4,11.9,0.6,23.7,0.7,35.6L19,68.3c0.1,5.9,0.2,11.8,0.5,17.8l-0.1-0.2
			c4.7,0.7,9.5,1.3,14.2,1.6c4.8,0.3,9.5,0.5,14.3,0.4c4.8,0,9.5-0.3,14.3-0.7c4.8-0.4,9.5-1,14.2-1.8L76.1,86c0-8.5,0-17,0-25.5
			C76.1,51.9,76.2,43.4,76.4,34.9L76.4,34.9z"/>
	</g>
	<g>
		<path class="st18" d="M25,27.5l0.3,7.2l-0.2-0.2c2.3,0.4,4.7,0.6,7,0.6l-0.4,0.3c0.3-1.4,0.4-2.8,0.4-4.2c0-1.4-0.1-2.8-0.3-4.1
			l0.4,0.4c-1-0.2-2-0.2-3-0.2c-1,0-2,0.1-3.1,0.3l0-0.1c1-0.4,2-0.7,3.1-0.8c1.1-0.2,2.1-0.2,3.2-0.1l0.3,0l0.1,0.4
			c0.3,1.4,0.4,2.9,0.4,4.3c-0.1,1.4-0.3,2.9-0.6,4.3l-0.1,0.3l-0.3,0c-2.4-0.1-4.8-0.4-7.1-0.9l-0.2,0l0-0.2L25,27.5L25,27.5z"/>
	</g>
	<path class="st96" d="M25.8,28.3c0.1,2.1,0.1,4.3,0.1,6.4c2.1,0.4,4.2,0.6,6.3,0.6c0.5-2.5,0.6-5,0.1-7.5c-1.8-0.2-3.7-0.1-5.5,0.4
		"/>
	<path class="st96" d="M25.8,47.1c0.1,2.1,0.1,4.3,0.1,6.4c2.1,0.4,4.2,0.6,6.3,0.6c0.5-2.5,0.6-5,0.1-7.5c-1.8-0.2-3.7-0.1-5.5,0.4
		"/>
	<path class="st96" d="M25.8,70.3c0.1,2.1,0.1,4.3,0.1,6.4c2.1,0.4,4.2,0.6,6.3,0.6c0.5-2.5,0.6-5,0.1-7.5c-1.8-0.2-3.7-0.1-5.5,0.4
		"/>
	<g>
		<path class="st18" d="M25,47.5c0.3,2.2,0.2,4.4-0.1,6.6l-0.2-0.3l4,0l2,0c0.3,0,0.6,0,0.8-0.1c0.2-0.1,0.3-0.2,0.3-0.5
			c0.2-1.2,0.3-2.6,0.3-3.9c0-1.3-0.1-2.6-0.3-3.9l0.5,0.3c-1.7,0.2-3.4,0.2-5,0.3l0-0.1c1.6-0.4,3.3-0.7,4.9-1l0.4-0.1l0.1,0.4
			c0.3,1.3,0.5,2.7,0.5,4.1c0,1.4-0.2,2.7-0.5,4.1c-0.1,0.4-0.4,0.8-0.8,1c-0.4,0.2-0.8,0.1-1.1,0.1l-2-0.1l-4-0.1l-0.3,0l0.1-0.3
			C24.8,51.9,25,49.7,25,47.5L25,47.5z"/>
	</g>
	<g>
		<path class="st18" d="M25.8,68.9l0.3,9.1l-0.3-0.3l3.6,0.2l1.8,0.1c0.6,0.1,1.2,0,1.2-0.3c0.1-0.1,0.1-0.4,0.1-0.7l0.1-0.9
			l0.1-1.8c0.1-1.2,0.2-2.4,0.3-3.6l0.3,0.5c-1.1-0.5-2.3-0.9-3.4-1.2c-1.2-0.4-2.3-0.7-3.5-1l0-0.1c1.2,0,2.5,0.2,3.7,0.4
			c1.2,0.2,2.4,0.6,3.6,1l0.3,0.1l0,0.4c-0.1,1.2-0.2,2.4-0.3,3.6l-0.2,1.8l-0.1,0.9c0,0.3,0,0.6-0.3,1c-0.2,0.4-0.7,0.6-1.1,0.6
			c-0.4,0-0.7,0-1,0l-1.8-0.2l-3.6-0.3l-0.3,0l0-0.3l0.1-9.1L25.8,68.9z"/>
	</g>
	<g>
		<path class="st18" d="M41.2,30.1l0.4-0.3l0,0l0,0c2.9-0.1,5.8-0.2,8.7-0.3c1.4-0.1,2.9-0.2,4.3-0.1c1.4,0.1,2.9,0.2,4.3,0.4v0.1
			c-1.4,0.3-2.9,0.4-4.3,0.4c-1.4,0.1-2.9,0-4.3-0.1c-2.9-0.1-5.8-0.2-8.7-0.3l0,0L41.2,30.1L41.2,30.1z"/>
	</g>
	<g>
		<path class="st18" d="M42.4,34.4l0,0.3l-0.1-0.1c4.7-0.1,9.4-0.3,14.1-0.3c2.4-0.1,4.7-0.2,7.1-0.1c2.4,0.1,4.7,0.2,7.1,0.4v0.1
			c-2.4,0.3-4.7,0.4-7.1,0.4c-2.4,0.1-4.7,0-7.1-0.1c-4.7-0.1-9.4-0.2-14.1-0.3l-0.1,0l0-0.1l0-0.3H42.4z"/>
	</g>
	<g>
		<path class="st18" d="M43.1,44.5c3,0,6,0,9-0.1c1.5-0.1,3-0.2,4.5-0.1c1.5,0,3,0.1,4.5,0.3l0,0.1c-1.5,0.3-3,0.5-4.5,0.6
			c-1.5,0.1-3,0-4.5-0.1C49.1,45,46.1,44.9,43.1,44.5L43.1,44.5z"/>
	</g>
	<g>
		<path class="st18" d="M42.3,51.8c3.6-0.1,7.3-0.3,10.9-0.4c1.8-0.1,3.6-0.2,5.5-0.1c1.8,0.1,3.6,0.2,5.5,0.5v0.1
			c-1.8,0.3-3.6,0.4-5.5,0.5c-1.8,0.1-3.6,0-5.5-0.1C49.6,52.1,46,52,42.3,51.8L42.3,51.8z"/>
	</g>
	<g>
		<path class="st18" d="M42.7,69.5c3.9-0.1,7.8-0.3,11.7-0.3c2-0.1,3.9-0.2,5.9-0.1c2,0.1,3.9,0.2,5.9,0.4v0.1
			c-2,0.3-3.9,0.4-5.9,0.5c-2,0.1-3.9,0-5.9-0.1c-3.9-0.1-7.8-0.2-11.7-0.3V69.5z"/>
	</g>
	<g>
		<path class="st18" d="M42.7,75.4c3.7-0.1,7.4-0.3,11.1-0.3c1.9-0.1,3.7-0.2,5.6-0.1c1.9,0.1,3.7,0.2,5.6,0.5v0.1
			c-1.9,0.3-3.7,0.4-5.6,0.5c-1.9,0.1-3.7,0-5.6-0.1C50.1,75.8,46.4,75.7,42.7,75.4L42.7,75.4z"/>
	</g>
</g>
</svg>
