<?xml version="1.0" encoding="utf-8"?>
<!-- Generator: Adobe Illustrator 22.1.0, SVG Export Plug-In . SVG Version: 6.00 Build 0)  -->
<svg version="1.1" id="Capa_1" xmlns="http://www.w3.org/2000/svg" xmlns:xlink="http://www.w3.org/1999/xlink" x="0px" y="0px"
	 viewBox="0 0 110 110" style="enable-background:new 0 0 110 110;" xml:space="preserve">
<style type="text/css">
	.st0{fill:#E28E07;}
	.st1{fill:none;stroke:#1F1D1E;stroke-miterlimit:10;}
	.st2{fill:#FFC827;}
	.st3{fill:#E5AC0E;}
	.st4{fill:#1F1D1E;}
	.st5{fill:#FFFFFF;}
	.st6{fill:#DC1D00;}
	.st7{fill:#61B600;}
</style>
<g id="Capa_1_1_">
</g>
<g id="pintura">
</g>
<g id="detalles">
</g>
<g id="ilustracion">
	<path class="st0" d="M88.3,21.2c1.5,1.3,0.4,50.4-2.1,75.8c-18.4-0.6-36.7-1.2-55.1-1.7c-1.1-16.9-1.5-33.8-1.2-50.8
		C30,39,28.8,25,31.8,22.4c2-1.7,15.4-0.9,21.1-0.9C63.8,21.5,87.5,20.4,88.3,21.2z"/>
	<path class="st1" d="M88.3,21.2c1.5,1.3,0.4,50.4-2.1,75.8c-18.4-0.6-36.7-1.2-55.1-1.7c-1.1-16.9-1.5-33.8-1.2-50.8
		C30,39,28.8,25,31.8,22.4c2-1.7,15.4-0.9,21.1-0.9C63.8,21.5,87.5,20.4,88.3,21.2z"/>
	<path class="st2" d="M79,14.4c1.5,1.3,0.1,50.5-2.5,76c-18.3-0.6-36.3-1.4-54.7-1.9c-1.1-16.9-1.5-33.8-1.2-50.8
		c0.1-5.5-1.1-19.5,1.9-22.1c2-1.7,15.4-0.9,21.1-0.9C54.5,14.7,78.2,13.6,79,14.4z"/>
	<path class="st3" d="M73.3,29.6c0.5,0.3,1.1,0.7,1.7,0.5c0.6-5.2,0.6-10.4,0.2-15.6c0-0.4-0.1-1-0.6-1.2c-0.6-0.4-1.4-0.2-2.1-0.1
		c-3.8,0.7-7.6,1.6-11.5,1.7c-2.5,0.1-4.8,1.5-4.8,1.5s6.3,5.5,8.6,7.1C67.6,25.5,70.4,27.5,73.3,29.6z"/>
	<g>
		<path class="st4" d="M76.4,34.9c0.1,8.5,0.3,17,0.4,25.5s0.1,17,0.2,25.5v0.4l-0.4,0.1c-4.7,0.8-9.5,1.4-14.3,1.7
			c-4.8,0.4-9.6,0.5-14.4,0.5s-9.6-0.3-14.4-0.7c-4.8-0.4-9.5-1-14.3-1.8h-0.1V86l-0.6-17.8L18,50.4c-0.2-11.7-0.5-23.6-1-35.4v-0.4
			l0.4-0.1c2.4-0.7,4.9-0.7,7.3-0.7s4.8,0.1,7.2-0.1c4.8-0.7,9.7-0.6,14.5-0.4c4.8,0.2,9.6,0.7,14.4,0.8c4.8,0.2,9.6,0,14.3-0.9
			l0.5-0.1v0.5c0.4,6,0.3,12-0.5,17.9L75,32.1l-0.4-0.3c-3.2-2.6-6.3-5.3-9.3-8.2c-3-2.8-6-5.7-8.8-8.7l0.1-0.1
			c2.9,2.9,5.9,5.7,9,8.5c3.1,2.7,6.2,5.4,9.4,8l-0.5,0.2c0.7-5.9,0.7-11.9,0.2-17.8l0.5,0.4c-4.8,1-9.6,1.2-14.5,1.1
			c-4.8-0.1-9.6-0.6-14.4-0.8s-9.6-0.2-14.3,0.4c-2.4,0.2-4.9,0.1-7.3,0.1s-4.8,0-7,0.6L18,15c0.4,11.9,0.6,23.7,0.7,35.6L19,68.3
			c0.1,5.9,0.2,11.8,0.5,17.8l-0.1-0.2c4.7,0.7,9.5,1.3,14.2,1.6c4.8,0.3,9.5,0.5,14.3,0.4c4.8,0,9.5-0.3,14.3-0.7
			c4.8-0.4,9.5-1,14.2-1.8L76.1,86c0-8.5,0-17,0-25.5C76.1,51.9,76.2,43.4,76.4,34.9L76.4,34.9z"/>
	</g>
	<g>
		<path class="st4" d="M25,27.5l0.3,7.2l-0.2-0.2c2.3,0.4,4.7,0.6,7,0.6l-0.4,0.3c0.3-1.4,0.4-2.8,0.4-4.2c0-1.4-0.1-2.8-0.3-4.1
			l0.4,0.4c-1-0.2-2-0.2-3-0.2s-2,0.1-3.1,0.3v-0.1c1-0.4,2-0.7,3.1-0.8c1.1-0.2,2.1-0.2,3.2-0.1h0.3l0.1,0.4
			c0.3,1.4,0.4,2.9,0.4,4.3c-0.1,1.4-0.3,2.9-0.6,4.3l-0.1,0.3h-0.3c-2.4-0.1-4.8-0.4-7.1-0.9h-0.2v-0.2L25,27.5L25,27.5z"/>
	</g>
	<path class="st5" d="M25.8,28.3c0.1,2.1,0.1,4.3,0.1,6.4c2.1,0.4,4.2,0.6,6.3,0.6c0.5-2.5,0.6-5,0.1-7.5c-1.8-0.2-3.7-0.1-5.5,0.4"
		/>
	<path class="st5" d="M25.8,47.1c0.1,2.1,0.1,4.3,0.1,6.4c2.1,0.4,4.2,0.6,6.3,0.6c0.5-2.5,0.6-5,0.1-7.5c-1.8-0.2-3.7-0.1-5.5,0.4"
		/>
	<path class="st5" d="M25.8,70.3c0.1,2.1,0.1,4.3,0.1,6.4c2.1,0.4,4.2,0.6,6.3,0.6c0.5-2.5,0.6-5,0.1-7.5c-1.8-0.2-3.7-0.1-5.5,0.4"
		/>
	<g>
		<path class="st4" d="M25,47.5c0.3,2.2,0.2,4.4-0.1,6.6l-0.2-0.3h4h2c0.3,0,0.6,0,0.8-0.1c0.2-0.1,0.3-0.2,0.3-0.5
			c0.2-1.2,0.3-2.6,0.3-3.9c0-1.3-0.1-2.6-0.3-3.9l0.5,0.3c-1.7,0.2-3.4,0.2-5,0.3v-0.1c1.6-0.4,3.3-0.7,4.9-1l0.4-0.1l0.1,0.4
			c0.3,1.3,0.5,2.7,0.5,4.1c0,1.4-0.2,2.7-0.5,4.1c-0.1,0.4-0.4,0.8-0.8,1c-0.4,0.2-0.8,0.1-1.1,0.1l-2-0.1l-4-0.1h-0.3l0.1-0.3
			C24.8,51.9,25,49.7,25,47.5L25,47.5z"/>
	</g>
	<g>
		<path class="st4" d="M25.8,68.9l0.3,9.1l-0.3-0.3l3.6,0.2l1.8,0.1c0.6,0.1,1.2,0,1.2-0.3c0.1-0.1,0.1-0.4,0.1-0.7l0.1-0.9l0.1-1.8
			c0.1-1.2,0.2-2.4,0.3-3.6l0.3,0.5c-1.1-0.5-2.3-0.9-3.4-1.2c-1.2-0.4-2.3-0.7-3.5-1v-0.1c1.2,0,2.5,0.2,3.7,0.4
			c1.2,0.2,2.4,0.6,3.6,1l0.3,0.1v0.4c-0.1,1.2-0.2,2.4-0.3,3.6l-0.2,1.8l-0.1,0.9c0,0.3,0,0.6-0.3,1c-0.2,0.4-0.7,0.6-1.1,0.6
			s-0.7,0-1,0l-1.8-0.2l-3.6-0.3h-0.3v-0.3l0.1-9.1L25.8,68.9z"/>
	</g>
	<g>
		<path class="st4" d="M41.2,30.1l0.4-0.3l0,0l0,0c2.9-0.1,5.8-0.2,8.7-0.3c1.4-0.1,2.9-0.2,4.3-0.1c1.4,0.1,2.9,0.2,4.3,0.4v0.1
			c-1.4,0.3-2.9,0.4-4.3,0.4c-1.4,0.1-2.9,0-4.3-0.1c-2.9-0.1-5.8-0.2-8.7-0.3l0,0L41.2,30.1L41.2,30.1z"/>
	</g>
	<g>
		<path class="st4" d="M42.4,34.4v0.3l-0.1-0.1c4.7-0.1,9.4-0.3,14.1-0.3c2.4-0.1,4.7-0.2,7.1-0.1c2.4,0.1,4.7,0.2,7.1,0.4v0.1
			c-2.4,0.3-4.7,0.4-7.1,0.4c-2.4,0.1-4.7,0-7.1-0.1c-4.7-0.1-9.4-0.2-14.1-0.3h-0.1v-0.1v-0.3L42.4,34.4L42.4,34.4z"/>
	</g>
	<g>
		<path class="st4" d="M43.1,44.5c3,0,6,0,9-0.1c1.5-0.1,3-0.2,4.5-0.1c1.5,0,3,0.1,4.5,0.3v0.1c-1.5,0.3-3,0.5-4.5,0.6
			s-3,0-4.5-0.1C49.1,45,46.1,44.9,43.1,44.5L43.1,44.5z"/>
	</g>
	<g>
		<path class="st4" d="M42.3,51.8c3.6-0.1,7.3-0.3,10.9-0.4c1.8-0.1,3.6-0.2,5.5-0.1c1.8,0.1,3.6,0.2,5.5,0.5v0.1
			c-1.8,0.3-3.6,0.4-5.5,0.5c-1.8,0.1-3.6,0-5.5-0.1C49.6,52.1,46,52,42.3,51.8L42.3,51.8z"/>
	</g>
	<g>
		<path class="st4" d="M42.7,69.5c3.9-0.1,7.8-0.3,11.7-0.3c2-0.1,3.9-0.2,5.9-0.1s3.9,0.2,5.9,0.4v0.1c-2,0.3-3.9,0.4-5.9,0.5
			s-3.9,0-5.9-0.1c-3.9-0.1-7.8-0.2-11.7-0.3V69.5z"/>
	</g>
	<g>
		<path class="st4" d="M42.7,75.4c3.7-0.1,7.4-0.3,11.1-0.3c1.9-0.1,3.7-0.2,5.6-0.1c1.9,0.1,3.7,0.2,5.6,0.5v0.1
			c-1.9,0.3-3.7,0.4-5.6,0.5c-1.9,0.1-3.7,0-5.6-0.1C50.1,75.8,46.4,75.7,42.7,75.4L42.7,75.4z"/>
	</g>
</g>
<g>
	<g>
		<path class="st6" d="M26.6,70.5c1.5,1,3,2,4.5,3c0.8,0.5,1.6,0.9,2.3,1.4c0.7,0.5,1.4,1.1,2.1,1.8l0,0.1c-0.9-0.2-1.8-0.6-2.6-1
			c-0.8-0.4-1.5-1-2.2-1.6C29.2,73.1,27.8,71.9,26.6,70.5L26.6,70.5z"/>
	</g>
	<g>
		<path class="st6" d="M31,68.5c-0.6,2.2-1.2,4.4-1.8,6.6c-0.3,1.1-0.5,2.2-1,3.3c-0.4,1.1-0.9,2.1-1.5,3.1l-0.1,0
			c0.1-1.2,0.3-2.3,0.6-3.4c0.3-1.1,0.8-2.2,1.2-3.2C29.2,72.7,30,70.6,31,68.5L31,68.5z"/>
	</g>
</g>
<g>
	<path class="st7" d="M26.9,49.9c0.3,0.8,0.6,1.6,0.8,2.5l-0.8-0.1c1.1-2,2.2-3.9,3.6-5.7c1.4-1.8,3-3.3,4.9-4.5
		c-1.8,1.3-3.3,2.9-4.6,4.7c-1.3,1.8-2.3,3.8-3.2,5.8l-0.5,1l-0.3-1.1c-0.2-0.8-0.5-1.5-0.9-2.3L26.9,49.9z"/>
</g>
<g>
	<path class="st7" d="M26.9,31.6c0.3,0.8,0.6,1.6,0.8,2.5L26.9,34c1.1-2,2.2-3.9,3.6-5.7c1.4-1.8,3-3.3,4.9-4.5
		c-1.8,1.3-3.3,2.9-4.6,4.7c-1.3,1.8-2.3,3.8-3.2,5.8l-0.5,1l-0.3-1.1c-0.2-0.8-0.5-1.5-0.9-2.3L26.9,31.6z"/>
</g>
</svg>
