<?xml version="1.0" encoding="utf-8"?>
<!-- Generator: Adobe Illustrator 22.1.0, SVG Export Plug-In . SVG Version: 6.00 Build 0)  -->
<svg version="1.1" xmlns="http://www.w3.org/2000/svg" xmlns:xlink="http://www.w3.org/1999/xlink" x="0px" y="0px"
	 viewBox="0 0 110 110" style="enable-background:new 0 0 110 110;" xml:space="preserve">
<style type="text/css">
	.st0{clip-path:url(#SVGID_2_);}
	.st1{clip-path:url(#SVGID_4_);fill:#83B950;}
	.st2{clip-path:url(#SVGID_6_);}
	.st3{clip-path:url(#SVGID_8_);fill:#757581;}
	.st4{clip-path:url(#SVGID_10_);}
	.st5{clip-path:url(#SVGID_12_);fill:#83B950;}
	.st6{clip-path:url(#SVGID_14_);}
	.st7{clip-path:url(#SVGID_16_);fill:#757581;}
	.st8{fill:#666666;}
	.st9{clip-path:url(#SVGID_18_);}
	.st10{clip-path:url(#SVGID_20_);fill:#83B950;}
	.st11{clip-path:url(#SVGID_22_);}
	.st12{clip-path:url(#SVGID_24_);fill:#757581;}
	.st13{clip-path:url(#SVGID_26_);}
	.st14{clip-path:url(#SVGID_28_);fill:#83B950;}
	.st15{clip-path:url(#SVGID_30_);}
	.st16{clip-path:url(#SVGID_32_);fill:#757581;}
	.st17{fill:#8D5296;}
	.st18{fill:#1F1D1E;}
	.st19{clip-path:url(#SVGID_34_);}
	.st20{clip-path:url(#SVGID_36_);fill:#83B950;}
	.st21{clip-path:url(#SVGID_38_);}
	.st22{clip-path:url(#SVGID_40_);fill:#757581;}
	.st23{fill:#7BA74E;stroke:#83B950;stroke-miterlimit:10;}
	.st24{clip-path:url(#SVGID_42_);}
	.st25{clip-path:url(#SVGID_44_);fill:#83B950;}
	.st26{clip-path:url(#SVGID_46_);}
	.st27{clip-path:url(#SVGID_48_);fill:#757581;}
	.st28{fill:#83B950;}
	.st29{clip-path:url(#SVGID_50_);}
	.st30{clip-path:url(#SVGID_52_);fill:#83B950;}
	.st31{clip-path:url(#SVGID_54_);}
	.st32{clip-path:url(#SVGID_56_);fill:#757581;}
	.st33{fill:#545454;}
	.st34{clip-path:url(#SVGID_58_);}
	.st35{clip-path:url(#SVGID_60_);fill:#83B950;}
	.st36{clip-path:url(#SVGID_62_);}
	.st37{clip-path:url(#SVGID_64_);fill:#757581;}
	.st38{fill:#F9F9F9;}
	.st39{fill:none;stroke:#0090CF;stroke-width:5;stroke-miterlimit:10;}
	.st40{fill:#0090CF;}
	.st41{fill:none;stroke:#0090CF;stroke-width:2;stroke-miterlimit:10;}
	.st42{fill:none;stroke:#1F8174;stroke-width:5;stroke-miterlimit:10;}
	.st43{fill:#1F8174;}
	.st44{fill:none;stroke:#FF6F4A;stroke-width:5;stroke-miterlimit:10;}
	.st45{fill:#FF6F4A;}
	.st46{fill:none;stroke:#99ABB2;stroke-width:2;stroke-miterlimit:10;}
	.st47{fill:#FFD41C;}
	.st48{fill:none;stroke:#FFD41C;stroke-width:5;stroke-miterlimit:10;}
	.st49{fill:none;stroke:#BA1965;stroke-width:5;stroke-miterlimit:10;}
	.st50{fill:#BA1965;}
	.st51{fill:#4D4D4D;}
	.st52{fill:none;stroke:#0090CF;stroke-miterlimit:10;}
	.st53{fill:none;stroke:#FF6F4A;stroke-miterlimit:10;}
	.st54{fill:none;stroke:#1F8174;stroke-miterlimit:10;}
	.st55{fill:none;stroke:#FFD41C;stroke-miterlimit:10;}
	.st56{fill:none;stroke:#BA1965;stroke-miterlimit:10;}
	.st57{fill:none;stroke:#99ABB2;stroke-width:2;stroke-miterlimit:10;stroke-dasharray:2,2;}
	.st58{fill:#99ABB2;}
	.st59{fill:#D5E3EF;}
	.st60{fill:#B0C4D9;}
	.st61{fill:#F79548;}
	.st62{fill:#FCBB76;}
	.st63{fill:#99B4CD;}
	.st64{fill:#6C9ABB;}
	.st65{fill:#70B7E5;}
	.st66{fill:#F04B4D;}
	.st67{fill:#4C9CD6;}
	.st68{fill:#F04D4E;}
	.st69{fill:#DB343F;}
	.st70{fill:#ECF0F9;}
	.st71{fill:#F26A56;}
	.st72{fill:#6E18FF;}
	.st73{fill:none;stroke:#000000;stroke-miterlimit:10;}
	.st74{fill:none;stroke:#000000;stroke-miterlimit:10;stroke-dasharray:2.0164,2.0164;}
	.st75{fill:none;stroke:#000000;stroke-miterlimit:10;stroke-dasharray:2,2;}
	.st76{fill:none;stroke:#6E18FF;stroke-miterlimit:10;}
	.st77{fill:#464655;}
	.st78{fill:#FFFFFF;}
	.st79{fill:#BEC8DC;}
	.st80{fill:#AFBBD0;}
	.st81{fill:#96A5B9;}
	.st82{fill:#E4EAF6;}
	.st83{fill:#FF6469;}
	.st84{fill:none;stroke:#000000;stroke-miterlimit:10;stroke-dasharray:2.0247,2.0247;}
	.st85{fill:none;stroke:#6E18FF;stroke-miterlimit:10;stroke-dasharray:2.0247,2.0247;}
	.st86{fill:#F1E00F;}
	.st87{fill:#C52171;}
	.st88{fill:none;stroke:#FBFAE1;stroke-miterlimit:10;}
	.st89{fill:#4C9E81;}
	.st90{fill:#2F5B46;}
	.st91{fill:#2090BC;}
	.st92{fill:#097189;}
	.st93{fill:#33AEE1;}
	.st94{fill:none;stroke:#1F1D1E;stroke-miterlimit:10;}
	.st95{fill:#89C8E9;}
	.st96{fill:#CBE5EB;}
	.st97{fill:#E4E3B2;}
	.st98{fill:#241622;}
	.st99{fill:#662D91;}
	.st100{fill:#4E237C;}
	.st101{fill:#333233;}
	.st102{fill:#CC898E;}
	.st103{fill:#CCCCCC;}
	.st104{fill:#E4A42E;}
	.st105{fill:#D38A31;}
	.st106{fill:#BB5F77;}
	.st107{fill:#FCF7FA;}
</style>
<g id="Capa_1">
</g>
<g id="pintura">
	<g>
		<path class="st87" d="M52.2,49.2c5.4-9.8,17.5-15.4,28.4-13c2.5,0.5,5,1.5,6.9,3.1c3.8,3.4,4.6,9.3,3.2,14.2s-4.6,9.1-7.7,13.2
			C75.9,76,68.8,85.3,61.8,94.5c-0.2,0.2-0.4,0.5-0.7,0.6c-0.3,0.1-0.6-0.1-0.9-0.3C50,88.9,40.7,81.6,32.6,73.2
			c-3.5-3.6-6.8-7.5-8.6-12.1S22,50.8,24.8,46.7c3-4.5,9-6.5,14.3-5.6c5.3,1,9.9,4.6,12.9,9.2"/>
		<g>
			<path class="st87" d="M52.2,51.7c5.9-10,18.4-16.1,29.9-12.7c5.1,1.5,10.2,6.3,8.5,12c-2.1,7.1-7.4,12.9-11.8,18.6
				c-4.9,6.4-9.8,12.8-14.7,19.2c-0.7,1-1.9,3.4-3.1,3.7c-1.2,0.2-3.1-1.6-3.9-2.1c-3-1.9-5.9-3.8-8.7-5.9
				c-5.6-4.2-11-8.8-15.8-13.9c-5-5.2-9.8-11.2-9.9-18.7c0,1.4,0,2.8,0,4.3c0.6-7,5.3-12.1,12.4-12.7c7.1-0.6,13.1,3.8,17,9.3
				c-0.8-1.1,0.8-3.9,0-5c-4.2-5.9-10.8-10.5-18.4-9.2c-6.6,1.2-10.7,6.3-11.1,12.9c-0.2,4.3-0.1,8.8,1.6,12.8
				c3.3,7.7,10.4,13.8,16.6,19.2c3.1,2.7,6.3,5.2,9.7,7.6c2.1,1.5,8.4,7.1,10.9,6.2c1.2-0.5,3-3.8,3.9-4.9c1.6-2.1,3.1-4.1,4.7-6.2
				c2.9-3.8,5.9-7.7,8.8-11.5c7.2-9.4,15.2-19.4,12-32c-2.1-8.4-11.7-10.4-19.2-9.2c-8.2,1.2-15.3,6.1-19.4,13.2
				C51.5,48,52.9,50.5,52.2,51.7L52.2,51.7z"/>
		</g>
	</g>
	<g>
		<path class="st87" d="M41.1,22.8c1.2,3.9,5,7.8,10,7.2c1.5-0.2,3-0.8,4.3-1.5c4.4-2.6,6.8-7.5,5.4-11.6c-1.4-4.1-6.7-6.9-11.9-6
			c-5.1,1-9.1,5.8-7.8,10"/>
	</g>
</g>
<g id="detalles">
	<g>
		<g>
			<g>
				<path class="st78" d="M78.1,40.4c0,0-0.1,0-0.1-0.1c-0.2-0.2-0.6-0.4-1-0.8c-0.2-0.2-0.3-0.4-0.4-0.8c0-0.3,0.1-0.8,0.6-1.3
					c0,0,0.2-0.2,0.3-0.2c1.3-0.2,2.5,0,3.5,0.5c1,0.5,1.9,1.2,2.5,2.2c1.4,2,1.5,4.3,1.5,6.3c0,1-0.2,2-0.3,3c0,0-0.2,1.2-0.7,2.8
					c-0.5,1.6-1.2,3.5-2,5.1c-1.3,2.6-2,3.2-2.1,2.8c-0.2-0.4,0.2-1.8,0.5-3.5c-0.1,0.2,0.4-1.8,0.8-3.9c0.3-2,0.5-4.1,0.5-4.1
					c0.1-0.8,0.2-1.6,0.2-2.3c0.1-1.7-0.2-3.3-0.9-4.4C80.4,40.9,79,40.2,78.1,40.4z"/>
			</g>
		</g>
	</g>
</g>
<g id="ilustracion">
	<g>
		<path class="st98" d="M37.2,39.7c-2-0.3-3.9-0.7-5.9-0.7c-2-0.1-4,0-5.8,0.6c-1.8,0.6-3.5,1.7-4.5,3.3c-1,1.6-1.4,3.5-1.4,5.5
			c0,1.9,0.5,3.8,1.1,5.7c0.6,1.9,1.5,3.6,2.4,5.3c1.9,3.4,4.5,6.4,7.3,9.1c5.6,5.5,12.5,9.5,19,14.2c3.2,2.3,6.5,4.7,9.6,7.2
			c3.1,2.5,6.1,5.2,8.9,8.1l-1.7,0.5l0.6-3.6c0.1-0.6,0.3-1.2,0.5-1.8c0.2-0.6,0.3-1.2,0.5-1.8c0.4-1.1,0.8-2.3,1.3-3.4
			c0.3-0.6,0.5-1.1,0.8-1.7l0.9-1.6c2.3-4.3,5.2-8.1,8-11.9c2.8-3.8,5.6-7.6,7.8-11.7c0.6-1,1-2.1,1.6-3.1c0.5-1.1,0.9-2.1,1.3-3.2
			c0.7-2.2,1.3-4.5,1.6-6.8c0.3-2.3,0.4-4.6,0.2-6.9c-0.2-2.3-0.6-4.6-1.9-6.3c-1.3-1.8-3.4-2.9-5.6-3.4c-2.2-0.5-4.6-0.4-6.9,0
			c-9.2,1.8-17.6,7.4-23.1,15.1c2.5-4,5.9-7.5,9.8-10.3c3.9-2.8,8.3-4.8,13.1-5.9c2.4-0.4,4.9-0.6,7.3-0.1c2.4,0.5,4.9,1.6,6.4,3.7
			c1.6,2.1,2.1,4.6,2.3,7c0.2,2.4,0.2,4.9-0.1,7.3C92,53.1,90.3,57.8,88,62c-2.3,4.3-5.1,8.2-7.8,12c-2.8,3.9-5.6,7.7-7.7,11.8
			l-0.8,1.5c-0.3,0.5-0.5,1.1-0.7,1.6c-0.5,1-0.9,2.1-1.3,3.2c-0.2,0.5-0.3,1.1-0.5,1.7c-0.1,0.6-0.3,1.1-0.4,1.7l-0.6,3.4l-0.4,1.9
			l-1.3-1.4c-5.3-5.7-11.7-10.5-18.1-15.2c-3.2-2.3-6.5-4.6-9.7-6.9c-3.2-2.4-6.4-4.9-9.2-7.7c-2.8-2.8-5.4-6-7.3-9.6
			c-1-1.8-1.8-3.6-2.4-5.6c-0.6-1.9-1-4-1-6c0-2,0.5-4.1,1.7-5.9c1.2-1.7,3-2.9,5-3.4c2-0.6,4-0.6,6-0.5
			C33.3,38.9,35.2,39.3,37.2,39.7z"/>
	</g>
	<g>
		<path class="st18" d="M56.7,10.8c1.8,1.5,3.5,3.1,4.6,5.2c0.5,1.1,0.8,2.3,0.7,3.5C62,20.8,61.5,21.9,61,23
			c-1,2.1-2.5,4.1-4.5,5.4c-2,1.3-4.5,2-6.9,1.7c-2.4-0.4-4.6-1.6-6.3-3.3c-1.7-1.7-2.7-4.1-2.7-6.5c0-1.2,0.2-2.4,0.6-3.5
			c0.4-1.1,1-2.2,1.8-3c1.6-1.7,3.7-3,6-3.4c-2.2,0.6-4.2,2-5.7,3.7c-0.7,0.9-1.2,1.9-1.6,2.9c-0.3,1.1-0.5,2.2-0.4,3.3
			c0.1,2.2,1.1,4.3,2.6,5.9c1.5,1.6,3.6,2.7,5.8,3c2.2,0.3,4.4-0.2,6.3-1.5c1.9-1.2,3.3-3,4.3-5c0.5-1,1-2.1,1.1-3.1
			c0.1-1.1-0.1-2.2-0.6-3.2C60,14.2,58.3,12.5,56.7,10.8z"/>
	</g>
</g>
</svg>
