<?xml version="1.0" encoding="utf-8"?>
<!-- Generator: Adobe Illustrator 22.1.0, SVG Export Plug-In . SVG Version: 6.00 Build 0)  -->
<svg version="1.1" xmlns="http://www.w3.org/2000/svg" xmlns:xlink="http://www.w3.org/1999/xlink" x="0px" y="0px"
	 viewBox="0 0 110 110" style="enable-background:new 0 0 110 110;" xml:space="preserve">
<style type="text/css">
	.st0{clip-path:url(#SVGID_2_);}
	.st1{clip-path:url(#SVGID_4_);fill:#83B950;}
	.st2{clip-path:url(#SVGID_6_);}
	.st3{clip-path:url(#SVGID_8_);fill:#757581;}
	.st4{clip-path:url(#SVGID_10_);}
	.st5{clip-path:url(#SVGID_12_);fill:#83B950;}
	.st6{clip-path:url(#SVGID_14_);}
	.st7{clip-path:url(#SVGID_16_);fill:#757581;}
	.st8{fill:#666666;}
	.st9{clip-path:url(#SVGID_18_);}
	.st10{clip-path:url(#SVGID_20_);fill:#83B950;}
	.st11{clip-path:url(#SVGID_22_);}
	.st12{clip-path:url(#SVGID_24_);fill:#757581;}
	.st13{clip-path:url(#SVGID_26_);}
	.st14{clip-path:url(#SVGID_28_);fill:#83B950;}
	.st15{clip-path:url(#SVGID_30_);}
	.st16{clip-path:url(#SVGID_32_);fill:#757581;}
	.st17{fill:#8D5296;}
	.st18{fill:#1F1D1E;}
	.st19{clip-path:url(#SVGID_34_);}
	.st20{clip-path:url(#SVGID_36_);fill:#83B950;}
	.st21{clip-path:url(#SVGID_38_);}
	.st22{clip-path:url(#SVGID_40_);fill:#757581;}
	.st23{fill:#7BA74E;stroke:#83B950;stroke-miterlimit:10;}
	.st24{clip-path:url(#SVGID_42_);}
	.st25{clip-path:url(#SVGID_44_);fill:#83B950;}
	.st26{clip-path:url(#SVGID_46_);}
	.st27{clip-path:url(#SVGID_48_);fill:#757581;}
	.st28{fill:#83B950;}
	.st29{clip-path:url(#SVGID_50_);}
	.st30{clip-path:url(#SVGID_52_);fill:#83B950;}
	.st31{clip-path:url(#SVGID_54_);}
	.st32{clip-path:url(#SVGID_56_);fill:#757581;}
	.st33{fill:#545454;}
	.st34{clip-path:url(#SVGID_58_);}
	.st35{clip-path:url(#SVGID_60_);fill:#83B950;}
	.st36{clip-path:url(#SVGID_62_);}
	.st37{clip-path:url(#SVGID_64_);fill:#757581;}
	.st38{fill:#F9F9F9;}
	.st39{fill:none;stroke:#0090CF;stroke-width:5;stroke-miterlimit:10;}
	.st40{fill:#0090CF;}
	.st41{fill:none;stroke:#0090CF;stroke-width:2;stroke-miterlimit:10;}
	.st42{fill:none;stroke:#1F8174;stroke-width:5;stroke-miterlimit:10;}
	.st43{fill:#1F8174;}
	.st44{fill:none;stroke:#FF6F4A;stroke-width:5;stroke-miterlimit:10;}
	.st45{fill:#FF6F4A;}
	.st46{fill:none;stroke:#99ABB2;stroke-width:2;stroke-miterlimit:10;}
	.st47{fill:#FFD41C;}
	.st48{fill:none;stroke:#FFD41C;stroke-width:5;stroke-miterlimit:10;}
	.st49{fill:none;stroke:#BA1965;stroke-width:5;stroke-miterlimit:10;}
	.st50{fill:#BA1965;}
	.st51{fill:#4D4D4D;}
	.st52{fill:none;stroke:#0090CF;stroke-miterlimit:10;}
	.st53{fill:none;stroke:#FF6F4A;stroke-miterlimit:10;}
	.st54{fill:none;stroke:#1F8174;stroke-miterlimit:10;}
	.st55{fill:none;stroke:#FFD41C;stroke-miterlimit:10;}
	.st56{fill:none;stroke:#BA1965;stroke-miterlimit:10;}
	.st57{fill:none;stroke:#99ABB2;stroke-width:2;stroke-miterlimit:10;stroke-dasharray:2,2;}
	.st58{fill:#99ABB2;}
	.st59{fill:#D5E3EF;}
	.st60{fill:#B0C4D9;}
	.st61{fill:#F79548;}
	.st62{fill:#FCBB76;}
	.st63{fill:#99B4CD;}
	.st64{fill:#6C9ABB;}
	.st65{fill:#70B7E5;}
	.st66{fill:#F04B4D;}
	.st67{fill:#4C9CD6;}
	.st68{fill:#F04D4E;}
	.st69{fill:#DB343F;}
	.st70{fill:#ECF0F9;}
	.st71{fill:#F26A56;}
	.st72{fill:#6E18FF;}
	.st73{fill:none;stroke:#000000;stroke-miterlimit:10;}
	.st74{fill:none;stroke:#000000;stroke-miterlimit:10;stroke-dasharray:2.0164,2.0164;}
	.st75{fill:none;stroke:#000000;stroke-miterlimit:10;stroke-dasharray:2,2;}
	.st76{fill:none;stroke:#6E18FF;stroke-miterlimit:10;}
	.st77{fill:#464655;}
	.st78{fill:#FFFFFF;}
	.st79{fill:#BEC8DC;}
	.st80{fill:#AFBBD0;}
	.st81{fill:#96A5B9;}
	.st82{fill:#E4EAF6;}
	.st83{fill:#FF6469;}
	.st84{fill:none;stroke:#000000;stroke-miterlimit:10;stroke-dasharray:2.0247,2.0247;}
	.st85{fill:none;stroke:#6E18FF;stroke-miterlimit:10;stroke-dasharray:2.0247,2.0247;}
	.st86{fill:#F1E00F;}
	.st87{fill:#C52171;}
	.st88{fill:none;stroke:#FBFAE1;stroke-miterlimit:10;}
	.st89{fill:#4C9E81;}
	.st90{fill:#2F5B46;}
	.st91{fill:#2090BC;}
	.st92{fill:#097189;}
	.st93{fill:#33AEE1;}
	.st94{fill:none;stroke:#1F1D1E;stroke-miterlimit:10;}
	.st95{fill:#89C8E9;}
	.st96{fill:#CBE5EB;}
	.st97{fill:#E4E3B2;}
	.st98{fill:#241622;}
	.st99{fill:#662D91;}
	.st100{fill:#4E237C;}
	.st101{fill:#333233;}
	.st102{fill:#CC898E;}
	.st103{fill:#CCCCCC;}
	.st104{fill:#E4A42E;}
	.st105{fill:#D38A31;}
	.st106{fill:#BB5F77;}
	.st107{fill:#FCF7FA;}
</style>
<g id="Capa_1">
</g>
<g id="pintura">
	<g>
		<path class="st86" d="M68.8,76.7c1.6,8.8,3.1,15-0.1,17.8c-1.5,1.3-1.7,14.5-14.3,10.6c-2.4-0.7-2.6-4.3-4.4-6
			c-1.1-1-2.6-1.5-3.6-2.7c-1.6-1.9-0.9-4.6-1.1-7c-1.6-14.2-4.2-16.3-11.8-21c-7.5-4.6-7.3-17.4-4.6-25.8s10.3-17,19.1-17.8
			c17.5-1.6,23.4,6.5,26.4,12.1c4.6,8.3,5.9,18.2,1.5,24.6c-1.7,2.5-3.3,5-5,7.5c-1.7,2.5-2.8,5.7-1.7,8.5"/>
	</g>
</g>
<g id="detalles">
</g>
<g id="ilustracion">
	<path class="st97" d="M69.3,88.4c-1,2.2-2.9,4-5.2,4.8c-1.2,0.4-2.6,0.6-3.9,0.7c-3.8,0.4-7.6,0.8-11.4,1.3c-0.4,0-0.8,0.1-1.2-0.1
		c-0.6-0.3-0.7-1-0.8-1.6c-0.4-2.8-0.7-5.6-0.8-8.4c4.4,0.4,8.8-0.5,13.1-1.4c1.6-0.3,3.2-0.7,4.8-1c1.1-0.2,3.8-1.4,4.8-1
		C70.9,82.2,70.1,86.6,69.3,88.4z"/>
	<g>
		<path class="st18" d="M68.7,76.4c-0.2-1.3,0.1-2.7,0.7-3.9c0.6-1.2,1.5-2.3,2.4-3.3c0.9-1,1.9-1.9,2.7-2.9c0.8-1,1.5-2.1,2-3.3
			c0.9-2.4,1.3-5.1,1.4-7.7c0.1-2.6-0.1-5.3-0.7-7.8c-0.6-2.6-1.4-5-2.6-7.4c-1.2-2.3-2.6-4.5-4.4-6.3c-1.8-1.8-3.9-3.3-6.3-3.9
			c-2.4-0.7-5.1-0.7-7.7-0.7c-5.2,0.1-10.5,1-15.1,3.4c-4.6,2.4-8.4,6.3-10,11.2c-0.8,2.5-1.1,5.1-1.2,7.7c-0.1,2.6,0.1,5.3,0.6,7.9
			c1,5.2,3.7,10.1,8.2,13.2c-2.3-1.3-4.3-3.3-5.8-5.5c-1.5-2.2-2.6-4.8-3.3-7.4c-0.7-2.6-0.9-5.4-1-8.1c0-2.7,0.2-5.5,1-8.2
			c0.8-2.7,2.2-5.2,4.1-7.3c1.9-2.1,4.1-3.8,6.5-5.2c4.9-2.7,10.5-3.6,16-3.8c2.7,0,5.5,0,8.3,0.8c2.8,0.8,5.3,2.4,7.2,4.5
			c1.9,2,3.4,4.4,4.6,6.9c1.2,2.5,2.1,5.1,2.6,7.8c0.5,2.7,0.7,5.5,0.5,8.2c-0.2,2.7-0.7,5.4-1.8,8c-0.6,1.3-1.4,2.4-2.3,3.4
			c-0.9,1-2,1.9-2.9,2.8c-1,0.9-1.9,1.9-2.5,3C69,73.7,68.6,75,68.7,76.4z"/>
	</g>
	<g>
		<path class="st18" d="M45.7,82.6c2.1,0,4.2-0.1,6.2-0.3c2.1-0.2,4.1-0.5,6.2-0.8c2.1-0.3,4.1-0.6,6.2-0.7c1-0.1,2.1-0.1,3.2-0.2
			c1.1,0,2.1,0,3.2,0.2c-0.5,0.1-1,0.1-1.6,0.1l-1.6,0.2c-1,0.1-2.1,0.3-3.1,0.4l-6.2,1c-2.1,0.3-4.2,0.5-6.3,0.6
			c-1.1,0-2.1,0-3.2,0C47.8,82.9,46.8,82.8,45.7,82.6z"/>
	</g>
	<g>
		<path class="st18" d="M47.9,88.4c3.4-0.3,6.8-0.5,10.2-0.8c3.4-0.2,6.8-0.5,10.2-0.6c-3.3,0.9-6.7,1.4-10.2,1.6
			C54.8,88.8,51.3,88.8,47.9,88.4z"/>
	</g>
	<g>
		<path class="st18" d="M48.9,95.3c2.7-0.4,5.4-0.7,8.1-1c2.7-0.3,5.5-0.4,8-1c1.3-0.3,2.5-0.7,3.5-1.5c1-0.7,1.6-1.9,1.9-3.1
			c0.3-1.3,0.4-2.6,0.3-4c0-1.4-0.2-2.7-0.3-4.1c0.6,2.6,1.2,5.4,0.7,8.2c-0.2,1.4-0.9,2.8-2.1,3.7c-1.2,0.9-2.5,1.4-3.9,1.7
			c-2.8,0.6-5.5,0.6-8.2,0.8C54.3,95.1,51.6,95.2,48.9,95.3z"/>
	</g>
	<g>
		<path class="st18" d="M51.2,98.2c1.2,1.7,2.6,3.2,4.3,4.5c0.8,0.6,1.7,1.2,2.5,1.6c0.9,0.4,1.8,0.6,2.6,0.1c0.8-0.4,1.5-1.2,2.1-2
			c0.6-0.8,1.2-1.7,1.7-2.6c1-1.8,1.6-3.8,2-5.8c0,1.1-0.1,2.1-0.3,3.1c-0.2,1-0.6,2-1,3c-0.4,1-1,1.9-1.6,2.8
			c-0.6,0.8-1.3,1.7-2.4,2.3c-0.5,0.3-1.2,0.4-1.8,0.4c-0.6-0.1-1.2-0.3-1.7-0.5c-1-0.5-1.8-1.2-2.6-1.9
			C53.4,101.8,52,100.1,51.2,98.2z"/>
	</g>
	<g>
		<path class="st18" d="M73.5,26.6c1.8-2.8,3.8-5.3,5.9-7.9c2.1-2.5,4.3-5,6.7-7.2c-1.8,2.8-3.8,5.3-5.9,7.9
			C78.1,21.9,75.9,24.4,73.5,26.6z"/>
	</g>
	<g>
		<path class="st18" d="M84.6,44.8c3.1-1.8,6.2-3.4,9.4-4.9c3.2-1.5,6.5-2.9,9.9-4c-3.1,1.8-6.2,3.4-9.4,4.9
			C91.2,42.3,87.9,43.7,84.6,44.8z"/>
	</g>
	<g>
		<path class="st18" d="M48.5,19.1c-1-1.8-1.6-3.7-2.2-5.5c-0.6-1.9-1.1-3.8-1.3-5.8c1,1.8,1.6,3.7,2.2,5.5
			C47.8,15.2,48.3,17.1,48.5,19.1z"/>
	</g>
	<g>
		<path class="st18" d="M11.6,24.1c2.8,1.5,5.4,3.5,7.7,5.8c2.3,2.3,4.3,4.8,5.8,7.6c-2.2-2.4-4.3-4.7-6.5-6.9
			C16.3,28.4,14,26.3,11.6,24.1z"/>
	</g>
	<g>
		<path class="st18" d="M14.3,74.8c1.7-1.3,3.3-2.6,4.8-3.9c1.6-1.3,3-2.8,4.5-4.2c-0.9,1.9-2.3,3.6-3.9,5
			C18.2,73,16.4,74.2,14.3,74.8z"/>
	</g>
	<g>
		<path class="st18" d="M58.8,53.6c-0.4,2.3-1,4.6-1.5,7c-0.5,2.3-1.2,4.6-1.8,6.9l-0.3,1.1l-0.6-1c-1.2-2.1-2.4-4.3-3.6-6.4
			l-1.7-3.3c-0.5-1.1-1.1-2.2-1.7-3.2c0.4,0.4,0.7,1,1.1,1.4l1,1.5l1.9,3.1c1.3,2.1,2.5,4.2,3.7,6.3l-0.9,0.1c0.6-2.3,1.3-4.6,2-6.8
			C57.2,58.1,58,55.8,58.8,53.6z"/>
	</g>
	<g>
		<path class="st18" d="M55.4,67.7c0.3,2.3,0.5,4.7,0.7,7c0.1,1.2,0.3,2.3,0.3,3.5c0,1.2-0.1,2.3-0.3,3.5l-0.1,0
			c-0.3-1.2-0.5-2.3-0.6-3.5c-0.1-1.2-0.1-2.3-0.1-3.5C55.2,72.3,55.2,70,55.4,67.7L55.4,67.7z"/>
	</g>
	<path class="st107" d="M69,46.3c-0.2-3.2-1.9-6.2-4.1-8.6c-2.7-2.8-6.4-5-10.3-4.8c3.7-0.4,8.6-1.1,11.1,2.1
		C68.5,38.6,68.7,42.1,69,46.3z"/>
	<g>
		<path class="st18" d="M47.4,55.1c0.4,0.1,0.7-0.1,1-0.4c0.2-0.3,0.4-0.6,0.4-1c0-0.7-0.3-1.4-0.7-2l0.1,0
			c-0.1,0.6-0.1,1.3,0.2,1.9c0.2,0.6,0.7,1.2,1.3,1.2c0.3,0,0.4-0.3,0.5-0.6c0.1-0.3,0.2-0.6,0.3-0.9c0.1-0.6,0.2-1.3,0.1-2l0.1,0
			c-0.3,0.5-0.4,1.1-0.2,1.6c0.2,0.5,0.7,1,1.3,0.9c0.3-0.1,0.5-0.3,0.5-0.6c0.1-0.3,0.2-0.6,0.2-0.9c0.1-0.6,0.1-1.2-0.1-1.8l0.1,0
			c-0.4,1.1-0.2,2.5,0.5,3.4l-0.1,0c0.9-0.2,1.7-0.7,2.3-1.4c0.3-0.3,0.6-0.7,0.9-1.1c0.1-0.2,0.3-0.4,0.3-0.6
			c0.1-0.2,0.1-0.4-0.1-0.5l0.1,0c-0.4,0.4-0.4,1.1-0.3,1.7c0.1,0.6,0.3,1.2,0.9,1.4c0.3,0.1,0.6,0,0.7-0.2c0.2-0.2,0.2-0.5,0.3-0.8
			c0.1-0.6,0.1-1.2,0-1.9l0.1,0c-0.2,0.5-0.4,1-0.3,1.6c0.1,0.5,0.4,1,1,1.1c0,0,0,0,0,0c0,0,0,0,0,0c-0.6-0.1-1-0.6-1.1-1.2
			c-0.1-0.6,0.1-1.1,0.3-1.6c0,0,0.1-0.1,0.1,0c0,0,0,0,0,0.1c0.1,0.6,0.1,1.3,0,1.9c-0.1,0.3-0.1,0.6-0.3,0.9
			c-0.2,0.3-0.6,0.4-1,0.3c-0.3-0.1-0.6-0.3-0.8-0.6c-0.2-0.3-0.2-0.6-0.3-0.9c-0.1-0.6-0.1-1.4,0.4-1.9c0,0,0.1-0.1,0.1,0
			c0.3,0.2,0.3,0.6,0.2,0.8c-0.1,0.2-0.2,0.4-0.4,0.6c-0.3,0.4-0.6,0.8-0.9,1.1c-0.7,0.7-1.5,1.3-2.5,1.5c0,0-0.1,0-0.1,0
			c-0.7-1-0.9-2.4-0.5-3.6c0,0,0-0.1,0.1,0c0,0,0,0,0,0c0.1,0.6,0.1,1.2,0,1.8c0,0.3-0.1,0.6-0.2,0.9c-0.1,0.3-0.3,0.6-0.6,0.7
			c-0.6,0.1-1.2-0.3-1.4-0.9c-0.2-0.6-0.2-1.3,0.2-1.8c0,0,0.1,0,0.1,0c0,0,0,0,0,0.1c0.1,0.7,0,1.3-0.1,2c-0.1,0.3-0.2,0.7-0.3,1
			c-0.1,0.3-0.3,0.7-0.7,0.8c-0.4,0-0.7-0.2-1-0.5c-0.2-0.3-0.4-0.6-0.5-0.9c-0.3-0.6-0.3-1.3-0.2-2c0,0,0.1-0.1,0.1-0.1
			c0,0,0,0,0,0c0.5,0.6,0.8,1.3,0.7,2.1c0,0.4-0.2,0.8-0.4,1C48.2,55.1,47.8,55.2,47.4,55.1C47.4,55.1,47.4,55.1,47.4,55.1
			C47.4,55.1,47.4,55.1,47.4,55.1z"/>
	</g>
</g>
</svg>
