<?xml version="1.0" encoding="utf-8"?>
<!-- Generator: Adobe Illustrator 22.1.0, SVG Export Plug-In . SVG Version: 6.00 Build 0)  -->
<svg version="1.1" xmlns="http://www.w3.org/2000/svg" xmlns:xlink="http://www.w3.org/1999/xlink" x="0px" y="0px"
	 viewBox="0 0 110 110" style="enable-background:new 0 0 110 110;" xml:space="preserve">
<style type="text/css">
	.st0{clip-path:url(#SVGID_2_);}
	.st1{clip-path:url(#SVGID_4_);fill:#83B950;}
	.st2{clip-path:url(#SVGID_6_);}
	.st3{clip-path:url(#SVGID_8_);fill:#757581;}
	.st4{clip-path:url(#SVGID_10_);}
	.st5{clip-path:url(#SVGID_12_);fill:#83B950;}
	.st6{clip-path:url(#SVGID_14_);}
	.st7{clip-path:url(#SVGID_16_);fill:#757581;}
	.st8{fill:#666666;}
	.st9{clip-path:url(#SVGID_18_);}
	.st10{clip-path:url(#SVGID_20_);fill:#83B950;}
	.st11{clip-path:url(#SVGID_22_);}
	.st12{clip-path:url(#SVGID_24_);fill:#757581;}
	.st13{clip-path:url(#SVGID_26_);}
	.st14{clip-path:url(#SVGID_28_);fill:#83B950;}
	.st15{clip-path:url(#SVGID_30_);}
	.st16{clip-path:url(#SVGID_32_);fill:#757581;}
	.st17{fill:#8D5296;}
	.st18{fill:#1F1D1E;}
	.st19{clip-path:url(#SVGID_34_);}
	.st20{clip-path:url(#SVGID_36_);fill:#83B950;}
	.st21{clip-path:url(#SVGID_38_);}
	.st22{clip-path:url(#SVGID_40_);fill:#757581;}
	.st23{fill:#7BA74E;stroke:#83B950;stroke-miterlimit:10;}
	.st24{clip-path:url(#SVGID_42_);}
	.st25{clip-path:url(#SVGID_44_);fill:#83B950;}
	.st26{clip-path:url(#SVGID_46_);}
	.st27{clip-path:url(#SVGID_48_);fill:#757581;}
	.st28{fill:#83B950;}
	.st29{clip-path:url(#SVGID_50_);}
	.st30{clip-path:url(#SVGID_52_);fill:#83B950;}
	.st31{clip-path:url(#SVGID_54_);}
	.st32{clip-path:url(#SVGID_56_);fill:#757581;}
	.st33{fill:#545454;}
	.st34{clip-path:url(#SVGID_58_);}
	.st35{clip-path:url(#SVGID_60_);fill:#83B950;}
	.st36{clip-path:url(#SVGID_62_);}
	.st37{clip-path:url(#SVGID_64_);fill:#757581;}
	.st38{fill:#F9F9F9;}
	.st39{fill:none;stroke:#0090CF;stroke-width:5;stroke-miterlimit:10;}
	.st40{fill:#0090CF;}
	.st41{fill:none;stroke:#0090CF;stroke-width:2;stroke-miterlimit:10;}
	.st42{fill:none;stroke:#1F8174;stroke-width:5;stroke-miterlimit:10;}
	.st43{fill:#1F8174;}
	.st44{fill:none;stroke:#FF6F4A;stroke-width:5;stroke-miterlimit:10;}
	.st45{fill:#FF6F4A;}
	.st46{fill:none;stroke:#99ABB2;stroke-width:2;stroke-miterlimit:10;}
	.st47{fill:#FFD41C;}
	.st48{fill:none;stroke:#FFD41C;stroke-width:5;stroke-miterlimit:10;}
	.st49{fill:none;stroke:#BA1965;stroke-width:5;stroke-miterlimit:10;}
	.st50{fill:#BA1965;}
	.st51{fill:#4D4D4D;}
	.st52{fill:none;stroke:#0090CF;stroke-miterlimit:10;}
	.st53{fill:none;stroke:#FF6F4A;stroke-miterlimit:10;}
	.st54{fill:none;stroke:#1F8174;stroke-miterlimit:10;}
	.st55{fill:none;stroke:#FFD41C;stroke-miterlimit:10;}
	.st56{fill:none;stroke:#BA1965;stroke-miterlimit:10;}
	.st57{fill:none;stroke:#99ABB2;stroke-width:2;stroke-miterlimit:10;stroke-dasharray:2,2;}
	.st58{fill:#99ABB2;}
	.st59{fill:#D5E3EF;}
	.st60{fill:#B0C4D9;}
	.st61{fill:#F79548;}
	.st62{fill:#FCBB76;}
	.st63{fill:#99B4CD;}
	.st64{fill:#6C9ABB;}
	.st65{fill:#70B7E5;}
	.st66{fill:#F04B4D;}
	.st67{fill:#4C9CD6;}
	.st68{fill:#F04D4E;}
	.st69{fill:#DB343F;}
	.st70{fill:#ECF0F9;}
	.st71{fill:#F26A56;}
	.st72{fill:#6E18FF;}
	.st73{fill:none;stroke:#000000;stroke-miterlimit:10;}
	.st74{fill:none;stroke:#000000;stroke-miterlimit:10;stroke-dasharray:2.0164,2.0164;}
	.st75{fill:none;stroke:#000000;stroke-miterlimit:10;stroke-dasharray:2,2;}
	.st76{fill:none;stroke:#6E18FF;stroke-miterlimit:10;}
	.st77{fill:#464655;}
	.st78{fill:#FFFFFF;}
	.st79{fill:#BEC8DC;}
	.st80{fill:#AFBBD0;}
	.st81{fill:#96A5B9;}
	.st82{fill:#E4EAF6;}
	.st83{fill:#FF6469;}
	.st84{fill:none;stroke:#000000;stroke-miterlimit:10;stroke-dasharray:2.0247,2.0247;}
	.st85{fill:none;stroke:#6E18FF;stroke-miterlimit:10;stroke-dasharray:2.0247,2.0247;}
	.st86{fill:#F1E00F;}
	.st87{fill:#C52171;}
	.st88{fill:none;stroke:#FBFAE1;stroke-miterlimit:10;}
	.st89{fill:#4C9E81;}
	.st90{fill:#2F5B46;}
	.st91{fill:#2090BC;}
	.st92{fill:#097189;}
	.st93{fill:#33AEE1;}
	.st94{fill:none;stroke:#1F1D1E;stroke-miterlimit:10;}
	.st95{fill:#89C8E9;}
	.st96{fill:#CBE5EB;}
	.st97{fill:#E4E3B2;}
	.st98{fill:#241622;}
	.st99{fill:#662D91;}
	.st100{fill:#4E237C;}
	.st101{fill:#333233;}
	.st102{fill:#CC898E;}
	.st103{fill:#CCCCCC;}
	.st104{fill:#E4A42E;}
	.st105{fill:#D38A31;}
	.st106{fill:#BB5F77;}
	.st107{fill:#FCF7FA;}
</style>
<g id="Capa_1">
</g>
<g id="pintura">
</g>
<g id="detalles">
</g>
<g id="ilustracion">
	<g>
		<path class="st99" d="M17,31.3L80.9,98c5.6-7.4,7.6-10.7,14.1-17.2L29.3,12.2C24.2,18.1,19.3,26.3,17,31.3z"/>
		<path class="st100" d="M45.3,43.2c2.5,3.6,5.4,6.9,7.5,10.7c3.1,5.5,4.6,11.7,6.1,17.9L17.7,30.6c2.6-1.8,4.6-4.5,5.6-7.6
			c0.8-2.3,1-7.2,4.3-5.6c2.6,1.2,5.2,5.7,6.8,8C38.2,31.2,41.3,37.5,45.3,43.2z"/>
		<g>
			<path class="st101" d="M17,30.7l32.6,32.1C60.4,73.5,71.1,84.2,81.9,95l-0.7,0c2.3-2.9,4.4-5.8,6.8-8.7c2.3-2.9,4.9-5.5,7.5-8.1
				l0,0.7L75.4,58L55.1,37.2c-6.8-6.9-13.5-13.8-20.6-20.5c-0.9-0.8-1.8-1.6-2.7-2.4c-0.5-0.4-0.9-0.8-1.4-1.1
				c-0.2-0.2-0.5-0.4-0.7-0.5c-0.1-0.1-0.1-0.1-0.3,0c-0.1,0-0.2,0.1-0.3,0.2c-0.9,0.7-1.7,1.7-2.4,2.6c-0.7,1-1.5,1.9-2.1,2.9
				C21.8,22.3,19.2,26.4,17,30.7z M17,30.7c2.2-4.3,4.7-8.5,7.4-12.5c0.7-1,1.4-2,2.1-3c0.7-1,1.5-1.9,2.4-2.7
				c0.1-0.1,0.3-0.2,0.4-0.3c0.1,0,0.2-0.1,0.3-0.1c0.1,0,0.2,0.1,0.3,0.1c0.3,0.1,0.5,0.3,0.8,0.5c0.5,0.4,1,0.8,1.4,1.1
				c0.9,0.8,1.8,1.6,2.7,2.4c7.1,6.6,13.9,13.5,20.8,20.3c6.8,6.9,13.6,13.8,20.3,20.7c6.7,6.9,13.5,13.9,20.2,20.9l0.3,0.4L96.2,79
				c-2.6,2.5-5.2,5.2-7.5,8c-2.3,2.8-4.5,5.8-6.8,8.6L81.6,96l-0.4-0.4C70.4,84.8,59.7,74,49,63.1L17,30.7z"/>
		</g>
		<g>
			<polygon class="st101" points="33.8,16.6 30.1,22.3 32.9,16.1 			"/>
		</g>
		<g>
			<path class="st101" d="M40.9,23.6c-1.1,1.2-2.1,2.6-2.9,4.2c0.5-1.7,1.2-3.3,2.1-4.8L40.9,23.6z"/>
		</g>
		<g>
			<polygon class="st101" points="46.4,29.8 42.9,35.1 45.5,29.3 			"/>
		</g>
		<g>
			<polygon class="st101" points="54.1,37.5 50.4,42.3 53.2,37 			"/>
		</g>
		<g>
			<path class="st101" d="M61.3,44.8c-1.1,1.3-2.4,2.4-3.8,3.3c1.2-1.2,2.2-2.5,3-3.9L61.3,44.8z"/>
		</g>
		<g>
			<polygon class="st101" points="69.1,52.1 63.8,57.1 68.4,51.5 			"/>
		</g>
		<g>
			<polygon class="st101" points="76.4,58.8 72.6,62.6 75.6,58.2 			"/>
		</g>
		<g>
			<path class="st101" d="M82.2,65.6c-1.4,0.8-2.7,1.8-3.7,3.2c0.7-1.5,1.8-2.9,3.1-4L82.2,65.6z"/>
		</g>
		<g>
			<path class="st101" d="M87.6,71c-1.6,0.8-3.2,1.9-4.5,3.2c1.1-1.5,2.4-2.9,4-4.1L87.6,71z"/>
		</g>
		<g>
			<polygon class="st101" points="91.5,74.7 86.9,79.1 90.7,74.1 			"/>
		</g>
		<g>
			<path class="st101" d="M23.5,23.9c-0.1,0.4,0.1,0.9,0.4,1.1c0.3,0.3,0.7,0.4,1,0.3c0.3-0.1,0.5-0.4,0.6-0.8
				c0.1-0.3-0.1-0.7-0.2-0.8l0.1,0.1c-0.3-0.1-0.6-0.2-1-0.2c-0.4,0.1-0.8,0.2-1.1,0.6l-0.1,0c-0.1-0.6,0.4-1.1,0.9-1.4
				c0.3-0.1,0.6-0.2,0.9-0.2c0.3,0,0.7,0.1,0.9,0.4l0.1,0l0,0c0.5,0.5,0.5,1.2,0.3,1.7c-0.2,0.5-0.6,1-1.2,1.1
				c-0.6,0.1-1.1-0.2-1.4-0.6C23.3,24.9,23.2,24.3,23.5,23.9L23.5,23.9z"/>
		</g>
		<g>
			<path class="st101" d="M83.7,83.6c0.3,0.4,0.4,0.7,0.7,1c0.2,0.3,0.5,0.4,0.7,0.4c0.2,0,0.3-0.1,0.3-0.1c0,0,0.1-0.2,0.1-0.4
				c0-0.5-0.2-1-0.5-1.2c-0.1-0.2-1.1,0-0.9,0.8l-0.1,0.1c-0.3-0.3-0.2-0.9,0.1-1.2c0.3-0.3,0.7-0.5,1.1-0.4c0.9,0.2,1.3,1.1,1.3,2
				c0,0.4-0.1,0.9-0.5,1.1c-0.3,0.3-0.9,0.3-1.2,0.1C83.9,85.3,83.8,84.4,83.7,83.6L83.7,83.6z"/>
		</g>
	</g>
	<g>
		<g>
			<path class="st102" d="M88.6,36.2C91,34.6,97.5,26.6,97,25c-0.3-0.9-2.7-4.1-3.3-4.8c-0.4-0.5-2.3-2.6-2.7-3.1
				C88,14,79.1,21.8,76.8,24c-0.2,0.1-0.3,0.3-0.4,0.5c-0.1,0.3,0.1,0.6,0.3,0.9c1.9,2.5,5.1,3.8,6.4,6.6L88.6,36.2z"/>
			<path class="st103" d="M76.2,24.8c-1-0.2-1.4,0.6-2.2,1.2c-0.9,0.7-1.7,2.6-2,3c-0.6,1,8,6,12,12c0,0,4-3,4-4
				C88,35.6,76.8,24.9,76.2,24.8z"/>
			<g>
				<g>
					<path class="st104" d="M34.9,78.8c0-1.1-0.9-3.5-1.3-4.5c-0.7-1.6-2.5-2.9-4.2-2.4c5.5-6.7,10.1-12.4,17.2-19l25.2-23.7
						L84,41.4C67.7,55.1,54.2,69.8,39.5,84.5c0.3-1.6,0.6-3.8-0.7-4.7c-0.9-0.6-4-0.4-4.3-0.8c-0.4-0.8,1.9-3,2.3-3.6
						c3-3.8,6.4-7,9.9-10.4c6.6-6.4,14.2-11.7,20-18.9"/>
					<path class="st104" d="M22.5,93.5c1.1-7.9,4.6-17,6.1-20.3"/>
					<path class="st104" d="M31,88.6c-2.7,2-5.6,3.3-8.5,4.9c0-2.3,1.1-5.7,2.3-10.2C25.4,83.6,30.6,88.9,31,88.6z"/>
					<path class="st104" d="M30.4,89c3.3-1.5,6.9-3.5,10-5.3"/>
					<path class="st104" d="M78.4,35.5c-1,0.3-4.3,3-5,3.8c-2.5,3-2.9,3.9-5.7,5.7"/>
				</g>
				<g>
					<path class="st101" d="M34.4,78.8c0-0.7-0.3-1.5-0.5-2.3c-0.3-0.8-0.6-1.6-0.9-2.2c-0.3-0.7-0.9-1.2-1.5-1.6
						c-0.6-0.4-1.4-0.5-2-0.3L28,72.9l1-1.2c3.7-4.5,7.4-9,11.4-13.2c2-2.1,4.1-4.2,6.2-6.1l6.3-6.1c4.2-4,8.4-8.1,12.6-12.1l3.2-3
						c0.5-0.5,1.1-1,1.6-1.4c0.3-0.2,0.6-0.5,0.9-0.7c0.1-0.1,0.1-0.1,0.3-0.2c0.4,0,0.4,0.1,0.5,0.1c0.2,0.1,0.3,0.2,0.5,0.3
						c2.3,1.8,4.4,3.9,6.5,5.9c1,1,2,2.1,3,3.2c0.5,0.5,1,1.1,1.4,1.7c0.2,0.3,0.4,0.6,0.6,1c0,0.1,0,0.1,0.1,0.2l0,0.1
						c0,0,0,0.1,0,0.1l0,0.1c-0.1,0.2-0.1,0.2-0.2,0.3c-0.1,0.2-0.2,0.3-0.4,0.5c-2,2.2-4.1,4.2-6.2,6.2c-4.2,4-8.5,8-12.7,12
						c-8.5,8-17,15.9-25.3,24.1l-0.3,0.3l0.1-0.4c0.2-1.1,0.4-2.3,0.1-3.4c-0.1-0.5-0.5-1-0.9-1.3c-0.5-0.2-1.1-0.3-1.7-0.3
						c-0.6-0.1-1.2-0.1-1.7-0.2c-0.1,0-0.3,0-0.4-0.1c-0.1,0-0.2-0.1-0.2-0.1c-0.1-0.1-0.1-0.2-0.2-0.2c-0.1-0.4,0.1-0.6,0.2-0.9
						c0.6-1,1.5-1.8,2.2-2.7c2.9-3.6,6.3-6.9,9.6-10.1c3.3-3.2,6.9-6.2,10.4-9.2c3.5-3.1,6.9-6.2,9.8-9.8c-2.9,3.6-6.3,6.8-9.8,9.9
						c-3.5,3.1-7,6-10.4,9.3c-3.3,3.2-6.7,6.5-9.5,10.1c-0.8,0.9-1.6,1.7-2.2,2.7c-0.1,0.2-0.3,0.5-0.2,0.7c0,0.2,0.4,0.2,0.6,0.3
						c0.6,0.1,1.1,0.1,1.7,0.2c0.6,0.1,1.2,0.1,1.7,0.4c0.6,0.3,0.9,0.9,1.1,1.4c0.3,1.2,0.1,2.4-0.1,3.5l-0.2-0.1
						c8.2-8.2,16.7-16.2,25.2-24.2c4.2-4,8.5-8,12.7-12c2.1-2,4.2-4,6.1-6.2c0.2-0.3,0.5-0.6,0.3-0.6c-0.1-0.3-0.4-0.6-0.6-0.9
						c-0.4-0.6-0.9-1.1-1.4-1.7c-1-1.1-2-2.1-3-3.1c-2.1-2-4.2-4.1-6.4-5.8c-0.1-0.1-0.3-0.2-0.4-0.3c0,0-0.2,0,0-0.1
						c0,0-0.1,0-0.1,0.1c-0.3,0.2-0.6,0.4-0.8,0.7c-0.5,0.5-1.1,1-1.6,1.4l-3.2,3c-4.2,4-8.4,8-12.6,12.1l-6.2,6.1
						c-2.1,2-4.2,4-6.2,6.2c-4,4.2-7.6,8.7-11.3,13.2l-0.5-0.8c0.9-0.3,2-0.1,2.8,0.4c0.8,0.5,1.5,1.2,1.9,2
						c0.4,0.8,0.7,1.6,0.9,2.4c0.3,0.8,0.5,1.6,0.6,2.6L34.4,78.8z"/>
				</g>
				<g>
					<path class="st101" d="M31.3,89c-2.7,2-5.8,3.2-8.6,4.8l-0.5,0.3l0-0.6c0.1-1.8,0.6-3.5,1-5.2l1.4-5l0.1-0.2l0.1,0.1
						c0.6,0.4,1.1,0.9,1.6,1.4l1.5,1.4l1.5,1.4l0.8,0.7c0.3,0.2,0.5,0.5,0.8,0.6L31.3,89z M31,88.6c-0.3-0.1-0.6-0.3-0.9-0.5
						l-0.8-0.7l-1.5-1.4l-1.5-1.4c-0.5-0.4-1-0.9-1.5-1.3l0.2-0.1l-1.2,5.1c-0.4,1.7-0.8,3.4-0.8,5.1l-0.5-0.3c2.8-1.6,5.8-3,8.3-5
						L31,88.6z"/>
				</g>
				<g>
					<path class="st101" d="M22,93.4c0.6-3.5,1.6-7,2.7-10.3c1.1-3.4,2.4-6.7,3.9-9.9c-1.4,3.3-2.5,6.6-3.5,10
						c-1,3.4-1.7,6.8-2.2,10.3L22,93.4z"/>
				</g>
				<g>
					<path class="st101" d="M30.2,88.5c3.5-1.4,6.9-3.1,10.2-4.8c-3.2,2-6.4,4.1-9.8,5.8L30.2,88.5z"/>
				</g>
				<g>
					<path class="st101" d="M78.5,35.9c-0.4,0.2-1,0.5-1.4,0.8c-0.5,0.3-1,0.7-1.4,1c-0.5,0.4-0.9,0.7-1.4,1.1
						c-0.2,0.2-0.4,0.4-0.6,0.6l-0.6,0.7c-0.8,0.9-1.6,1.8-2.4,2.7c-0.9,0.8-1.9,1.5-2.9,2.1c1-0.7,1.9-1.4,2.7-2.3
						c0.8-0.9,1.4-1.9,2.2-2.8l0.5-0.7c0.2-0.3,0.4-0.5,0.7-0.7c0.4-0.4,0.9-0.8,1.4-1.2c0.5-0.4,0.9-0.8,1.4-1.1
						c0.5-0.4,1-0.7,1.6-1L78.5,35.9z"/>
				</g>
			</g>
			<g>
				<path class="st101" d="M76.2,24.8c-0.5-0.1-1,0.1-1.3,0.4c-0.4,0.3-0.7,0.7-1.1,1c-0.7,0.7-1.1,1.6-1.5,2.5L72.1,29
					c-0.1,0.1-0.1,0.2,0,0.3c0.1,0.2,0.3,0.4,0.4,0.5c0.3,0.3,0.7,0.6,1.1,0.9l2.3,1.8c3.1,2.4,6.2,4.9,8.5,8.2l-0.7-0.1
					c0.7-0.6,1.5-1.1,2.2-1.8c0.4-0.3,0.7-0.6,1-0.9c0.2-0.2,0.3-0.3,0.4-0.5c0.1-0.1,0.1-0.2,0.2-0.2l0.1-0.1c0,0,0,0,0,0
					c0,0-0.1-0.2-0.2-0.4c-0.1-0.2-0.2-0.4-0.4-0.6c-0.3-0.4-0.6-0.7-0.9-1.1c-0.6-0.7-1.2-1.4-1.8-2.2c-1.3-1.4-2.6-2.8-3.9-4.2
					C79.1,27.3,77.7,25.9,76.2,24.8z M76.2,24.8c0.8,0.5,1.5,1.2,2.2,1.8l2.1,1.9c1.4,1.3,2.8,2.6,4.1,3.9c0.7,0.7,1.3,1.3,2,2
					c0.3,0.3,0.6,0.7,1,1.1c0.2,0.2,0.3,0.4,0.5,0.6c0.1,0.1,0.1,0.2,0.2,0.3c0,0.1,0.1,0.1,0.1,0.2c0,0.1,0.1,0.2,0,0.3
					c0,0.1,0,0.2-0.1,0.3l-0.1,0.2c-0.1,0.1-0.1,0.2-0.2,0.4c-0.2,0.2-0.3,0.4-0.5,0.6c-0.3,0.4-0.7,0.7-1,1
					c-0.7,0.6-1.5,1.3-2.2,1.8l-0.4,0.3l-0.3-0.4c-1.1-1.6-2.3-3-3.7-4.4c-1.4-1.4-2.8-2.7-4.3-4L73.4,31c-0.4-0.3-0.7-0.7-1.1-1
					c-0.2-0.2-0.3-0.4-0.4-0.6c0-0.1,0-0.1,0-0.2c0-0.1,0.1-0.2,0.1-0.2l0.2-0.3c0.5-0.8,1-1.7,1.6-2.4c0.4-0.3,0.7-0.6,1.1-1
					C75.2,24.8,75.7,24.6,76.2,24.8z"/>
			</g>
			<g>
				<path class="st101" d="M88.6,36.1c0.8-0.7,1.5-1.5,2.2-2.3c0.7-0.8,1.4-1.6,2-2.5c1.3-1.7,2.6-3.4,3.5-5.3
					c0.1-0.2,0.2-0.5,0.2-0.7c0-0.1,0-0.2,0-0.2c0-0.1-0.1-0.2-0.1-0.3c-0.2-0.4-0.5-0.9-0.8-1.4c-0.6-0.9-1.2-1.8-1.8-2.7
					c-0.6-0.9-1.3-1.7-2-2.5c-0.3-0.4-0.7-0.8-1.1-1.2c-0.4-0.4-0.8-0.5-1.4-0.6c-1-0.1-2.1,0.3-3,0.8c-1,0.5-1.9,1-2.7,1.6
					c-1.8,1.2-3.4,2.6-5,4L77.5,24c-0.2,0.2-0.4,0.4-0.5,0.5c-0.1,0.1-0.1,0,0,0.2c0.1,0.1,0.2,0.3,0.4,0.5c0.2,0.2,0.3,0.4,0.5,0.6
					c0.4,0.4,0.7,0.7,1.1,1.1c1.6,1.4,3.5,2.7,4.5,4.8l-0.1-0.1C85.1,33.1,86.8,34.5,88.6,36.1z M88.6,36.2c-1.8-1.3-3.8-2.6-5.7-4
					l-0.1,0l0-0.1c-0.9-1.8-2.8-3-4.5-4.4c-0.4-0.3-0.8-0.7-1.2-1.1c-0.2-0.2-0.4-0.4-0.6-0.6c-0.2-0.2-0.4-0.4-0.5-0.8
					c-0.1-0.2-0.1-0.4-0.1-0.6c0-0.3,0.1-0.5,0.3-0.7c0.3-0.3,0.4-0.4,0.6-0.6l1.2-1.1c1.7-1.4,3.4-2.7,5.3-3.9
					c0.9-0.6,1.9-1.1,2.9-1.5c1-0.4,2.1-0.7,3.3-0.6c0.6,0.1,1.1,0.3,1.5,0.7l1.1,1.2c0.7,0.8,1.5,1.6,2.2,2.4
					c0.7,0.8,1.4,1.7,2,2.5c0.3,0.4,0.6,0.9,0.9,1.4c0.1,0.1,0.1,0.3,0.2,0.5c0.1,0.2,0,0.4,0,0.6c0,0.3-0.2,0.6-0.3,0.9
					c-0.5,1.1-1.1,1.9-1.7,2.8c-0.6,0.9-1.3,1.7-2,2.6C92,33.4,90.5,35,88.6,36.2z"/>
			</g>
		</g>
		<path class="st105" d="M57.4,59.4c-7,6.4-14,12.9-21.1,19.3c1.3-0.7,2.7-1.4,4.2-1c1.4,0.4,2.2,2.6,1,3.3
			c13-9.2,21.5-23.4,33.8-33.5c2-1.6,4-3.1,6.1-4.7c0.5-0.4,1.2-0.9,1.1-1.6c0-0.5-0.4-0.9-0.8-1.3c-3.1-2.8-3.2-2.4-5.7,0.7
			c-1.9,2.3-3.9,4.5-6,6.7C65.9,51.6,61.6,55.5,57.4,59.4z"/>
		<path class="st106" d="M89.4,28.3c-1.6,1.2-3.4,2.1-5.3,2.9c0.7,1.8,2.2,3.2,4.1,3.8c0.4,0.1,0.8,0.2,1.1,0
			c0.2-0.1,0.3-0.3,0.5-0.4c1.2-1.6,2.5-3.2,3.7-4.7c0.8-1,1.6-2,1.8-3.3c0.4-1.7-0.2-3.7-2-2.8C91.9,24.5,90.9,27.3,89.4,28.3z"/>
	</g>
</g>
</svg>
