<?xml version="1.0" encoding="utf-8"?>
<!-- Generator: Adobe Illustrator 22.1.0, SVG Export Plug-In . SVG Version: 6.00 Build 0)  -->
<svg version="1.1" id="Capa_1" xmlns="http://www.w3.org/2000/svg" xmlns:xlink="http://www.w3.org/1999/xlink" x="0px" y="0px"
	 viewBox="0 0 110 110" style="enable-background:new 0 0 110 110;" xml:space="preserve">
<style type="text/css">
	.st0{fill:#00E2EB;}
	.st1{fill:#00A2A4;}
	.st2{clip-path:url(#SVGID_2_);}
	.st3{clip-path:url(#SVGID_4_);fill:#83B950;}
	.st4{clip-path:url(#SVGID_6_);}
	.st5{clip-path:url(#SVGID_8_);fill:#757581;}
	.st6{fill:#666666;}
	.st7{clip-path:url(#SVGID_10_);}
	.st8{clip-path:url(#SVGID_12_);fill:#83B950;}
	.st9{clip-path:url(#SVGID_14_);}
	.st10{clip-path:url(#SVGID_16_);fill:#757581;}
	.st11{clip-path:url(#SVGID_18_);}
	.st12{clip-path:url(#SVGID_20_);fill:#83B950;}
	.st13{clip-path:url(#SVGID_22_);}
	.st14{clip-path:url(#SVGID_24_);fill:#757581;}
	.st15{fill:#F9F9F9;}
	.st16{fill:none;stroke:#0090CF;stroke-width:5;stroke-miterlimit:10;}
	.st17{fill:#0090CF;}
	.st18{fill:none;stroke:#0090CF;stroke-width:2;stroke-miterlimit:10;}
	.st19{fill:none;stroke:#1F8174;stroke-width:5;stroke-miterlimit:10;}
	.st20{fill:#1F8174;}
	.st21{fill:none;stroke:#FF6F4A;stroke-width:5;stroke-miterlimit:10;}
	.st22{fill:#FF6F4A;}
	.st23{fill:none;stroke:#99ABB2;stroke-width:2;stroke-miterlimit:10;}
	.st24{fill:#FFD41C;}
	.st25{fill:none;stroke:#FFD41C;stroke-width:5;stroke-miterlimit:10;}
	.st26{fill:none;stroke:#BA1965;stroke-width:5;stroke-miterlimit:10;}
	.st27{fill:#BA1965;}
	.st28{fill:#4D4D4D;}
	.st29{fill:none;stroke:#0090CF;stroke-miterlimit:10;}
	.st30{fill:none;stroke:#FF6F4A;stroke-miterlimit:10;}
	.st31{fill:none;stroke:#1F8174;stroke-miterlimit:10;}
	.st32{fill:none;stroke:#FFD41C;stroke-miterlimit:10;}
	.st33{fill:none;stroke:#BA1965;stroke-miterlimit:10;}
	.st34{fill:none;stroke:#99ABB2;stroke-width:2;stroke-miterlimit:10;stroke-dasharray:2,2;}
	.st35{fill:#99ABB2;}
	.st36{fill:#D5E3EF;}
	.st37{fill:#B0C4D9;}
	.st38{fill:#F79548;}
	.st39{fill:#FCBB76;}
	.st40{fill:#99B4CD;}
	.st41{fill:#6C9ABB;}
	.st42{fill:#70B7E5;}
	.st43{fill:#F04B4D;}
	.st44{fill:#4C9CD6;}
	.st45{fill:#F04D4E;}
	.st46{fill:#DB343F;}
	.st47{fill:#ECF0F9;}
	.st48{fill:#F26A56;}
	.st49{fill:#6E18FF;}
	.st50{fill:none;stroke:#000000;stroke-miterlimit:10;}
	.st51{fill:none;stroke:#000000;stroke-miterlimit:10;stroke-dasharray:2.0164,2.0164;}
	.st52{fill:none;stroke:#000000;stroke-miterlimit:10;stroke-dasharray:2,2;}
	.st53{fill:none;stroke:#6E18FF;stroke-miterlimit:10;}
	.st54{fill:#464655;}
	.st55{fill:#FFFFFF;}
	.st56{fill:#BEC8DC;}
	.st57{fill:#AFBBD0;}
	.st58{fill:#96A5B9;}
	.st59{fill:#E4EAF6;}
	.st60{fill:#FF6469;}
	.st61{fill:#A8266E;}
	.st62{fill:#261C27;}
	.st63{fill:#242223;}
</style>
<path class="st0" d="M37.6,10.5c0.8,0,18.6,17.2,26,23.4C72.2,24.6,89.5,16,99.7,8.5c-0.6,27.1,1,51.8,0,78.2
	C92.4,92.1,60.6,105,62.6,107c-8-8.1-18-17.2-27.2-23.9c-7.8,7.2-21.8,15.8-30.3,23.8c1.4-1.3,1.4-74,1.4-74
	C10.7,26.8,36.6,10.5,37.6,10.5z"/>
<path class="st1" d="M59.9,31.8c0.5,0.3,1,0.7,1.3,1.2c0.5,0.8,0.1,66.8-1.2,70c-5.6-4.1-24-20.4-24-21c-0.9-13,2-30.1,1.5-43.2
	c-0.1-3.3-0.2-6.6-0.3-9.9C37.2,26.4,37,15,37,15S54.5,28.1,59.9,31.8z"/>
<g>
	<path d="M36.5,10.5c0.7,0.4,1.2,0.9,1.8,1.3l1.6,1.4l3.2,2.9l6.4,5.8c2.1,1.9,4.3,3.9,6.5,5.8c2.2,1.9,4.4,3.8,6.6,5.6l-0.3,0
		c2.5-2.7,5.4-5,8.3-7.2c3-2.2,6-4.2,9.1-6.2C86,16,92.3,12.4,98.2,8.1L99,7.6l0,0.9c-0.3,12.8-0.1,25.7,0,38.5
		c0.1,6.4,0.1,12.8,0.1,19.3c0,6.4-0.2,12.8-0.4,19.3l0,0.1l-0.1,0c-2.9,2-6.1,3.6-9.3,5.2c-3.2,1.6-6.4,3.1-9.6,4.6
		c-3.2,1.5-6.4,3-9.5,4.6c-1.6,0.8-3.2,1.6-4.7,2.5c-0.8,0.4-1.5,0.9-2.3,1.4c-0.4,0.2-0.7,0.5-1,0.8c-0.2,0.1-0.3,0.3-0.4,0.4
		c-0.1,0.1-0.1,0.1-0.1,0.2c0,0,0,0,0,0l-0.4,0.4c-4.3-4.2-8.7-8.3-13.2-12.2c-4.5-3.9-9.2-7.7-14.1-11.2l0.6,0
		c-2.4,2.2-4.9,4.1-7.5,6.1c-2.6,1.9-5.1,3.8-7.7,5.7c-5.2,3.7-10.3,7.5-15,11.8L3.7,105c-0.1,0.2,0,0,0,0c0-0.1,0-0.2,0.1-0.2
		c0-0.2,0.1-0.4,0.1-0.5c0-0.4,0.1-0.7,0.1-1.1c0.1-0.7,0.1-1.5,0.2-2.3c0.1-1.5,0.1-3,0.2-4.5c0.1-3,0.2-6.1,0.3-9.1L4.8,69
		C5,56.8,5.2,44.7,5.3,32.5l0-0.1l0-0.1c1-1.3,2.2-2.4,3.4-3.4c1.2-1,2.5-2,3.7-3c2.5-1.9,5.2-3.7,7.8-5.5c2.6-1.8,5.3-3.5,8-5.2
		c1.3-0.8,2.7-1.7,4.1-2.5l2.1-1.2C35.1,11.2,35.7,10.7,36.5,10.5z M36.5,10.5c-0.7,0.3-1.4,0.7-2.1,1.1l-2.1,1.2
		c-1.4,0.8-2.7,1.7-4,2.5c-2.7,1.7-5.3,3.5-8,5.3c-2.6,1.8-5.2,3.7-7.7,5.6c-1.3,1-2.5,2-3.7,3c-1.2,1.1-2.4,2.1-3.3,3.4l0-0.1
		c0.1,12.2,0.1,24.3,0,36.5c0,6.1-0.1,12.2-0.2,18.2c-0.1,3-0.1,6.1-0.2,9.1c-0.1,1.5-0.1,3-0.2,4.6c0,0.8-0.1,1.5-0.2,2.3
		c0,0.4-0.1,0.8-0.1,1.2c0,0.2-0.1,0.4-0.1,0.6c0,0.1,0,0.2-0.1,0.3c-0.1,0.1,0,0.2-0.3,0.5L3.7,105c4.7-4.4,10-8.1,15.1-11.8
		c2.6-1.9,5.2-3.7,7.7-5.6c2.5-1.9,5.1-3.9,7.4-6l0.3-0.3l0.3,0.2c4.9,3.5,9.5,7.4,14,11.4c4.5,4,8.9,8.1,13.1,12.4l-0.4,0.4
		c-0.2-0.1-0.2-0.4-0.2-0.6c0-0.2,0.1-0.3,0.2-0.4c0.2-0.2,0.3-0.4,0.5-0.5c0.4-0.3,0.7-0.6,1.1-0.8c0.8-0.5,1.5-0.9,2.3-1.4
		c1.6-0.9,3.1-1.6,4.7-2.4c3.2-1.6,6.4-3.1,9.6-4.6c3.2-1.5,6.4-3,9.6-4.6c3.2-1.6,6.4-3.1,9.3-5.1l-0.1,0.1
		c0.3-6.4,0.3-12.8,0.3-19.2c0-6.4-0.1-12.8-0.3-19.2c-0.3-12.8-0.5-25.7-0.3-38.5l0.7,0.4c-3,2.2-6.1,4.1-9.2,6l-9.4,5.7
		c-3.1,1.9-6.2,3.9-9.2,6c-3,2.1-5.8,4.4-8.4,7l-0.1,0.1l-0.1-0.1c-4.4-3.7-8.7-7.7-12.9-11.6L43,16.2l-3.2-2.9l-1.6-1.4
		C37.6,11.4,37.1,10.9,36.5,10.5z"/>
</g>
<g>
	<path d="M36,10.5l0.2,0l0.1,0l0,0.1c0.3,5.2,0.4,10.3,0.4,15.5c-0.1,2.6-0.2,5.2-0.3,7.8c0,2.6,0,5.2,0.1,7.8
		c0.2,5.2,0.3,10.3,0.3,15.5c-0.1,5.2-0.2,10.3-0.5,15.5h-0.1c-0.3-5.2-0.4-10.3-0.5-15.5c0-5.2,0.1-10.3,0.3-15.5
		c0.1-2.6,0.1-5.2,0.1-7.8c0-2.6-0.2-5.2-0.3-7.8c-0.1-5.2,0-10.3,0.4-15.5l0.1,0.1L36,10.5L36,10.5z"/>
</g>
<g>
	<path d="M61.2,42c0.3,5.3,0.4,10.7,0.4,16c-0.1,2.7-0.2,5.3-0.3,8c0,2.7,0,5.3,0.1,8c0.2,5.3,0.3,10.7,0.3,16
		c-0.1,5.3-0.2,10.7-0.5,16h-0.1c-0.3-5.3-0.4-10.7-0.5-16c0-5.3,0.1-10.7,0.3-16c0.1-2.7,0.1-5.3,0.1-8c0-2.7-0.2-5.3-0.3-8
		C60.7,52.7,60.8,47.3,61.2,42L61.2,42z"/>
</g>
<g>
	<g>
		<polygon points="16.7,81.3 16.8,80.3 17,80.3 16.8,81.3 		"/>
		<polygon points="17.2,78.3 17.8,76.3 18.2,76.5 17.5,78.4 		"/>
		<polygon points="18.5,74.4 19.5,72.6 20,72.9 19,74.7 		"/>
		<polygon points="20.6,70.9 21.8,69.3 22.4,69.8 21.1,71.3 		"/>
		<polygon points="23.3,67.8 24.9,66.5 25.4,67.2 23.8,68.4 		"/>
		<polygon points="26.7,65.5 28.6,64.7 28.9,65.5 27.1,66.2 		"/>
		<polygon points="30.6,64.1 32.7,63.9 32.7,64.8 30.8,65 		"/>
		<polygon points="34.8,64 36.8,64.3 36.6,65.1 34.7,64.8 		"/>
		<polygon points="38.8,65 40.6,66 40.3,66.6 38.5,65.7 		"/>
		<path d="M42.3,67.2l0.7,0.7c0.2,0.2,0.5,0.5,0.7,0.7L43.4,69c-0.2-0.3-0.5-0.5-0.7-0.7l-0.7-0.7L42.3,67.2z"/>
		<polygon points="45,70.3 46,72.1 45.7,72.3 44.6,70.6 		"/>
		<polygon points="46.9,73.9 47.9,75.7 47.6,75.8 46.6,74 		"/>
		<polygon points="48.8,77.4 50,79.1 49.7,79.3 48.6,77.6 		"/>
		<path d="M51.2,80.6c0.2,0.2,0.5,0.5,0.7,0.7l0.8,0.6l-0.2,0.3l-0.8-0.7c-0.3-0.2-0.5-0.5-0.7-0.7L51.2,80.6z"/>
		<polygon points="54.4,83 56.3,83.7 56.1,84.2 54.2,83.4 		"/>
		<path d="M58.2,84.2c0.7,0.1,1.3,0.2,2,0.3l-0.1,0.7c-0.7-0.1-1.3-0.3-2-0.4L58.2,84.2z"/>
		<polygon points="62.2,84.6 64.2,84.6 64.2,85.4 62.1,85.4 		"/>
		<polygon points="66.1,84.3 68.1,83.9 68.3,84.8 66.2,85.2 		"/>
		<polygon points="70,83.4 71.8,82.7 72.2,83.5 70.3,84.3 		"/>
		<polygon points="73.6,81.8 75.3,80.8 75.9,81.7 74.1,82.7 		"/>
		<polygon points="76.9,79.7 78.5,78.4 79.2,79.2 77.6,80.5 		"/>
		<polygon points="79.9,77.1 81.2,75.6 82,76.2 80.7,77.8 		"/>
		<polygon points="82.4,74 83.5,72.3 84.3,72.9 83.2,74.6 		"/>
		<polygon points="84.4,70.6 85.3,68.8 86.2,69.2 85.3,71.1 		"/>
		<polygon points="86.1,67 86.9,65.1 87.7,65.4 87,67.3 		"/>
		<polygon points="87.6,63.2 88.3,61.3 89,61.6 88.4,63.5 		"/>
		<polygon points="88.9,59.4 89.6,57.5 90.2,57.7 89.6,59.7 		"/>
		<polygon points="90.3,55.6 91,53.7 91.4,53.9 90.8,55.8 		"/>
		<polygon points="91.7,51.8 92.6,50 92.8,50.1 92.1,52 		"/>
		<polygon points="93.5,48.2 94,47.3 94,47.3 93.6,48.2 		"/>
	</g>
</g>
<g>
	<g>
		<path d="M10.7,80.6c0.9,0.3,1.7,0.8,2.3,1.4c0.3,0.3,0.6,0.7,0.9,1c0.3,0.3,0.7,0.5,1.2,0.7c0.8,0.3,1.6,0.8,2.4,1.3
			c0.7,0.5,1.4,1.1,2.1,1.8l0,0.1c-0.9-0.2-1.8-0.5-2.6-1c-0.8-0.5-1.5-1-2.1-1.7c-0.3-0.3-0.7-0.6-1-0.9c-0.4-0.2-0.8-0.4-1.2-0.6
			C11.7,82.1,11.1,81.5,10.7,80.6L10.7,80.6z"/>
	</g>
	<g>
		<path d="M15,78.5c0,1.2-0.3,2.3-0.7,3.4c-0.2,0.5-0.6,1-0.8,1.5c-0.2,0.5-0.3,1.1-0.4,1.7c-0.2,1.1-0.5,2.2-0.8,3.3
			c-0.4,1.1-0.9,2.1-1.5,3.1l-0.1,0c0-1.2,0.3-2.3,0.6-3.4c0.4-1.1,0.8-2.2,1.3-3.2c0.3-0.5,0.5-1,0.6-1.6c0.1-0.6,0.2-1.1,0.3-1.7
			C13.8,80.5,14.3,79.4,15,78.5L15,78.5z"/>
	</g>
</g>
<g>
	<g>
		<path d="M21.7,45.2c1.5,0,2.8-0.8,3.7-1.8c0.9-1,1.6-2.3,1.9-3.6c0.4-1.3,0.4-2.8-0.5-3.9c-0.9-1.1-2.4-1.5-3.8-1.4
			c-1.4,0-2.7,0.6-3.7,1.5c-1,0.9-1.6,2.2-1.8,3.5c-0.2,1.3-0.1,2.7,0.6,3.9C18.8,44.6,20.3,45.3,21.7,45.2z M21.7,45.3
			c-0.7,0-1.5-0.1-2.2-0.3c-0.7-0.2-1.4-0.7-1.9-1.3c-1-1.2-1.3-2.9-1.1-4.4c0.2-1.5,1-3,2.2-4c1.2-1,2.8-1.5,4.3-1.3
			c1.5,0.1,3,0.6,4,1.7c1,1.1,1.4,2.8,1.1,4.3c-0.3,1.5-1.1,2.9-2.3,3.9C24.6,44.8,23.2,45.3,21.7,45.3z"/>
	</g>
	<g>
		<polygon points="23.1,45.2 23.1,54.5 22.1,45.3 		"/>
	</g>
</g>
</svg>
