<svg id="Capa_1" data-name="Capa 1" xmlns="http://www.w3.org/2000/svg" viewBox="0 0 821 376"><defs><style>.cls-1,.cls-11,.cls-14,.cls-17,.cls-20,.cls-21,.cls-22,.cls-23,.cls-24,.cls-3,.cls-5,.cls-8{fill:none;stroke-miterlimit:10;}.cls-1,.cls-20,.cls-3{stroke:#0090cf;}.cls-1,.cls-14,.cls-17,.cls-5,.cls-8{stroke-width:5px;}.cls-2,.cls-4{fill:#0090cf;}.cls-11,.cls-3{stroke-width:2px;}.cls-10,.cls-13,.cls-16,.cls-27,.cls-4,.cls-6{font-size:17px;font-family:OpenSans-Semibold, Open Sans;font-weight:700;}.cls-22,.cls-5{stroke:#1f8174;}.cls-6,.cls-7{fill:#1f8174;}.cls-21,.cls-8{stroke:#ff6f4a;}.cls-10,.cls-9{fill:#ff6f4a;}.cls-11{stroke:#99abb2;stroke-dasharray:2 2;}.cls-12{fill:#99abb2;}.cls-13,.cls-15{fill:#ffd41c;}.cls-14,.cls-23{stroke:#ffd41c;}.cls-16,.cls-18{fill:#ba1965;}.cls-17,.cls-24{stroke:#ba1965;}.cls-19{font-size:13px;font-family:OpenSans-Light, Open Sans;}.cls-19,.cls-25{fill:#4d4d4d;}.cls-26{font-size:7px;fill:#fff;font-family:OpenSans, Open Sans;}.cls-27{fill:#6e18ff;}</style></defs><title>Design Sprint Adaptado</title><circle class="cls-1" cx="67.44" cy="231.25" r="37.25"/><path class="cls-2" d="M83.05,227.63a10.25,10.25,0,0,0-14.59-.08l-1,1-1-1a10.26,10.26,0,0,0-14.52,14.51l12.83,12.83a3.8,3.8,0,0,0,5.37,0l12.75-12.74A10.37,10.37,0,0,0,83.05,227.63ZM81.54,240.8,68.8,253.55a1.91,1.91,0,0,1-2.69,0L53.29,240.72a8.36,8.36,0,1,1,11.82-11.83l1,1-1.53,1.53a1,1,0,0,0,0,1.35,1,1,0,0,0,.67.27.92.92,0,0,0,.67-.28l3.88-3.88a8.35,8.35,0,0,1,11.89.07A8.45,8.45,0,0,1,81.54,240.8Z"/><path class="cls-2" d="M82.63,234.38a7,7,0,0,0-2-4.48,7.06,7.06,0,0,0-3-1.78.95.95,0,0,0-.51,1.83,5.05,5.05,0,0,1,3.67,4.54.94.94,0,0,0,1,.89h0A.94.94,0,0,0,82.63,234.38Z"/><circle class="cls-3" cx="67.21" cy="215.81" r="6.54"/><text class="cls-4" transform="translate(33.44 75.58)">DEFINIR</text><circle class="cls-5" cx="194.44" cy="147.25" r="37.25"/><text class="cls-6" transform="translate(163.44 268.58)">IDEAR</text><path class="cls-7" d="M205.19,128.9a15.08,15.08,0,0,0-5.41-3.13,15.31,15.31,0,0,0-19.86,12.06,15.25,15.25,0,0,0,5.93,14.66,2.68,2.68,0,0,1,1.07,2.13v8.22a2.77,2.77,0,0,0,1.93,2.64,6.29,6.29,0,0,0,12.49-.07,2.79,2.79,0,0,0,1.75-2.57v-8.22a2.65,2.65,0,0,1,1.06-2.13,15.28,15.28,0,0,0,4.45-5.27,15.05,15.05,0,0,0,1.67-6.94A15.29,15.29,0,0,0,205.19,128.9Zm-12.88,14.92a6,6,0,0,0,5.39,0v12.27h-5.39Zm.21-2L195,136.9l2.48,4.95A4.2,4.2,0,0,1,192.52,141.85Zm-1.11,16h9.88V160H188.71v-2.07Zm-2.7,3.87h12.58v1.09a1,1,0,0,1-.89,1H189.69a1,1,0,0,1-1-1v-1.09Zm6.38,7.45a4.42,4.42,0,0,1-3.17-1.31,4.38,4.38,0,0,1-1.23-2.28h8.8A4.49,4.49,0,0,1,195.09,169.2Zm8-18.14a4.47,4.47,0,0,0-1.78,3.56v1.47h-1.8V142a.17.17,0,0,0,0-.07v0a.14.14,0,0,1,0-.07v0l0-.07v0h0l-3.58-7.17A.92.92,0,0,0,195,134a.89.89,0,0,0-.8.49l-3.59,7.17h0v0l0,.07v0a.64.64,0,0,1,0,.07v0s0,.05,0,.07v0a.28.28,0,0,0,0,.09v14h-1.8v-1.47a4.47,4.47,0,0,0-1.78-3.57,13.46,13.46,0,0,1,6.53-24.16A13.34,13.34,0,0,1,204,130.24a13.46,13.46,0,0,1-.92,20.82Z"/><path class="cls-7" d="M202.79,131.57a.9.9,0,0,0-1.2,1.34,9.92,9.92,0,0,1,3.29,7.37.9.9,0,0,0,1.8,0A11.73,11.73,0,0,0,202.79,131.57Z"/><circle class="cls-8" cx="335.09" cy="211.25" r="37.25"/><path class="cls-9" d="M320.63,210.88h-2.4L316,207.21a.8.8,0,0,0-.67-.37h-6.91a.78.78,0,0,0-.78.79.84.84,0,0,0,.11.41l2.27,3.65-2.27,3.64a.79.79,0,0,0,.26,1.08.73.73,0,0,0,.41.12h6.91a.8.8,0,0,0,.67-.37l2.3-3.72h2.37a17,17,0,1,0,0-1.56Zm-5.78-2.47,1.54,2.47h-5.07l-1.54-2.47Zm0,6.55h-5.07l1.54-2.47h5.06Zm22.75-18.72a15.42,15.42,0,1,1-15.38,16.2h3.2a12.21,12.21,0,1,0,0-1.56h-3.2A15.42,15.42,0,0,1,337.6,196.24Zm-7.41,16.2a7.45,7.45,0,1,0,0-1.56H327a10.66,10.66,0,1,1,0,1.56Zm4.86,0a2.69,2.69,0,1,0,0-1.56h-3.28a5.89,5.89,0,1,1,0,1.56Zm2.56-1.56h-.81a1.11,1.11,0,0,1,1.59,0,1.1,1.1,0,0,1,0,1.58,1.12,1.12,0,0,1-1.59,0l0,0h.8a.78.78,0,1,0,0-1.56Z"/><text class="cls-10" transform="translate(295.57 42.58)">DECIDIR</text><path class="cls-11" d="M110,222s2-14.89,20-34c10.26-10.9,18.47-16.05,23-18.33"/><polygon class="cls-12" points="153.44 172.81 157 168 151.06 167.31 153.44 172.81"/><text class="cls-13" transform="translate(421.47 253.58)">PROTOTIPAR</text><circle class="cls-14" cx="467.18" cy="136.25" r="37.25"/><path class="cls-15" d="M452.75,118.77a2.17,2.17,0,0,0-1.53,3.7,2.15,2.15,0,0,0,1.53.64,2.18,2.18,0,0,0,1.54-3.71,2.2,2.2,0,0,0-1.54-.63Zm.51,2.68a.72.72,0,0,1-.51.21.75.75,0,0,1-.51-.21.72.72,0,0,1,0-1,.71.71,0,0,1,.51-.21.68.68,0,0,1,.51.21.71.71,0,0,1,0,1Zm0,0"/><path class="cls-15" d="M483.13,151.32a2.17,2.17,0,0,0,0-3.07,2.17,2.17,0,0,0-3.06,0,2.17,2.17,0,0,0,0,3.07,2.17,2.17,0,0,0,3.06,0Zm-2-2a.72.72,0,0,1,1,0,.73.73,0,0,1-.51,1.24.75.75,0,0,1-.51-.21.74.74,0,0,1,0-1Zm0,0"/><path class="cls-15" d="M456.79,134.85a.71.71,0,0,0,.51.21.72.72,0,0,0,.51-1.23L446.28,122.3l7.83-7.83,5.11,5.1L457,121.79a.72.72,0,0,0,.51,1.23.71.71,0,0,0,.51-.21l2.22-2.21,1.93,1.93L460,124.74a.73.73,0,0,0,.52,1.24.7.7,0,0,0,.51-.22l2.21-2.21,1.93,1.93-2.21,2.22a.72.72,0,0,0,0,1,.71.71,0,0,0,.51.21.73.73,0,0,0,.51-.21l2.73-2.73a.72.72,0,0,0,0-1l-12-12a.74.74,0,0,0-1,0l-8.85,8.86a.72.72,0,0,0,0,1Zm0,0"/><path class="cls-15" d="M477.56,135.87a.72.72,0,0,0-1,0l-2.72,2.73a.72.72,0,0,0,0,1,.71.71,0,0,0,.51.21.73.73,0,0,0,.51-.21l2.21-2.22,1.94,1.94-2.22,2.21a.72.72,0,0,0,.51,1.23.71.71,0,0,0,.51-.21l2.22-2.21,1.93,1.93-2.21,2.21a.72.72,0,0,0,0,1,.71.71,0,0,0,.51.21.73.73,0,0,0,.51-.21l2.21-2.22,5.11,5.11-7.83,7.84-11.53-11.53a.72.72,0,0,0-1,0,.71.71,0,0,0,0,1l12,12a.71.71,0,0,0,.51.21.73.73,0,0,0,.51-.21l8.85-8.86a.71.71,0,0,0,0-1Zm0,0"/><path class="cls-15" d="M482.82,127.56l5.94-6a3.62,3.62,0,0,0,0-5.11L486,113.78a3.62,3.62,0,0,0-5.11,0l-1.37,1.36a.72.72,0,0,0,0,1,.74.74,0,0,0,1,0L482,114.8a2.15,2.15,0,0,1,3.06,0l2.73,2.72a2.19,2.19,0,0,1,0,3.07l-2.9,2.89-6.3-6.3a.72.72,0,0,0-1,0L475,119.72l-25.46,25.47h0v0a.6.6,0,0,0-.14.21l-2.78,6.76h0l-2,4.82a.73.73,0,0,0,.16.79.71.71,0,0,0,.51.21.81.81,0,0,0,.27-.05l4.82-2h0l6.76-2.78a1,1,0,0,0,.21-.14l0,0h0Zm-25.73,23.68a4.81,4.81,0,0,0-.71-.92,4.46,4.46,0,0,0-2-1.16l18.88-18.88a.72.72,0,1,0-1-1l-18.88,18.88a4.5,4.5,0,0,0-1.16-2,4.44,4.44,0,0,0-.92-.71l24.19-24.2,2.39,2.39-2.9,2.89a.72.72,0,0,0,0,1,.7.7,0,0,0,.51.22.68.68,0,0,0,.51-.22l2.9-2.89,2.38,2.38Zm-6.84,3.2-2.15-2.16,2.33-5.66a2.77,2.77,0,0,1,.76.56,2.83,2.83,0,0,1,.85,2.48.72.72,0,0,0,.84.84,2.84,2.84,0,0,1,2.48.84,3.23,3.23,0,0,1,.56.77ZM478,118.72l5.79,5.79L482.31,126l-5.8-5.79Zm-30.53,35,1.31,1.31-2.22.91Zm0,0"/><text class="cls-16" transform="translate(566.65 25.58)">PROBAR</text><circle class="cls-17" cx="612.36" cy="192.25" r="37.25"/><path class="cls-18" d="M625.19,180.11a.71.71,0,0,0-.71.71v31.7a0,0,0,0,1-.05,0H599.52a.7.7,0,0,0-.7.7.7.7,0,0,0,.7.71h24.91a1.46,1.46,0,0,0,1.46-1.46v-31.7A.7.7,0,0,0,625.19,180.11Z"/><path class="cls-18" d="M629.72,171.81h-6.51l-2.37-2.37a2.17,2.17,0,0,0-1.56-.65H595a1.47,1.47,0,0,0-1.47,1.46v42.27A1.46,1.46,0,0,0,595,214h1.55v1.56A1.47,1.47,0,0,0,598,217h31.71a1.47,1.47,0,0,0,1.46-1.46V173.27A1.47,1.47,0,0,0,629.72,171.81Zm-9.87-1.36,6.65,6.64h-6.6s0,0,0,0v-6.6Zm9.91,45.09a0,0,0,0,1,0,.05H598a0,0,0,0,1,0-.05V214h.8a.71.71,0,0,0,.71-.71.7.7,0,0,0-.71-.7H595a0,0,0,0,1,0,0V170.25a.05.05,0,0,1,0-.05h23.44v6.85a1.47,1.47,0,0,0,1.46,1.46h7.55a.71.71,0,0,0,.71-.71v-.13a2.21,2.21,0,0,0-.65-1.57l-2.88-2.88h5.09s0,0,0,.05Z"/><path class="cls-18" d="M597.25,179.31v4.53a1.47,1.47,0,0,0,1.46,1.46h4.53a1.46,1.46,0,0,0,1.46-1.46v-4.68l1.31-1.3a.72.72,0,0,0,0-1,.7.7,0,0,0-1,0l-4,4a0,0,0,0,1-.07,0l-1.59-1.59h1.23a.7.7,0,0,0,.7-.7.7.7,0,0,0-.7-.71h-1.87a1.49,1.49,0,0,0-.63.14l-.38-.38a.71.71,0,0,0-1,1l.56.56S597.25,179.26,597.25,179.31Zm3.73,3a1.43,1.43,0,0,0,1-.43l1.28-1.28v3.27a0,0,0,0,1,0,0h-4.53a0,0,0,0,1,0,0v-3.27l1.28,1.28A1.41,1.41,0,0,0,601,182.28Z"/><path class="cls-18" d="M603.62,187.66h-4.53a1.47,1.47,0,0,0-1.46,1.46v4.53a1.46,1.46,0,0,0,1.46,1.46h4.53a1.46,1.46,0,0,0,1.46-1.46v-4.53A1.46,1.46,0,0,0,603.62,187.66Zm0,6a0,0,0,0,1,0,0h-4.53a0,0,0,0,1-.05,0v-4.53a.05.05,0,0,1,.05-.05h4.53a.05.05,0,0,1,0,.05Z"/><path class="cls-18" d="M605.08,203.46v-4.53a1.46,1.46,0,0,0-1.46-1.46h-4.53a1.47,1.47,0,0,0-1.46,1.46v4.53a1.46,1.46,0,0,0,1.46,1.46h4.53A1.46,1.46,0,0,0,605.08,203.46Zm-6,0v-4.53a0,0,0,0,1,.05,0h4.53a0,0,0,0,1,0,0v4.53a0,0,0,0,1,0,0h-4.53A0,0,0,0,1,599,203.46Z"/><path class="cls-18" d="M608.94,180.77h6.79a.71.71,0,0,0,.71-.71.7.7,0,0,0-.71-.7h-6.79a.7.7,0,0,0-.71.7A.71.71,0,0,0,608.94,180.77Z"/><path class="cls-18" d="M608.94,183.79h12.83a.71.71,0,0,0,.71-.71.7.7,0,0,0-.71-.7H608.94a.7.7,0,0,0-.71.7A.71.71,0,0,0,608.94,183.79Z"/><path class="cls-18" d="M608.94,190.58h6.79a.7.7,0,0,0,.71-.7.71.71,0,0,0-.71-.71h-6.79a.71.71,0,0,0-.71.71A.7.7,0,0,0,608.94,190.58Z"/><path class="cls-18" d="M608.94,193.6h12.83a.7.7,0,0,0,.71-.7.71.71,0,0,0-.71-.71H608.94a.71.71,0,0,0-.71.71A.7.7,0,0,0,608.94,193.6Z"/><path class="cls-18" d="M608.94,200.4h6.79a.71.71,0,1,0,0-1.42h-6.79a.71.71,0,0,0,0,1.42Z"/><path class="cls-18" d="M608.94,203.41h12.83a.7.7,0,0,0,.71-.7.71.71,0,0,0-.71-.71H608.94a.71.71,0,0,0-.71.71A.7.7,0,0,0,608.94,203.41Z"/><text class="cls-19" transform="translate(33.44 95)">Priorizar cuál es el <tspan x="0" y="15.6">desafío que se </tspan><tspan x="0" y="31.2">abordará</tspan></text><text class="cls-19" transform="translate(163.44 290)">Obtener distintas <tspan x="0" y="15.6">soluciones del </tspan><tspan x="0" y="31.2">mismo problema</tspan></text><line class="cls-20" x1="67.44" y1="186" x2="67.44" y2="146"/><circle class="cls-20" cx="67.5" cy="143.5" r="3"/><line class="cls-21" x1="334.44" y1="165" x2="334.44" y2="125"/><circle class="cls-21" cx="334.5" cy="122.5" r="3"/><line class="cls-22" x1="194.56" y1="195.5" x2="194.56" y2="235.5"/><circle class="cls-22" cx="194.5" cy="238" r="3"/><text class="cls-19" transform="translate(295.57 63)">Decidir elementos <tspan x="0" y="15.6">que se utilizarán </tspan><tspan x="0" y="31.2">para el prototipo </tspan><tspan x="0" y="46.8">final</tspan></text><text class="cls-19" transform="translate(421.57 275)">Se arma un <tspan x="0" y="15.6">prototipo de </tspan><tspan x="0" y="31.2">mediana o alta </tspan><tspan x="0" y="46.8">fidelidad</tspan></text><line class="cls-23" x1="468.56" y1="183.5" x2="468.56" y2="223.5"/><circle class="cls-23" cx="468.5" cy="226" r="3"/><line class="cls-24" x1="612.44" y1="149" x2="612.44" y2="109"/><circle class="cls-24" cx="612.5" cy="106.5" r="3"/><text class="cls-19" transform="translate(566.57 45)">Se generan test <tspan x="0" y="15.6">con usuarios para </tspan><tspan x="0" y="31.2">validar el </tspan><tspan x="0" y="46.8">prototipo.</tspan></text><path class="cls-11" d="M237.86,149.54s15,.85,35.46,17.29c11.67,9.38,17.44,17.16,20.07,21.54"/><polygon class="cls-12" points="290.29 189.01 295.36 192.19 295.58 186.21 290.29 189.01"/><path class="cls-11" d="M378,203s2-14.89,20-34c10.26-10.9,18.47-16.05,23-18.33"/><polygon class="cls-12" points="421.44 153.81 425 149 419.06 148.31 421.44 153.81"/><path class="cls-11" d="M510.86,133.54s15,.85,35.46,17.29c11.67,9.38,17.44,17.16,20.07,21.54"/><polygon class="cls-12" points="563.29 173.01 568.36 176.19 568.58 170.21 563.29 173.01"/><path class="cls-11" d="M656.87,206.79s23.64-.36,44.07-19.26c11.82-10.93,15.08-20.15,15.91-25.26"/><polygon class="cls-12" points="719.71 163.33 717.05 157.97 713.74 162.95 719.71 163.33"/><rect class="cls-25" x="35" y="351" width="50" height="12" rx="3.89" ry="3.89"/><text class="cls-26" transform="translate(39 359.32)">Día 1 - Lunes</text><rect class="cls-25" x="159" y="351" width="53" height="12" rx="3.89" ry="3.89"/><text class="cls-26" transform="translate(163 359.32)">Día 2 - Martes</text><rect class="cls-25" x="298" y="351" width="62" height="12" rx="3.89" ry="3.89"/><text class="cls-26" transform="translate(302 359.32)">Día 3 - Miércoles</text><rect class="cls-25" x="422" y="351" width="51" height="12" rx="3.89" ry="3.89"/><text class="cls-26" transform="translate(426 359.32)">Día 4 - Jueves</text><rect class="cls-25" x="566" y="351" width="54" height="12" rx="3.89" ry="3.89"/><text class="cls-26" transform="translate(570 359.32)">Día 5 - Viernes</text><text class="cls-27" transform="translate(686.65 140.92)">APRENDER</text></svg>