<?xml version="1.0" encoding="utf-8"?>
<!-- Generator: Adobe Illustrator 22.1.0, SVG Export Plug-In . SVG Version: 6.00 Build 0)  -->
<svg version="1.1" xmlns="http://www.w3.org/2000/svg" xmlns:xlink="http://www.w3.org/1999/xlink" x="0px" y="0px"
	 viewBox="0 0 271 68" style="enable-background:new 0 0 271 68;" xml:space="preserve">
<style type="text/css">
	.st0{clip-path:url(#SVGID_2_);}
	.st1{clip-path:url(#SVGID_4_);fill:#83B950;}
	.st2{clip-path:url(#SVGID_6_);}
	.st3{clip-path:url(#SVGID_8_);fill:#757581;}
	.st4{clip-path:url(#SVGID_10_);}
	.st5{clip-path:url(#SVGID_12_);fill:#83B950;}
	.st6{clip-path:url(#SVGID_14_);}
	.st7{clip-path:url(#SVGID_16_);fill:#757581;}
	.st8{fill:#666666;}
	.st9{clip-path:url(#SVGID_18_);}
	.st10{clip-path:url(#SVGID_20_);fill:#83B950;}
	.st11{clip-path:url(#SVGID_22_);}
	.st12{clip-path:url(#SVGID_24_);fill:#757581;}
	.st13{fill:none;}
	.st14{font-family:'AmaticSC-Bold';}
	.st15{font-size:34.6035px;}
	.st16{font-family:'AmaticSC-Regular';}
	.st17{clip-path:url(#SVGID_26_);}
	.st18{clip-path:url(#SVGID_28_);fill:#83B950;}
	.st19{clip-path:url(#SVGID_30_);}
	.st20{clip-path:url(#SVGID_32_);fill:#757581;}
	.st21{fill:#8D5296;}
	.st22{fill:#1F1D1E;}
	.st23{clip-path:url(#SVGID_34_);}
	.st24{clip-path:url(#SVGID_36_);fill:#83B950;}
	.st25{clip-path:url(#SVGID_38_);}
	.st26{clip-path:url(#SVGID_40_);fill:#757581;}
	.st27{fill:#7BA74E;stroke:#83B950;stroke-miterlimit:10;}
	.st28{clip-path:url(#SVGID_42_);}
	.st29{clip-path:url(#SVGID_44_);fill:#83B950;}
	.st30{clip-path:url(#SVGID_46_);}
	.st31{clip-path:url(#SVGID_48_);fill:#757581;}
	.st32{fill:#83B950;}
	.st33{clip-path:url(#SVGID_50_);}
	.st34{clip-path:url(#SVGID_52_);fill:#83B950;}
	.st35{clip-path:url(#SVGID_54_);}
	.st36{clip-path:url(#SVGID_56_);fill:#757581;}
	.st37{fill:#545454;}
	.st38{clip-path:url(#SVGID_58_);}
	.st39{clip-path:url(#SVGID_60_);fill:#83B950;}
	.st40{clip-path:url(#SVGID_62_);}
	.st41{clip-path:url(#SVGID_64_);fill:#757581;}
	.st42{fill:#F9F9F9;}
	.st43{fill:none;stroke:#0090CF;stroke-width:5;stroke-miterlimit:10;}
	.st44{fill:#0090CF;}
	.st45{fill:none;stroke:#0090CF;stroke-width:2;stroke-miterlimit:10;}
	.st46{fill:none;stroke:#1F8174;stroke-width:5;stroke-miterlimit:10;}
	.st47{fill:#1F8174;}
	.st48{fill:none;stroke:#FF6F4A;stroke-width:5;stroke-miterlimit:10;}
	.st49{fill:#FF6F4A;}
	.st50{fill:none;stroke:#99ABB2;stroke-width:2;stroke-miterlimit:10;}
	.st51{fill:#FFD41C;}
	.st52{fill:none;stroke:#FFD41C;stroke-width:5;stroke-miterlimit:10;}
	.st53{fill:none;stroke:#BA1965;stroke-width:5;stroke-miterlimit:10;}
	.st54{fill:#BA1965;}
	.st55{fill:#4D4D4D;}
	.st56{fill:none;stroke:#0090CF;stroke-miterlimit:10;}
	.st57{fill:none;stroke:#FF6F4A;stroke-miterlimit:10;}
	.st58{fill:none;stroke:#1F8174;stroke-miterlimit:10;}
	.st59{fill:none;stroke:#FFD41C;stroke-miterlimit:10;}
	.st60{fill:none;stroke:#BA1965;stroke-miterlimit:10;}
	.st61{fill:none;stroke:#99ABB2;stroke-width:2;stroke-miterlimit:10;stroke-dasharray:2,2;}
	.st62{fill:#99ABB2;}
	.st63{fill:#D5E3EF;}
	.st64{fill:#B0C4D9;}
	.st65{fill:#F79548;}
	.st66{fill:#FCBB76;}
	.st67{fill:#99B4CD;}
	.st68{fill:#6C9ABB;}
	.st69{fill:#70B7E5;}
	.st70{fill:#F04B4D;}
	.st71{fill:#4C9CD6;}
	.st72{fill:#F04D4E;}
	.st73{fill:#DB343F;}
	.st74{fill:#ECF0F9;}
	.st75{fill:#F26A56;}
	.st76{fill:#6E18FF;}
	.st77{fill:none;stroke:#000000;stroke-miterlimit:10;}
	.st78{fill:none;stroke:#000000;stroke-miterlimit:10;stroke-dasharray:2.0164,2.0164;}
	.st79{fill:none;stroke:#000000;stroke-miterlimit:10;stroke-dasharray:2,2;}
	.st80{fill:none;stroke:#6E18FF;stroke-miterlimit:10;}
	.st81{fill:#464655;}
	.st82{fill:#FFFFFF;}
	.st83{fill:#BEC8DC;}
	.st84{fill:#AFBBD0;}
	.st85{fill:#96A5B9;}
	.st86{fill:#E4EAF6;}
	.st87{fill:#FF6469;}
	.st88{fill:none;stroke:#000000;stroke-miterlimit:10;stroke-dasharray:2.0247,2.0247;}
	.st89{fill:none;stroke:#6E18FF;stroke-miterlimit:10;stroke-dasharray:2.0247,2.0247;}
	.st90{fill:#F1E00F;}
	.st91{fill:#C52171;}
	.st92{fill:none;stroke:#FBFAE1;stroke-miterlimit:10;}
	.st93{fill:#4C9E81;}
	.st94{fill:#2F5B46;}
	.st95{fill:#2090BC;}
	.st96{fill:#097189;}
	.st97{fill:#33AEE1;}
	.st98{fill:none;stroke:#1F1D1E;stroke-miterlimit:10;}
	.st99{fill:#89C8E9;}
	.st100{fill:#CBE5EB;}
	.st101{fill:#E4E3B2;}
	.st102{fill:#241622;}
	.st103{fill:#662D91;}
	.st104{fill:#4E237C;}
	.st105{fill:#333233;}
	.st106{fill:#CC898E;}
	.st107{fill:#CCCCCC;}
	.st108{fill:#E4A42E;}
	.st109{fill:#D38A31;}
	.st110{fill:#BB5F77;}
	.st111{fill:#FCF7FA;}
</style>
<g id="Capa_1">
	<g>
		<g>
			<defs>
				<path id="SVGID_9_" d="M171.6,54c-0.2,0.7-0.9,1.2-1.7,1.2c0,0-0.9,0-1.6-0.2l0,0c-0.4-0.1-0.7,0.2-0.8,0.6
					c-0.3,2.5-2.7,4.4-5.2,4.2c-0.1,0-0.2-0.1-0.2-0.3c0-0.1,0.1-0.2,0.2-0.2h0c1.7-0.6,3.3-2.2,3.4-4c0-0.2-0.1-0.6-0.5-0.7
					c-0.3,0-0.6,0.3-0.6,0.5c-0.9,2-2.1,2.7-3.3,3.1c-1.4,0.4-2.2,0.1-3.2,1.7c-0.1,0.1-0.2,0.1-0.3,0.1c-0.1-0.1-0.2-0.2-0.1-0.3
					c0.3-1.1,0.4-1.8,2.3-3.1c1.3-0.8,1.5-1.5,1.6-2.7c0-0.4-0.1-0.9-0.7-0.9c-1.3,0.1-1.9,1.1-2.1,2.2c-0.3,1.2-0.9,1.5-1.7,1.9
					c0,0-0.1,0-0.1,0c-0.1,0-0.3-0.1-0.3-0.3c0-0.1,0-0.1,0.1-0.2c0.9-0.9,0.9-1.3,1-2.9c0-1.1,1-2.7,2-3c0.4-0.1,0.5-0.6,0.3-0.9
					l0,0c-0.3-0.5-0.6-1-0.8-1.5l0,0c-0.1-0.2-0.2-0.5-0.2-0.7c0-0.6,0.3-1.1,0.7-1.4c1.3-1.1,3-1.7,4.8-1.7c4.1,0,7.4,3.3,7.4,7.4
					C172,52.6,171.9,53.3,171.6,54L171.6,54z"/>
			</defs>
			<clipPath id="SVGID_2_">
				<use xlink:href="#SVGID_9_"  style="overflow:visible;"/>
			</clipPath>
			<g class="st0">
				<defs>
					<rect id="SVGID_11_" x="149.3" y="37.3" width="111.6" height="29.4"/>
				</defs>
				<clipPath id="SVGID_4_">
					<use xlink:href="#SVGID_11_"  style="overflow:visible;"/>
				</clipPath>
				<rect x="156.3" y="44" class="st1" width="16" height="16.3"/>
			</g>
		</g>
		<g>
			<defs>
				<path id="SVGID_13_" d="M212.9,57.7h-2.2v-7.9h2.2V57.7z M187.6,53.7c0,0.8,0.2,1.3,0.5,1.8c0.3,0.4,0.8,0.6,1.5,0.6
					c0.6,0,1.1-0.2,1.5-0.6c0.4-0.4,0.5-1,0.5-1.8c0-0.8-0.2-1.3-0.5-1.8c-0.4-0.4-0.8-0.6-1.5-0.6c-0.6,0-1.1,0.2-1.5,0.6
					C187.8,52.4,187.6,53,187.6,53.7z M193.7,53.7c0,1.2-0.4,2.2-1.1,3c-0.7,0.7-1.8,1.1-3,1.1c-1.3,0-2.3-0.4-3-1.1
					c-0.8-0.7-1.1-1.7-1.1-3c0-1.2,0.4-2.2,1.1-3c0.8-0.7,1.8-1.1,3-1.1c1.3,0,2.3,0.4,3,1.1C193.4,51.5,193.7,52.5,193.7,53.7z
					 M204.3,49.7v-1.1h2.1v1.1h2.2v1.9h-2.2v2.9c0,0.6,0.1,1,0.3,1.2c0.2,0.2,0.5,0.3,1,0.3h0.8v1.6h-1.9c-0.8,0-1.3-0.2-1.8-0.6
					c-0.4-0.4-0.6-1-0.6-1.8V49.7L204.3,49.7z M195,49.7h3.9c1.2,0,2,0.2,2.5,0.7c0.5,0.4,0.8,1.2,0.8,2.2v5h-2.1v-4.8
					c0-0.6-0.1-1-0.3-1.2c-0.2-0.2-0.5-0.3-1.1-0.3h-1.7v6.2H195V49.7z M182.4,56h2.2v1.7h-2.8c-0.7,0-1.3-0.1-1.8-0.2
					c-0.5-0.1-0.9-0.4-1.2-0.7c-0.4-0.4-0.6-0.8-0.9-1.3c-0.2-0.5-0.3-1.1-0.3-1.7c0-0.6,0.1-1.2,0.3-1.7c0.2-0.5,0.5-1,0.9-1.3
					c0.3-0.3,0.7-0.6,1.2-0.7c0.5-0.1,1-0.2,1.7-0.2h2.8v1.7h-2.2c-1,0-1.6,0.2-2,0.5c-0.4,0.3-0.6,0.9-0.6,1.8
					c0,0.5,0.1,0.9,0.2,1.2c0.2,0.3,0.4,0.6,0.7,0.8c0.2,0.1,0.3,0.2,0.5,0.2C181.5,55.9,181.9,56,182.4,56z M241.8,49.7h7.9
					c1.2,0,2,0.2,2.5,0.7c0.5,0.5,0.8,1.2,0.8,2.2v5h-2.1v-4.7c0-0.6-0.1-1-0.3-1.2c-0.2-0.2-0.5-0.3-1.1-0.3h-1.2v6.2h-2.1v-6.2
					h-2.4v6.2h-2.1V49.7z M215,49.7h3.9c1.2,0,2,0.2,2.5,0.7c0.5,0.4,0.8,1.2,0.8,2.2v5h-2.1v-4.8c0-0.6-0.1-1-0.3-1.2
					c-0.2-0.2-0.5-0.3-1.1-0.3h-1.7v6.2H215V49.7z M239.9,57.7H236c-1.1,0-2-0.2-2.5-0.7c-0.5-0.5-0.8-1.2-0.8-2.2v-5h2.1v4.9
					c0,0.5,0.1,0.9,0.3,1.1c0.2,0.2,0.5,0.3,1.1,0.3h1.7v-6.2h2.1V57.7z M231,57.7h-3.9c-1.1,0-2-0.2-2.5-0.7
					c-0.5-0.5-0.8-1.2-0.8-2.2v-5h2.1v4.9c0,0.5,0.1,0.9,0.3,1.1c0.2,0.2,0.5,0.3,1.1,0.3h1.7v-6.2h2.1V57.7z"/>
			</defs>
			<clipPath id="SVGID_6_">
				<use xlink:href="#SVGID_13_"  style="overflow:visible;"/>
			</clipPath>
			<g class="st2">
				<defs>
					<rect id="SVGID_15_" x="149.3" y="37.3" width="111.6" height="29.4"/>
				</defs>
				<clipPath id="SVGID_8_">
					<use xlink:href="#SVGID_15_"  style="overflow:visible;"/>
				</clipPath>
				<rect x="177.3" y="48.3" class="st3" width="76" height="9.9"/>
			</g>
		</g>
	</g>
	<rect x="11.1" y="16.7" class="st13" width="254.9" height="31.9"/>
	<text transform="matrix(1 0 0 1 11.1396 39.5703)"><tspan x="0" y="0" class="st8 st14 st15">Design Sprint </tspan><tspan x="144.8" y="0" class="st8 st16 st15">Enterprise</tspan></text>
</g>
<g id="pintura">
</g>
<g id="detalles">
</g>
<g id="ilustracion">
</g>
</svg>
