<?xml version="1.0" encoding="UTF-8" standalone="no"?>
<svg width="1322px" height="215px" viewBox="0 0 1322 215" version="1.1" xmlns="http://www.w3.org/2000/svg" xmlns:xlink="http://www.w3.org/1999/xlink">
    <!-- Generator: Sketch 3.8.3 (29802) - http://www.bohemiancoding.com/sketch -->
    <title>Imported Layers</title>
    <desc>Created with Sketch.</desc>
    <defs></defs>
    <g id="Page-1" stroke="none" stroke-width="1" fill="none" fill-rule="evenodd">
        <g id="logo-continuum-alt-darkbg" transform="translate(-101.000000, -97.000000)">
            <g id="Imported-Layers" transform="translate(101.000000, 97.481593)">
                <path d="M205.192084,132.025451 C202.173031,141.806675 192.971423,148.919143 182.099585,148.919143 C182.099585,148.919143 169.548489,148.655518 159.751015,145.981345 L159.758238,145.961483 C154.686158,145.237416 149.982431,148.720521 149.252947,153.743848 C145.704839,187.383168 112.464569,214.327125 78.2221611,211.568087 C76.264833,211.568087 74.8257274,210.015225 74.8257274,208.079565 C74.8257274,206.528509 75.8477271,205.212187 77.254331,204.746329 L77.2940553,204.746329 C100.523784,197.066886 122.076061,174.21815 124.434244,149.262217 C124.869406,146.190801 123.042085,140.663696 117.765966,140.114778 C113.325865,139.647114 110.014297,144.484459 109.004937,146.678327 C97.1345728,174.693037 79.6468215,184.313557 63.924999,189.136457 C44.59187,195.07525 34.3104806,190.635149 20.5495975,212.828433 C19.5763504,214.096001 17.8068103,214.576305 16.2647824,213.879323 C14.4807971,213.072196 14.0781364,211.123896 14.5187158,209.229766 C18.0036265,194.275346 20.5189014,184.56996 46.5871168,167.34764 C63.7931863,156.049667 66.7562632,146.434564 68.4319094,130.382307 C68.9609658,125.355368 66.866408,117.627173 58.2119122,117.995526 C40.7674965,118.741261 32.7305341,132.476865 29.0849202,148.363002 C25.4266668,164.249139 17.2235843,168.34436 5.84074644,173.864242 C5.29724483,174.198288 4.65082098,174.393298 3.96828406,174.393298 C2.00012206,174.393298 0.41295289,172.820574 0.41295289,170.884914 C0.41295289,169.908056 0.813807903,169.041342 1.46023175,168.400335 C13.7188114,155.408661 13.7711754,150.313107 14.6469172,128.078294 C15.2427827,112.677877 28.0827827,90.8330847 42.3727222,86.9346794 C47.5224452,85.5262699 48.7737629,79.116201 46.4607211,74.5895187 L46.4462759,74.4829852 C42.1127082,67.8110966 38.2756951,60.7997451 34.9496819,53.5031005 L35.0128797,53.4832383 C33.5737741,50.4190448 32.7630358,47.0045546 32.7630358,43.4022764 C32.7630358,35.6325507 36.22989,28.5254996 42.0422877,24.1612358 C59.8225549,9.29709857 82.799492,0.335641681 107.898072,0.335641681 C164.279593,0.335641681 209.980676,45.560032 209.980676,101.343792 C209.980676,112.098263 208.281556,122.464518 205.13972,132.193377 L205.192084,132.025451 L205.192084,132.025451 Z" id="Fill-1" fill="#65BC45"></path>
                <path d="M1019.74969,182.162302 L966.349305,182.162302 C950.605815,182.162302 939.210338,179.002409 932.213431,172.707902 C925.207497,166.395338 921.708141,156.307154 921.708141,142.418069 L921.708141,73.4981819 L950.03884,73.4981819 L950.03884,140.106833 C950.03884,147.352919 951.272101,152.19207 953.765708,154.615257 C956.252093,157.031221 961.214028,158.241008 968.637068,158.241008 L991.417189,158.241008 L991.417189,73.4981819 L1019.74969,73.4981819 L1019.74969,182.162302 L1019.74969,182.162302 Z M1142.44925,182.162302 L1089.04886,182.162302 C1073.29815,182.162302 1061.92072,179.002409 1054.90757,172.707902 C1047.90705,166.395338 1044.39325,156.307154 1044.39325,142.418069 L1044.39325,73.4981819 L1072.742,73.4981819 L1072.742,140.106833 C1072.742,147.352919 1073.96804,152.19207 1076.45804,154.615257 C1078.94442,157.031221 1083.89914,158.241008 1091.3312,158.241008 L1114.1023,158.241008 L1114.1023,73.4981819 L1142.44925,73.4981819 L1142.44925,182.162302 L1142.44925,182.162302 Z M800.296019,73.4981819 L853.665711,73.4981819 C869.784777,73.4981819 881.30665,76.5749247 888.200634,82.7159513 C895.11448,88.8732287 898.548833,99.0661411 898.548833,113.314551 L898.548833,182.162302 L870.225357,182.162302 L870.225357,116.840991 C870.225357,108.717358 868.974039,103.453878 866.473209,101.037914 C863.983213,98.6219504 858.990582,97.4103571 851.471842,97.4103571 L828.642969,97.4103571 L828.642969,182.162302 L800.296019,182.162302 L800.296019,73.4981819 L800.296019,73.4981819 Z M1167.90535,73.4981819 L1276.85124,73.4981819 C1292.63265,73.4981819 1304.00284,76.6236773 1310.96364,82.8712374 C1317.93707,89.1224089 1321.41295,99.2719856 1321.41295,113.314551 L1321.41295,182.162302 L1292.87641,182.162302 L1292.87641,117.043224 C1292.87641,109.058626 1291.67384,103.791536 1289.29219,101.240148 C1286.89067,98.6851483 1281.98471,97.4103571 1274.54722,97.4103571 L1258.62497,97.4103571 L1258.62497,182.162302 L1229.67855,182.162302 L1229.67855,97.4103571 L1196.4455,97.4103571 L1196.4455,182.162302 L1167.90535,182.162302 L1167.90535,73.4981819 L1167.90535,73.4981819 Z M353.041135,158.85493 L383.172071,158.85493 L383.172071,182.162302 L344.689989,182.162302 C334.937656,182.162302 326.933196,181.131274 320.665773,179.085469 C314.391128,177.045081 308.943473,173.731707 304.301138,169.172433 C299.326564,164.199664 295.43177,158.138086 292.611339,150.994922 C289.792715,143.846341 288.378888,136.264403 288.378888,128.277999 C288.378888,119.888934 289.778269,112.052399 292.560781,104.762977 C295.346904,97.4771663 299.26156,91.3848923 304.301138,86.4843495 C309.013893,81.9250752 314.531969,78.6153128 320.86259,76.5604795 C327.19321,74.5201816 335.143501,73.4981819 344.689989,73.4981819 L383.172071,73.4981819 L383.172071,96.9986682 L353.041135,96.9986682 C339.713609,96.9986682 330.537279,99.3333778 325.49409,103.986546 C320.454512,108.65416 317.94646,116.750709 317.94646,128.277999 C317.94646,134.926414 318.975682,140.426434 321.021487,144.778058 C323.081737,149.144127 326.26691,152.659734 330.567976,155.332101 C332.698646,156.606892 335.166974,157.518747 337.981988,158.047803 C340.795195,158.589499 345.814911,158.85493 353.041135,158.85493 L353.041135,158.85493 Z M526.044381,73.4981819 L579.414073,73.4981819 C595.540362,73.4981819 607.051401,76.5749247 613.947191,82.7159513 C620.852008,88.8732287 624.304417,99.0661411 624.304417,113.314551 L624.304417,182.162302 L595.96469,182.162302 L595.96469,116.840991 C595.96469,108.717358 594.722401,103.453878 592.228794,101.037914 C589.736992,98.6219504 584.72811,97.4103571 577.220204,97.4103571 L554.37508,97.4103571 L554.37508,182.162302 L526.044381,182.162302 L526.044381,73.4981819 L526.044381,73.4981819 Z M653.265289,73.4981819 L653.265289,58.7189104 L681.605016,58.7189104 L681.605016,73.4981819 L711.571637,73.4981819 L711.571637,99.5410279 L681.605016,99.5410279 L681.605016,139.054137 C681.605016,147.110962 682.957451,152.701264 685.67857,155.82685 C688.408718,158.945213 693.148557,160.51252 699.92698,160.51252 L711.571637,160.51252 L711.571637,182.162302 L685.67857,182.162302 C675.211198,182.162302 667.192292,179.217282 661.623658,173.348909 C656.047801,167.46609 653.265289,159.069803 653.265289,148.118516 L653.265289,73.6913868 L653.265289,73.4981819 L653.265289,73.4981819 Z M508.742612,127.929508 C508.742612,144.980291 503.618168,158.589499 493.356641,168.760744 C483.107753,178.924766 469.2927,184.020319 451.907871,184.020319 C434.528459,184.020319 420.657431,178.91032 410.303816,168.706574 C399.952006,158.506439 394.778809,144.911676 394.778809,127.929508 C394.778809,110.882336 399.952006,97.2297918 410.303816,87.002572 C420.657431,76.7627126 434.528459,71.6455817 451.907871,71.6455817 C469.166305,71.6455817 482.952467,76.7627126 493.260941,87.002572 C503.580249,97.2297918 508.742612,110.882336 508.742612,127.929508 L508.742612,127.929508 Z M424.55042,127.875338 C424.55042,138.219925 426.933882,146.274944 431.706223,152.060257 C436.478565,157.831125 443.157676,160.712947 451.70925,160.712947 C460.21207,160.712947 466.87132,157.831125 471.715887,152.060257 C476.558649,146.274944 478.974613,138.219925 478.974613,127.875338 C478.974613,117.545196 476.576706,109.495594 471.762834,103.764451 C466.952574,98.0152509 460.264434,95.1478736 451.70925,95.1478736 C443.217262,95.1478736 436.572459,98.0296962 431.762198,103.809592 C426.948327,109.578654 424.55042,117.599366 424.55042,127.875338 L424.55042,127.875338 Z M771.264727,182.162302 L741.50395,182.162302 L741.50395,73.4981819 L771.264727,73.4981819 L771.264727,182.162302 L771.264727,182.162302 Z" id="Fill-2" fill="#FFFFFF"></path>
            </g>
        </g>
    </g>
</svg>